<svg version="1.1" id="Layer_1" xmlns="http://www.w3.org/2000/svg" xmlns:xlink="http://www.w3.org/1999/xlink" x="0px" y="0px"
	 width="100%" viewBox="0 0 1024 1024" enable-background="new 0 0 1024 1024" xml:space="preserve">
<path fill="#FFFFFF" opacity="1.000000" stroke="none" 
	d="
M552.000000,1025.000000 
	C368.000000,1025.000000 184.500000,1025.000000 1.000000,1025.000000 
	C1.000000,683.666687 1.000000,342.333344 1.000000,1.000000 
	C342.333344,1.000000 683.666687,1.000000 1025.000000,1.000000 
	C1025.000000,342.333344 1025.000000,683.666687 1025.000000,1025.000000 
	C867.500000,1025.000000 710.000000,1025.000000 552.000000,1025.000000 
M634.882507,545.489929 
	C634.595581,545.299316 634.308655,545.108704 634.011108,544.988159 
	C634.011108,544.988159 634.081055,544.976990 633.879333,544.486755 
	C633.593262,544.288330 633.307190,544.089905 633.028259,543.968750 
	C633.028259,543.968750 633.102783,543.947144 632.876221,543.342834 
	C631.947876,542.179626 631.019470,541.016479 630.064880,539.951904 
	C630.064880,539.951904 630.166992,539.953003 630.030701,539.175598 
	C629.295959,536.644226 628.030212,534.135986 627.918884,531.577515 
	C627.450439,520.805359 627.256042,510.019226 627.099609,499.236206 
	C626.982422,491.155853 627.076477,483.072388 627.076477,475.006958 
	C617.981812,475.006958 609.415100,475.006958 600.989319,475.006958 
	C600.989319,494.539001 600.679321,513.805054 601.143066,533.052490 
	C601.326538,540.666809 604.071289,547.922791 608.965271,554.011963 
	C608.965271,554.011963 608.882751,554.074463 609.026245,554.658020 
	C609.553528,555.224304 610.080750,555.790649 610.725159,556.282898 
	C610.725159,556.282898 610.592102,556.244080 610.678528,556.849182 
	C611.091919,557.274109 611.505310,557.698975 611.952332,558.048279 
	C611.952332,558.048279 611.869873,558.041504 612.038696,558.574768 
	C612.337524,558.776550 612.636414,558.978333 612.906433,559.069763 
	C612.906433,559.069763 612.808105,559.127686 613.022278,559.694153 
	C613.635864,560.196960 614.249451,560.699829 614.896362,561.102234 
	C614.896362,561.102234 614.796997,561.138550 615.010437,561.706055 
	C615.633667,562.197327 616.256897,562.688660 616.931396,563.088989 
	C616.931396,563.088989 616.829407,563.066772 617.010986,563.593079 
	C617.328735,563.767456 617.646545,563.941772 617.963318,564.035095 
	C617.963318,564.035095 617.889709,564.069092 618.185486,564.645020 
	C619.437927,565.460876 620.690308,566.276672 621.994324,567.016602 
	C621.994324,567.016602 621.912842,567.058899 622.281067,567.647400 
	C641.819763,578.872986 661.444946,578.953064 681.056519,568.078552 
	C681.056519,568.078552 681.061096,568.180237 681.734131,568.029358 
	C683.532532,566.716309 685.330994,565.403259 687.023254,564.057373 
	C687.023254,564.057373 687.095642,564.141785 687.733398,563.926086 
	C690.513245,560.965576 693.293091,558.005005 696.002197,555.009094 
	C696.002197,555.009094 696.046753,555.074402 696.543091,554.758240 
	C696.881104,553.893066 697.219116,553.027893 698.043335,551.601685 
	C698.707031,550.585571 699.370789,549.569458 700.597717,548.238403 
	C702.318909,542.914612 704.776184,537.697693 705.568787,532.239075 
	C706.491882,525.881409 706.020630,519.312500 706.043884,512.834778 
	C706.089111,500.247528 706.057129,487.659973 706.057129,475.035767 
	C696.845215,475.035767 688.128845,475.035767 678.982971,475.035767 
	C678.982971,491.181427 679.249634,507.103943 678.840149,523.009094 
	C678.694336,528.672241 676.907898,534.293091 675.956116,539.960388 
	C675.956116,539.960388 675.925720,539.875732 675.380676,540.189453 
	C674.855347,541.087585 674.330017,541.985779 673.915771,542.932678 
	C673.915771,542.932678 673.934204,542.812744 673.408569,543.010132 
	C673.222839,543.326416 673.037109,543.642639 672.964783,543.967163 
	C672.964783,543.967163 672.958069,543.853577 672.434875,544.043579 
	C672.234619,544.345764 672.034424,544.648010 671.958740,544.955261 
	C671.958740,544.955261 671.944580,544.831421 671.420288,545.027649 
	C671.222473,545.334473 671.024719,545.641357 670.940186,545.932800 
	C670.940186,545.932800 670.898560,545.826355 670.237122,546.101990 
	C658.990906,553.292847 647.585449,553.202515 636.030334,546.961792 
	C636.030334,546.961792 636.142761,546.959229 635.940613,546.454468 
	C635.635925,546.273438 635.331238,546.092346 635.015625,545.983643 
	C635.015625,545.983643 635.088318,545.975220 634.882507,545.489929 
M794.052063,505.563416 
	C794.350281,505.766113 794.648560,505.968842 794.946167,506.037231 
	C794.946167,506.037231 794.814148,506.062042 794.985718,506.678741 
	C795.621338,507.505585 796.256958,508.332428 796.921631,509.055725 
	C796.921631,509.055725 796.814453,509.063782 796.960571,509.820068 
	C798.066467,514.222778 799.172363,518.625427 800.114136,523.947998 
	C800.127991,539.069214 800.118164,554.190552 800.192322,569.311462 
	C800.199707,570.818665 800.718323,572.323425 801.919922,574.018799 
	C810.174927,574.018799 818.429871,574.018799 826.898132,574.018799 
	C826.898132,555.413330 827.265198,537.314148 826.677002,519.246094 
	C826.497803,513.740234 823.688232,508.319885 822.050720,502.965973 
	C822.050720,502.965973 822.160889,502.975250 822.040222,502.321533 
	C821.716553,501.798553 821.392883,501.275574 821.094910,500.360382 
	C821.094910,500.360382 820.942139,499.998199 820.965576,499.440094 
	C820.663330,499.238831 820.361084,499.037598 820.043335,498.970215 
	C820.043335,498.970215 820.177979,498.965515 820.058838,498.330627 
	C819.732666,497.840790 819.406494,497.350952 819.050659,496.965759 
	C819.050659,496.965759 819.159180,496.972107 819.033691,496.345642 
	C818.729492,495.842804 818.425354,495.339966 818.087158,494.933655 
	C818.087158,494.933655 818.189209,494.925476 818.016113,494.251312 
	C816.070312,492.069672 814.124451,489.888031 812.162903,487.870636 
	C812.162903,487.870636 812.315918,487.808960 812.148926,487.160400 
	C810.459778,485.728302 808.770691,484.296234 807.042358,482.946869 
	C807.042358,482.946869 807.132446,482.963135 806.911255,482.485291 
	C806.610168,482.327972 806.309021,482.170654 806.000793,481.993195 
	C806.000793,481.993195 805.979797,481.996765 805.628418,481.528595 
	C805.100403,481.292145 804.572449,481.055664 804.053711,480.933167 
	C804.053711,480.933167 804.160278,480.891663 803.807556,480.293610 
	C801.218506,479.141968 798.629517,477.990326 796.034729,476.940948 
	C796.034729,476.940948 796.135132,476.920532 795.791199,476.284637 
	C783.187134,470.872131 770.345337,470.585968 757.355042,474.641968 
	C748.321716,477.462463 740.490601,482.154022 734.845154,489.803955 
	C734.845154,489.803955 734.739807,489.688660 734.187622,489.933807 
	C733.739441,490.593384 733.291199,491.252960 732.933228,491.943176 
	C732.933228,491.943176 732.910583,491.850647 732.332031,492.150635 
	C731.523499,493.417938 730.714966,494.685242 729.986328,495.980713 
	C729.986328,495.980713 729.947510,495.905426 729.394836,496.311859 
	C727.239563,502.005493 723.446655,507.636322 723.225464,513.404114 
	C722.457275,533.432739 722.928894,553.508850 722.928894,573.749390 
	C730.946472,573.749390 739.468689,573.749390 748.286499,573.749390 
	C748.286499,558.994812 748.214111,544.529907 748.315125,530.066223 
	C748.370850,522.095703 748.499023,514.080688 753.067078,507.062286 
	C753.067078,507.062286 753.105286,507.162262 753.643799,506.910767 
	C754.117126,506.288818 754.590454,505.666870 755.006653,505.002716 
	C755.006653,505.002716 755.026978,505.070801 755.504944,504.868958 
	C755.695312,504.587463 755.885681,504.305969 756.008118,504.007751 
	C756.008118,504.007751 756.029785,504.074371 756.535706,503.905243 
	C756.724365,503.612915 756.912964,503.320557 757.021545,503.027496 
	C757.021545,503.027496 757.034241,503.106567 757.566467,502.946838 
	C757.771545,502.654175 757.976624,502.361511 758.048706,502.063904 
	C758.048706,502.063904 758.074158,502.194550 758.638550,502.045349 
	C758.853577,501.750702 759.068604,501.456055 759.092468,501.136993 
	C759.092468,501.136993 759.130737,501.325775 759.783936,501.248962 
	C760.290833,500.861023 760.797729,500.473114 761.700134,500.096008 
	C761.700134,500.096008 762.020691,499.864166 762.548706,499.821106 
	C762.791199,499.570465 763.033691,499.319824 763.667725,499.095276 
	C763.667725,499.095276 763.999939,498.886322 764.781250,498.788818 
	C771.892395,495.828033 778.939636,496.805786 785.965210,499.046814 
	C785.965210,499.046814 785.882263,499.069153 786.237671,499.569794 
	C786.815369,499.759216 787.393066,499.948639 787.960083,500.047363 
	C787.960083,500.047363 787.875244,500.081146 788.182312,500.638031 
	C789.096680,501.160126 790.010986,501.682251 790.947571,502.065308 
	C790.947571,502.065308 790.807068,502.075226 790.995728,502.604218 
	C791.317261,502.780090 791.638733,502.955963 791.970398,503.031311 
	C791.970398,503.031311 791.869507,503.037933 792.066528,503.547150 
	C792.368286,503.734863 792.670044,503.922577 792.979431,504.024017 
	C792.979431,504.024017 792.892883,504.028625 793.081299,504.537598 
	C793.377808,504.731293 793.674316,504.924988 793.971497,505.022400 
	C793.971497,505.022400 793.876160,505.035553 794.052063,505.563416 
M350.957336,489.434052 
	C350.654572,489.240112 350.351807,489.046143 350.077850,488.948273 
	C350.077850,488.948273 350.161560,488.892975 349.926270,488.307007 
	C348.984650,487.485748 348.043030,486.664520 347.051849,485.928925 
	C347.051849,485.928925 347.148285,485.951019 346.946442,485.440857 
	C346.641998,485.254883 346.337585,485.068909 346.038879,484.964874 
	C346.038879,484.964874 346.113983,484.931641 345.777985,484.344055 
	C327.250702,470.633728 307.681305,468.317291 286.984192,478.999573 
	C286.984192,478.999573 286.976562,478.930756 286.303650,479.045135 
	C284.485931,480.330292 282.668243,481.615417 280.945129,482.927521 
	C280.945129,482.927521 280.937073,482.829468 280.306519,482.998230 
	C279.173737,483.980225 278.040985,484.962219 276.989441,485.984894 
	C276.989441,485.984894 276.943054,485.906769 276.363129,486.147400 
	C275.540039,487.078217 274.716919,488.009033 273.976288,488.978821 
	C273.976288,488.978821 273.940735,488.894775 273.353607,489.226349 
	C269.729950,495.488220 264.974060,501.368988 262.712128,508.089203 
	C257.587585,523.314087 258.431885,538.397156 267.951080,552.211426 
	C267.951080,552.211426 267.663330,552.227478 267.721283,552.895020 
	C268.785522,554.307434 269.849762,555.719788 270.944183,557.031982 
	C270.944183,557.031982 270.855988,557.088318 271.043610,557.662170 
	C271.610352,558.200806 272.177094,558.739441 272.847717,559.220642 
	C272.847717,559.220642 272.749390,559.154053 272.894226,559.820251 
	C276.244629,562.601440 279.595001,565.382690 282.953918,568.067261 
	C282.953918,568.067261 282.859680,568.090149 283.216187,568.658875 
	C284.800323,569.474121 286.384491,570.289368 287.986877,571.026611 
	C287.986877,571.026611 287.911713,571.054199 288.372131,571.584473 
	C306.058777,579.699158 323.348938,579.520691 340.052734,569.070496 
	C340.052734,569.070496 340.047668,569.174805 340.638824,569.070984 
	C341.117065,568.727112 341.595276,568.383240 342.009186,568.001465 
	C342.009186,568.001465 342.039886,568.069519 342.642853,567.909302 
	C343.658813,566.950867 344.674774,565.992432 346.063446,564.449524 
	C348.383789,562.203003 350.704163,559.956421 353.652527,557.579285 
	C354.817169,555.736450 355.981842,553.893616 357.058716,552.040283 
	C357.058716,552.040283 357.087341,552.123840 357.665680,551.743774 
	C366.535553,535.365173 367.757355,518.772034 359.052277,501.982971 
	C359.052277,501.982971 359.131561,501.957672 359.045471,501.241882 
	C356.775085,498.066589 354.504700,494.891296 352.283051,491.851257 
	C352.283051,491.851257 352.374603,491.740448 352.366974,491.132721 
	C351.935516,490.716278 351.504059,490.299835 351.036926,489.959076 
	C351.036926,489.959076 351.120514,489.962280 350.957336,489.434052 
M466.087067,490.950562 
	C466.087067,490.950562 466.205627,490.906830 466.021088,490.304169 
	C465.398102,489.783813 464.775116,489.263428 464.129303,488.881989 
	C464.129303,488.881989 464.266418,488.850037 464.103973,488.196106 
	C462.088593,486.431824 460.073212,484.667511 458.012238,482.978699 
	C458.012238,482.978699 458.094025,482.945618 457.723663,482.375366 
	C451.669342,479.434265 445.875519,475.589294 439.502838,473.752930 
	C428.532654,470.591705 417.335114,470.499664 406.085358,476.226349 
	C405.716736,476.513855 405.348145,476.801392 404.110260,476.951538 
	C403.710999,475.357056 402.971436,473.764099 402.964417,472.167908 
	C402.881042,453.192291 402.906738,434.216217 402.903961,415.240265 
	C402.903717,413.652710 402.903931,412.065155 402.903931,410.469482 
	C393.320648,410.469482 384.404510,410.469482 375.471771,410.469482 
	C375.280487,411.194885 375.053345,411.654022 375.053406,412.113159 
	C375.056549,450.897156 374.920197,489.682343 375.216583,528.464233 
	C375.283661,537.239868 377.392853,545.835693 382.885040,553.048035 
	C382.885040,553.048035 382.811218,553.118225 382.938232,553.741760 
	C383.577820,554.552612 384.217407,555.363464 384.869080,556.047607 
	C384.869080,556.047607 384.792023,556.148926 384.951965,556.724243 
	C385.627136,557.388489 386.302307,558.052734 387.569946,559.083618 
	C394.035400,567.735657 402.691925,572.837830 413.719391,575.475830 
	C426.386292,578.462158 438.521179,577.073425 450.013550,571.023193 
	C450.013550,571.023193 450.051758,571.098816 450.749725,570.980530 
	C455.516937,567.329529 460.284149,563.678528 464.998840,560.002380 
	C464.998840,560.002380 465.027740,560.052979 465.577789,559.725037 
	C466.440826,558.516846 467.303864,557.308655 468.079468,556.057617 
	C468.079468,556.057617 468.098541,556.153076 468.686768,555.809326 
	C470.157410,553.216736 471.628052,550.624084 473.022400,548.013367 
	C473.022400,548.013367 473.053558,548.085266 473.594574,547.618591 
	C479.305084,533.989197 480.766602,520.220459 474.905060,505.458130 
	C474.078827,503.992950 473.252563,502.527802 472.262146,500.472656 
	C471.874939,499.601624 471.487701,498.730591 471.064758,497.948730 
	C471.064758,497.948730 471.160217,497.959473 471.062073,497.363525 
	C470.723846,496.881317 470.385620,496.399078 470.016907,495.994049 
	C470.016907,495.994049 470.086487,495.948853 469.929291,495.321472 
	C468.980499,494.172546 468.031708,493.023621 467.051239,491.953308 
	C467.051239,491.953308 467.135956,491.950317 466.989746,491.407471 
	C466.683105,491.213440 466.376465,491.019409 466.087067,490.950562 
M513.011658,506.026947 
	C513.011658,506.026947 513.060791,506.089386 513.600281,505.852142 
	C514.092102,505.251678 514.583984,504.651215 515.013916,504.006897 
	C515.013916,504.006897 515.030090,504.081055 515.534058,503.903381 
	C515.725952,503.611755 515.917847,503.320129 516.032471,503.045807 
	C516.032471,503.045807 516.070496,503.115234 516.659912,502.933929 
	C517.457703,502.303345 518.255493,501.672760 519.008850,500.996277 
	C519.008850,500.996277 519.031067,501.055817 519.564575,500.939423 
	C519.760254,500.641602 519.955994,500.343750 520.029419,500.044861 
	C520.029419,500.044861 520.044678,500.166138 520.823425,500.020935 
	C531.430359,495.490509 541.488953,496.288330 550.975708,503.031219 
	C550.975708,503.031219 550.885254,503.074188 551.147827,503.642059 
	C552.071045,504.471313 552.994324,505.300568 553.955078,506.035614 
	C553.955078,506.035614 553.865784,506.083618 554.070312,506.700134 
	C554.962646,507.885956 555.854919,509.071777 556.719482,510.131866 
	C556.719482,510.131866 556.624207,510.218506 556.725464,510.821716 
	C556.877625,511.200500 557.029724,511.579285 557.281677,512.740417 
	C557.936829,517.626953 559.069824,522.505005 559.156311,527.401550 
	C559.402222,541.331604 559.196777,555.269348 559.243164,569.203796 
	C559.248291,570.736328 559.733704,572.267212 560.914795,574.013489 
	C569.177612,574.013489 577.440430,574.013489 585.990173,574.013489 
	C585.990173,555.679749 586.343445,537.887695 585.831848,520.120605 
	C585.597961,511.997955 584.216980,503.760559 579.109497,496.931274 
	C579.109497,496.931274 579.223999,496.915131 579.087402,496.235718 
	C577.758728,494.439453 576.429993,492.643188 575.069763,490.949341 
	C575.069763,490.949341 575.161255,490.893555 574.915771,490.269745 
	C572.645874,488.120758 570.375977,485.971741 568.061523,483.924011 
	C568.061523,483.924011 568.170837,483.941315 567.976501,483.419159 
	C567.660828,483.244110 567.345154,483.069031 567.030640,482.972626 
	C567.030640,482.972626 567.101990,482.939575 566.778992,482.399109 
	C565.875305,481.890167 564.971558,481.381226 564.034546,480.957581 
	C564.034546,480.957581 564.120605,480.926300 563.750244,480.344452 
	C545.538635,470.306366 527.263184,469.010651 508.975861,479.979462 
	C508.975861,479.979462 508.947723,479.899139 508.381195,480.032501 
	C507.939240,480.405914 507.497284,480.779327 506.455505,481.145538 
	C506.260254,481.102234 506.065033,481.058960 505.901703,480.077728 
	C505.901703,456.840210 505.901703,433.602692 505.901703,410.163910 
	C496.303955,410.163910 487.216095,410.163910 477.816132,410.163910 
	C477.816132,412.109833 477.815704,413.924957 477.816223,415.740082 
	C477.822937,439.363281 477.714539,462.987762 477.972931,486.608215 
	C478.007782,489.793091 479.888000,492.957794 480.942993,496.042358 
	C480.942993,496.042358 480.849182,496.034943 480.932373,496.651611 
	C481.263214,497.140869 481.594086,497.630127 481.942566,498.038696 
	C481.942566,498.038696 481.860046,498.042603 481.974060,498.796356 
	C489.237427,515.234192 490.443573,532.083679 482.709900,548.404236 
	C478.716370,556.831909 479.463562,565.007874 479.372101,573.723022 
	C488.387512,573.723022 497.083374,573.723022 506.026672,573.723022 
	C506.026672,559.628235 505.711395,545.830872 506.162109,532.058655 
	C506.381531,525.354431 508.031769,518.697083 508.993256,512.010254 
	C508.993256,512.010254 509.022308,512.041138 509.498627,511.594452 
	C510.375397,510.090790 511.252167,508.587097 512.058594,507.041412 
	C512.058594,507.041412 512.041321,507.121460 512.559021,506.949005 
	C512.736328,506.643280 512.913635,506.337555 513.011658,506.026947 
M232.678101,549.855347 
	C233.509338,548.605591 234.340591,547.355835 235.084412,546.045654 
	C235.084412,546.045654 235.107971,546.149353 235.698822,545.804993 
	C241.439194,536.993591 245.758377,527.629456 247.158722,516.434021 
	C247.743118,512.614807 248.327499,508.795593 249.039932,504.048920 
	C249.039932,473.125275 249.039932,442.201599 249.039932,411.035156 
	C238.189926,411.035156 227.295334,411.035156 215.983185,411.035156 
	C215.983185,412.771851 215.982712,414.400696 215.983246,416.029541 
	C215.991608,441.500793 216.288879,466.976837 215.863052,492.440826 
	C215.698196,502.297821 213.895721,512.127441 212.931686,521.978699 
	C212.931686,521.978699 212.920868,521.886475 212.377121,522.322083 
	C210.539764,525.867493 208.702408,529.412964 206.947586,532.952087 
	C206.947586,532.952087 206.918076,532.874756 206.370285,533.170410 
	C206.133408,533.710693 205.896515,534.250916 205.701309,534.688904 
	C205.701309,534.688904 205.591537,534.676880 205.002487,534.904846 
	C203.578766,536.539551 202.155045,538.174194 200.878464,539.798645 
	C200.878464,539.798645 200.807007,539.669556 200.194672,539.696289 
	C199.757263,540.109009 199.319839,540.521729 198.966934,540.958191 
	C198.966934,540.958191 198.935501,540.876221 198.275269,541.119385 
	C184.699402,550.765808 168.866760,551.653931 152.942703,552.272278 
	C152.942703,559.875366 153.030106,566.990845 152.894119,574.102112 
	C152.848083,576.509705 153.534348,577.511292 156.773117,577.063232 
	C157.859756,577.014648 158.946396,576.966125 160.960205,577.022522 
	C167.461990,576.660645 173.963776,576.298828 181.384140,576.038391 
	C186.837051,574.939575 192.441513,574.309692 197.700363,572.610413 
	C202.993683,570.899841 207.943405,568.126099 213.702591,565.850708 
	C215.160934,564.915466 216.619278,563.980164 218.011917,563.003906 
	C218.011917,563.003906 218.041351,563.075500 218.691040,562.863403 
	C221.875580,559.954895 225.060104,557.046387 228.111572,554.118713 
	C228.111572,554.118713 228.143524,554.249329 228.789551,554.108154 
	C229.916122,552.773499 231.042709,551.438904 232.080597,550.060120 
	C232.080597,550.060120 232.101929,550.156860 232.678101,549.855347 
M872.862976,440.961548 
	C872.862976,440.961548 872.650635,441.066620 872.392883,440.149139 
	C872.392883,430.513214 872.392883,420.877258 872.392883,411.247742 
	C863.090698,411.247742 854.187683,411.247742 845.183838,411.247742 
	C845.183838,421.029938 845.183838,430.499329 845.020264,440.465485 
	C845.002441,440.638947 844.984619,440.812378 844.045654,441.142120 
	C838.147644,441.142120 832.249634,441.142120 826.382324,441.142120 
	C826.382324,449.549988 826.382324,457.229401 826.382324,465.201813 
	C832.777710,465.201813 838.881470,465.201813 844.948425,465.022247 
	C844.948425,465.022247 844.792664,465.118805 844.953308,466.027222 
	C844.953308,501.996368 844.953308,537.965515 844.953308,574.069824 
	C854.257996,574.069824 863.170166,574.069824 872.346802,574.069824 
	C872.346802,571.995850 872.345642,570.190979 872.346924,568.386108 
	C872.369751,535.891846 872.381287,503.397583 872.444702,470.903442 
	C872.448486,468.950073 872.866455,466.997467 873.018066,465.004913 
	C873.018066,465.004913 873.016296,465.088470 873.825806,465.170410 
	C879.243713,465.170410 884.661682,465.170410 890.051025,465.170410 
	C890.051025,456.903900 890.051025,449.154480 890.051025,441.179016 
	C884.203003,441.179016 878.580017,441.179016 872.862976,440.961548 
z"/>
<path fill="#703ECD" opacity="1.000000" stroke="none" 
	d="
M404.979523,477.088898 
	C405.348145,476.801392 405.716736,476.513855 406.772888,476.092346 
	C408.444794,475.887695 409.513184,476.042816 410.400879,475.712372 
	C422.354706,471.262787 434.092621,472.933136 445.640228,477.130066 
	C449.929443,478.688965 453.950623,480.985443 458.094025,482.945618 
	C458.094025,482.945618 458.012238,482.978699 458.031097,483.293091 
	C460.122101,485.354980 462.194275,487.102509 464.266418,488.850037 
	C464.266418,488.850037 464.129303,488.881989 464.179688,489.141602 
	C464.888611,489.903076 465.547119,490.404938 466.205627,490.906830 
	C466.205627,490.906830 466.087067,490.950562 466.157867,491.156616 
	C466.531097,491.558563 466.833527,491.754425 467.135956,491.950317 
	C467.135956,491.950317 467.051239,491.953308 467.060791,492.277222 
	C468.075714,493.717041 469.081116,494.832947 470.086487,495.948853 
	C470.086487,495.948853 470.016907,495.994049 470.044373,496.277161 
	C470.434631,497.026672 470.797424,497.493073 471.160217,497.959473 
	C471.160217,497.959473 471.064758,497.948730 471.045868,498.232330 
	C471.493439,499.364838 471.959869,500.213715 472.426331,501.062622 
	C473.252563,502.527802 474.078827,503.992950 474.964172,506.250031 
	C475.180725,508.681641 475.443726,510.319122 475.477692,511.961395 
	C475.647461,520.168274 476.068115,528.388428 475.751556,536.578796 
	C475.602203,540.443237 473.998322,544.251526 473.053528,548.085266 
	C473.053558,548.085266 473.022400,548.013367 472.729736,548.126831 
	C470.990906,550.877869 469.544708,553.515503 468.098541,556.153076 
	C468.098541,556.153076 468.079468,556.057617 467.766174,556.066345 
	C466.644531,557.401001 465.836121,558.726990 465.027710,560.052979 
	C465.027740,560.052979 464.998840,560.002380 464.671387,560.030151 
	C460.780823,562.581665 457.177704,565.051636 453.675049,567.656677 
	C452.347961,568.643616 451.252686,569.942261 450.051758,571.098755 
	C450.051758,571.098816 450.013550,571.023193 449.641754,571.020752 
	C440.999420,572.348938 432.752533,573.864746 424.447510,574.925293 
	C420.764404,575.395569 416.963776,574.945740 413.216492,574.913574 
	C402.691925,572.837830 394.035400,567.735657 387.268494,558.555908 
	C386.242035,557.401733 385.517029,556.775330 384.792023,556.148926 
	C384.792023,556.148926 384.869080,556.047607 384.917419,555.731995 
	C384.247559,554.650330 383.529388,553.884277 382.811218,553.118225 
	C382.811218,553.118225 382.885040,553.048035 382.927032,552.706726 
	C376.812958,539.870178 376.805725,526.503662 376.910828,512.982910 
	C377.156738,481.350861 376.985870,449.715576 377.003021,418.081604 
	C377.004059,416.166565 377.173523,414.251587 377.280151,412.009338 
	C384.048950,412.009338 390.203491,412.225159 396.333496,411.930359 
	C400.157898,411.746460 401.108185,413.117218 401.075958,416.780396 
	C400.911865,435.426331 400.996338,454.074493 401.015167,472.721893 
	C401.016663,474.209686 400.773407,475.889130 401.362701,477.141144 
	C402.297211,479.126495 403.820190,480.105743 404.979523,477.088898 
M443.992920,544.990845 
	C443.992920,544.990845 443.922546,544.954834 444.631653,544.934265 
	C446.107971,542.300171 447.584290,539.666138 449.245361,536.266479 
	C449.817444,531.760315 450.863922,527.254517 450.866974,522.747986 
	C450.874298,511.990601 446.251190,504.042145 436.012329,499.555206 
	C424.510162,494.514587 410.337219,498.838745 405.268646,509.691101 
	C398.834473,523.467407 400.815369,545.872131 420.473328,552.610901 
	C426.700928,553.998596 432.796844,553.681091 438.478912,550.639221 
	C439.894043,549.881592 440.795685,548.164856 441.977020,546.972107 
	C441.977020,546.972107 441.890839,546.934937 442.573914,546.913696 
	C443.034546,546.249451 443.495209,545.585266 443.992920,544.990845 
z"/>
<path fill="#FF6F21" opacity="1.000000" stroke="none" 
	d="
M505.869843,481.015686 
	C506.065033,481.058960 506.260254,481.102234 506.945282,481.358826 
	C507.939270,481.014465 508.443512,480.456787 508.947723,479.899139 
	C508.947723,479.899139 508.975861,479.979462 509.325867,479.972778 
	C510.476288,479.788849 511.348541,479.760010 512.066528,479.412506 
	C528.083069,471.660767 543.989502,472.014862 559.862000,479.881714 
	C561.140076,480.515228 562.694580,480.591248 564.120605,480.926300 
	C564.120605,480.926300 564.034546,480.957581 564.070923,481.279236 
	C565.105469,482.047089 566.103760,482.493317 567.101990,482.939575 
	C567.101990,482.939575 567.030640,482.972626 567.137329,483.185608 
	C567.552917,483.579498 567.861877,483.760406 568.170837,483.941315 
	C568.170837,483.941315 568.061523,483.924011 568.083313,484.224884 
	C570.457153,486.648376 572.809204,488.770966 575.161255,490.893555 
	C575.161255,490.893555 575.069763,490.949341 575.073486,491.259827 
	C576.459534,493.351898 577.841736,495.133514 579.223999,496.915131 
	C579.223999,496.915131 579.109497,496.931274 579.079224,497.273193 
	C580.689026,503.162933 583.483704,508.654541 583.757324,514.268982 
	C584.655640,532.696411 584.609009,551.169006 585.005737,569.622620 
	C585.064026,572.332764 583.849915,573.082764 581.390320,573.008423 
	C577.727722,572.897766 574.059265,572.982544 570.393311,572.984009 
	C561.005920,572.987793 561.005737,572.987793 561.005554,563.426697 
	C561.005310,549.304443 561.005432,535.182190 561.005432,521.059875 
	C560.669067,521.059998 560.332703,521.060120 559.996338,521.060242 
	C559.996338,538.639771 559.996338,556.219360 559.996338,573.798889 
	C559.733704,572.267212 559.248291,570.736328 559.243164,569.203796 
	C559.196777,555.269348 559.402222,541.331604 559.156311,527.401550 
	C559.069824,522.505005 557.936829,517.626953 557.443115,512.171936 
	C557.277771,511.141815 556.950989,510.680176 556.624207,510.218506 
	C556.624207,510.218506 556.719482,510.131866 556.797913,509.822083 
	C555.872803,508.369385 554.869324,507.226501 553.865784,506.083618 
	C553.865784,506.083618 553.955078,506.035614 553.936157,505.723572 
	C552.906555,504.632446 551.895874,503.853302 550.885254,503.074188 
	C550.885254,503.074188 550.975708,503.031219 550.939331,502.719971 
	C544.299500,495.170807 535.772522,495.273865 527.164307,496.588501 
	C524.667175,496.969849 522.411194,498.929810 520.044678,500.166138 
	C520.044678,500.166138 520.029419,500.044861 519.836060,500.130585 
	C519.438843,500.496155 519.234985,500.776001 519.031067,501.055817 
	C519.031067,501.055817 519.008850,500.996277 518.665344,501.019104 
	C517.571411,501.733032 516.820984,502.424164 516.070557,503.115234 
	C516.070496,503.115234 516.032471,503.045807 515.829224,503.141602 
	C515.427307,503.518646 515.228699,503.799835 515.030090,504.081055 
	C515.030090,504.081055 515.013916,504.006897 514.708862,504.052399 
	C513.956116,504.761719 513.508484,505.425537 513.060791,506.089386 
	C513.060791,506.089386 513.011658,506.026947 512.806702,506.133911 
	C512.414978,506.534424 512.228149,506.827942 512.041321,507.121460 
	C512.041321,507.121460 512.058594,507.041412 511.730957,507.076843 
	C510.609650,508.755249 509.815979,510.398193 509.022308,512.041138 
	C509.022308,512.041138 508.993256,512.010254 508.645813,512.064270 
	C507.196381,515.478821 505.282990,518.803589 505.132874,522.206177 
	C504.481506,536.967529 504.343201,551.751587 504.023499,566.527527 
	C503.998322,567.692383 504.388092,569.050903 503.913910,569.974976 
	C503.307739,571.156189 502.059113,572.784729 501.018402,572.836609 
	C495.372406,573.117920 489.702240,573.064331 484.047821,572.888550 
	C483.039490,572.857178 481.192169,571.681396 481.211487,571.081604 
	C481.402069,565.167786 480.344116,558.569702 482.605682,553.484558 
	C490.077850,536.683289 491.544006,520.019348 485.020996,502.791168 
	C484.364716,501.057861 482.932281,499.618439 481.860046,498.042603 
	C481.860046,498.042603 481.942566,498.038696 481.932007,497.755188 
	C481.564026,496.992798 481.206604,496.513885 480.849182,496.034943 
	C480.849182,496.034943 480.942993,496.042358 480.951721,495.678467 
	C480.312378,492.774689 479.116302,490.238037 479.101318,487.694397 
	C478.958435,463.395325 479.063995,439.094910 478.957489,414.795471 
	C478.943146,411.526428 480.373413,410.902863 483.181152,410.978790 
	C488.336945,411.118317 493.525604,411.340332 498.650970,410.921143 
	C503.290833,410.541718 504.138367,412.400665 504.095123,416.610962 
	C503.891663,436.414917 503.960541,456.222443 504.086273,476.027710 
	C504.096832,477.694061 505.248383,479.353210 505.869843,481.015686 
z"/>
<path fill="#703ECD" opacity="1.000000" stroke="none" 
	d="
M353.024506,557.709839 
	C350.704163,559.956421 348.383789,562.203003 345.548706,564.783020 
	C344.035950,566.100830 343.037933,567.085205 342.039886,568.069519 
	C342.039886,568.069519 342.009186,568.001465 341.720215,568.039551 
	C340.970062,568.443420 340.508881,568.809082 340.047668,569.174805 
	C340.047668,569.174805 340.052734,569.070496 339.711121,569.050049 
	C337.819702,569.571838 336.224060,570.010559 334.727600,570.673279 
	C325.308685,574.844604 315.671997,577.454468 305.280243,575.053345 
	C299.491760,573.715820 293.701294,572.386963 287.911713,571.054199 
	C287.911713,571.054199 287.986877,571.026611 287.869812,570.734131 
	C286.121704,569.657776 284.490692,568.873962 282.859680,568.090149 
	C282.859680,568.090149 282.953918,568.067261 282.863403,567.778564 
	C279.431732,564.711304 276.090576,561.932678 272.749390,559.154053 
	C272.749390,559.154053 272.847717,559.220642 272.858643,558.891113 
	C272.198334,558.070557 271.527161,557.579468 270.855988,557.088318 
	C270.855988,557.088318 270.944183,557.031982 270.942566,556.721680 
	C269.848389,555.016724 268.755859,553.622131 267.663330,552.227478 
	C267.663330,552.227478 267.951080,552.211426 267.907898,551.864746 
	C267.750519,551.040283 267.723236,550.519226 267.509705,550.091064 
	C257.121429,529.259949 259.393829,509.674194 273.221558,491.184845 
	C273.673645,490.580292 273.710358,489.665131 273.940735,488.894775 
	C273.940735,488.894775 273.976288,488.978821 274.292328,488.960907 
	C275.386597,487.930908 276.164825,486.918854 276.943054,485.906769 
	C276.943054,485.906769 276.989441,485.984894 277.294678,485.964111 
	C278.712311,484.905365 279.824677,483.867401 280.937073,482.829468 
	C280.937073,482.829468 280.945129,482.927521 281.258759,482.930511 
	C283.373779,481.599274 285.175171,480.265015 286.976562,478.930756 
	C286.976562,478.930756 286.984192,478.999573 287.350769,478.982239 
	C289.759338,478.339691 291.813293,477.750854 293.841431,477.083588 
	C309.387787,471.968872 324.383209,472.715973 338.712189,481.153381 
	C341.094910,482.556366 343.642548,483.679291 346.113983,484.931641 
	C346.113983,484.931641 346.038879,484.964874 346.133087,485.181335 
	C346.534271,485.582214 346.841278,485.766632 347.148285,485.951019 
	C347.148285,485.951019 347.051849,485.928925 347.056458,486.249695 
	C348.094574,487.344635 349.128052,488.118805 350.161560,488.892975 
	C350.161560,488.892975 350.077850,488.948273 350.151581,489.161377 
	C350.523712,489.570374 350.822113,489.766327 351.120514,489.962280 
	C351.120514,489.962280 351.036926,489.959076 351.052063,490.256683 
	C351.502991,490.949677 351.938782,491.345062 352.374603,491.740448 
	C352.374603,491.740448 352.283051,491.851257 352.277252,492.144409 
	C354.558167,495.610901 356.844879,498.784271 359.131561,501.957672 
	C359.131561,501.957672 359.052277,501.982971 359.038757,502.349121 
	C359.346741,504.143799 359.518707,505.626495 360.013428,506.992310 
	C363.961670,517.892883 364.276306,528.913879 361.086212,540.017883 
	C359.913666,544.099243 358.429382,548.091125 357.087341,552.123840 
	C357.087341,552.123840 357.058716,552.040283 356.772461,552.130676 
	C355.332336,554.050659 354.178406,555.880249 353.024506,557.709839 
M334.950256,537.977600 
	C334.950256,537.977600 334.870209,537.960938 335.577271,537.716553 
	C336.683502,532.324829 337.829529,526.940308 338.811676,521.526062 
	C338.881470,521.141418 337.747498,520.538391 336.946930,519.265808 
	C334.470581,514.196838 333.199097,507.764343 329.293304,504.313019 
	C317.282104,493.699402 295.554108,495.160309 288.557159,514.644958 
	C284.050201,527.195618 289.143066,542.064148 297.085815,548.719727 
	C301.089142,550.433472 304.958282,552.663940 309.125610,553.746033 
	C316.304230,555.610229 330.880463,549.857788 331.963959,542.974854 
	C331.963959,542.974854 331.883118,542.936523 332.613098,542.904358 
	C333.385925,541.235596 334.158752,539.566772 334.950256,537.977600 
z"/>
<path fill="#703ECE" opacity="1.000000" stroke="none" 
	d="
M160.033035,576.917603 
	C158.946396,576.966125 157.859756,577.014648 156.201080,576.647949 
	C154.879532,569.003174 154.130005,561.773682 153.411743,554.845703 
	C164.260422,553.079102 173.842285,552.107422 183.090225,549.798462 
	C188.910828,548.345215 195.436813,546.974426 198.935501,540.876221 
	C198.935501,540.876221 198.966934,540.958191 199.258667,540.945923 
	C199.969269,540.512268 200.388138,540.090881 200.807007,539.669556 
	C200.807007,539.669556 200.878464,539.798645 201.157852,539.766113 
	C202.822006,538.047974 204.206772,536.362427 205.591537,534.676880 
	C205.591537,534.676880 205.701309,534.688904 206.011169,534.680664 
	C206.520050,534.073181 206.719070,533.473938 206.918076,532.874756 
	C206.918076,532.874756 206.947586,532.952087 207.244080,532.854919 
	C209.334015,529.133972 211.127441,525.510254 212.920868,521.886475 
	C212.920868,521.886475 212.931686,521.978699 213.219772,521.812378 
	C214.683609,516.543823 216.820663,511.452087 216.876495,506.337585 
	C217.197861,476.889557 217.026642,447.436127 217.022430,417.984528 
	C217.022186,416.207794 217.022400,414.431091 217.022400,412.494324 
	C227.665863,412.494324 237.665222,412.494324 247.979141,412.494324 
	C247.979141,414.776794 247.979233,416.595123 247.979126,418.413483 
	C247.977615,445.369202 247.957214,472.324921 248.014908,499.280518 
	C248.018982,501.179779 248.599457,503.077789 248.911896,504.976379 
	C248.327499,508.795593 247.743118,512.614807 246.710953,516.909302 
	C242.519165,526.476135 238.767303,535.564514 235.056168,544.669373 
	C234.886215,545.086365 235.082336,545.652649 235.107971,546.149353 
	C235.107971,546.149353 235.084412,546.045654 234.767914,546.066528 
	C233.668274,547.443909 232.885117,548.800415 232.101929,550.156860 
	C232.101929,550.156860 232.080597,550.060120 231.778168,550.067871 
	C230.364990,551.466919 229.254257,552.858093 228.143524,554.249329 
	C228.143524,554.249329 228.111572,554.118713 227.830353,554.184937 
	C224.379852,557.192627 221.210602,560.134033 218.041351,563.075500 
	C218.041351,563.075500 218.011917,563.003906 217.679840,563.010498 
	C215.913071,563.950867 214.478378,564.884521 213.043671,565.818237 
	C207.943405,568.126099 202.993683,570.899841 197.700363,572.610413 
	C192.441513,574.309692 186.837051,574.939575 180.563629,576.084717 
	C173.173096,576.393188 166.603058,576.655396 160.033035,576.917603 
z"/>
<path fill="#FF6F21" opacity="1.000000" stroke="none" 
	d="
M700.034485,548.553345 
	C699.370789,549.569458 698.707031,550.585571 697.583862,552.070435 
	C696.765137,553.384277 696.405945,554.229370 696.046753,555.074402 
	C696.046753,555.074402 696.002197,555.009094 695.694336,555.048279 
	C692.622864,558.105530 689.859253,561.123657 687.095642,564.141785 
	C687.095642,564.141785 687.023254,564.057373 686.717285,564.068359 
	C684.627869,565.446350 682.844482,566.813293 681.061096,568.180176 
	C681.061096,568.180237 681.056519,568.078552 680.710571,568.059692 
	C679.261230,568.351013 678.105652,568.539795 677.062317,568.989319 
	C659.964172,576.354858 643.017395,576.324890 626.173462,568.129211 
	C624.884766,567.502136 623.339111,567.403259 621.912842,567.058899 
	C621.912842,567.058899 621.994324,567.016602 621.951843,566.703125 
	C620.569458,565.616150 619.229614,564.842590 617.889709,564.069092 
	C617.889709,564.069092 617.963318,564.035095 617.860229,563.821045 
	C617.447876,563.426941 617.138611,563.246826 616.829407,563.066772 
	C616.829407,563.066772 616.931396,563.088989 616.911682,562.779358 
	C616.193665,562.026001 615.495300,561.582275 614.796997,561.138550 
	C614.796997,561.138550 614.896362,561.102234 614.892944,560.796387 
	C614.195740,560.036194 613.501953,559.581970 612.808105,559.127686 
	C612.808105,559.127686 612.906433,559.069763 612.832397,558.862000 
	C612.462158,558.450012 612.166016,558.245789 611.869873,558.041504 
	C611.869873,558.041504 611.952332,558.048279 611.937988,557.748657 
	C611.479858,557.047363 611.035950,556.645752 610.592102,556.244080 
	C610.592102,556.244080 610.725159,556.282898 610.765808,555.964355 
	C610.165222,555.122009 609.523987,554.598267 608.882751,554.074463 
	C608.882751,554.074463 608.965271,554.011963 608.966675,553.676270 
	C606.651855,545.982483 602.767456,538.715210 602.335693,531.248230 
	C601.338806,514.009216 601.968994,496.672913 602.124695,479.377747 
	C602.134766,478.256348 603.684509,476.217804 604.579102,476.183105 
	C611.500671,475.914856 618.437317,476.035217 625.981506,476.035217 
	C625.981506,478.432892 625.981262,480.210510 625.981567,481.988129 
	C625.984619,497.455292 625.873901,512.923828 626.066345,528.388672 
	C626.118164,532.553406 625.989990,537.104309 630.166992,539.953003 
	C630.166992,539.953003 630.064880,539.951904 630.052856,540.283264 
	C631.061462,541.725464 632.082092,542.836304 633.102783,543.947144 
	C633.102783,543.947144 633.028259,543.968750 633.137207,544.168030 
	C633.524475,544.570557 633.802795,544.773743 634.081055,544.976990 
	C634.081055,544.976990 634.011108,544.988159 634.129639,545.187500 
	C634.528259,545.582947 634.808289,545.779114 635.088318,545.975220 
	C635.088318,545.975220 635.015625,545.983643 635.132324,546.191406 
	C635.546936,546.585876 635.844849,546.772522 636.142761,546.959229 
	C636.142761,546.959229 636.030334,546.961792 636.147339,547.243530 
	C642.793762,554.077393 650.943787,553.724426 659.027954,552.355652 
	C663.528931,551.593567 668.661377,551.094971 670.898560,545.826355 
	C670.898560,545.826355 670.940186,545.932800 671.148010,545.843811 
	C671.552124,545.447021 671.748352,545.139221 671.944580,544.831421 
	C671.944580,544.831421 671.958740,544.955261 672.156982,544.855591 
	C672.556152,544.455139 672.757080,544.154358 672.958069,543.853577 
	C672.958069,543.853577 672.964783,543.967163 673.168457,543.859192 
	C673.559509,543.438354 673.746826,543.125549 673.934204,542.812744 
	C673.934204,542.812744 673.915771,542.932678 674.232300,542.905273 
	C675.007812,541.877197 675.466736,540.876465 675.925720,539.875732 
	C675.925720,539.875732 675.956116,539.960388 676.286377,539.921143 
	C677.112366,539.279175 677.925354,538.736938 678.053589,538.064209 
	C679.103027,532.560547 680.690247,527.052246 680.853577,521.508179 
	C681.256042,507.855072 681.082825,494.180939 680.919922,480.517914 
	C680.878784,477.063477 681.891357,475.755615 685.438904,475.946106 
	C690.257751,476.204865 695.113586,476.226990 699.929626,475.943024 
	C703.762329,475.717041 705.179077,476.799408 705.081604,480.908203 
	C704.805054,492.566895 705.082031,504.237579 704.939941,515.901062 
	C704.873474,521.361572 704.735352,526.876099 703.915344,532.257263 
	C703.077087,537.758728 701.364380,543.126831 700.034485,548.553345 
z"/>
<path fill="#FF6F21" opacity="1.000000" stroke="none" 
	d="
M820.942139,499.998199 
	C820.942139,499.998199 821.094910,500.360382 821.079224,500.895447 
	C821.429321,501.945435 821.795105,502.460358 822.160889,502.975250 
	C822.160889,502.975250 822.050720,502.965973 822.039917,503.324585 
	C823.017029,508.206085 824.767639,512.713928 824.857544,517.254639 
	C825.200439,534.571716 824.966187,551.899719 825.058105,569.222961 
	C825.072815,571.998657 824.169434,573.122131 821.322632,573.021484 
	C816.830811,572.862610 812.309021,572.717712 807.837280,573.057556 
	C803.414551,573.393799 801.769775,572.181763 801.882019,567.367615 
	C802.215637,553.049988 802.273315,538.711548 801.853455,524.398315 
	C801.695984,519.028259 802.168701,512.948059 796.814453,509.063782 
	C796.814453,509.063782 796.921631,509.055725 796.919922,508.760010 
	C796.216858,507.663574 795.515503,506.862793 794.814148,506.062012 
	C794.814148,506.062042 794.946167,506.037231 794.852905,505.844086 
	C794.465149,505.445801 794.170654,505.240692 793.876160,505.035553 
	C793.876160,505.035553 793.971497,505.022400 793.863953,504.825043 
	C793.468567,504.428009 793.180725,504.228302 792.892883,504.028625 
	C792.892883,504.028625 792.979431,504.024017 792.867554,503.820099 
	C792.460327,503.423431 792.164917,503.230682 791.869507,503.037933 
	C791.869507,503.037933 791.970398,503.031311 791.860413,502.823730 
	C791.435974,502.435822 791.121521,502.255524 790.807068,502.075256 
	C790.807068,502.075226 790.947571,502.065308 790.844177,501.801514 
	C789.785583,501.052216 788.830444,500.566681 787.875244,500.081146 
	C787.875244,500.081146 787.960083,500.047363 787.818848,499.808350 
	C787.079163,499.402588 786.480713,499.235870 785.882263,499.069153 
	C785.882263,499.069153 785.965210,499.046814 785.823608,498.733276 
	C779.121277,494.742889 772.252625,495.474152 765.362854,497.110596 
	C764.799744,497.244354 764.449280,498.273315 763.999939,498.886322 
	C763.999939,498.886322 763.667725,499.095276 763.224243,499.149353 
	C762.527405,499.423645 762.274048,499.643921 762.020691,499.864197 
	C762.020691,499.864166 761.700134,500.096008 761.149536,500.087891 
	C760.109497,500.495087 759.620117,500.910431 759.130737,501.325806 
	C759.130737,501.325775 759.092468,501.136993 758.900513,501.202820 
	C758.497131,501.577301 758.285645,501.885925 758.074158,502.194550 
	C758.074158,502.194550 758.048706,502.063904 757.852844,502.150146 
	C757.449402,502.526428 757.241821,502.816498 757.034241,503.106567 
	C757.034241,503.106567 757.021545,503.027496 756.821045,503.131348 
	C756.423645,503.514923 756.226685,503.794647 756.029785,504.074371 
	C756.029785,504.074371 756.008118,504.007751 755.811707,504.128693 
	C755.419189,504.523346 755.223083,504.797089 755.026978,505.070801 
	C755.026978,505.070801 755.006653,505.002716 754.695251,505.051025 
	C753.957642,505.786987 753.531433,506.474609 753.105286,507.162262 
	C753.105286,507.162262 753.067078,507.062286 752.777100,507.165710 
	C747.740540,511.596161 747.147095,517.471802 747.065002,523.256714 
	C746.849976,538.419983 746.909607,553.589050 747.047363,568.754089 
	C747.077026,572.021973 746.056030,573.197693 742.767578,573.038208 
	C738.111938,572.812439 733.424438,572.768372 728.774780,573.048828 
	C725.092468,573.270874 723.863403,572.118347 723.906128,568.306885 
	C724.096924,551.309448 723.971680,534.308533 724.025208,517.309143 
	C724.030396,515.677856 724.293884,513.991638 724.761292,512.427734 
	C726.414062,506.897583 728.207458,501.409485 729.947510,495.905426 
	C729.947510,495.905426 729.986328,495.980713 730.299133,495.944946 
	C731.378174,494.556335 732.144409,493.203491 732.910583,491.850647 
	C732.910583,491.850647 732.933228,491.943176 733.247437,491.917114 
	C733.954407,491.156891 734.347107,490.422760 734.739807,489.688660 
	C734.739807,489.688660 734.845154,489.803955 735.120728,489.767609 
	C747.646973,478.512817 761.696838,472.120056 778.659668,474.038818 
	C784.518494,474.701508 790.311890,475.943268 796.135132,476.920532 
	C796.135132,476.920532 796.034729,476.940948 796.157043,477.226196 
	C798.906311,478.638214 801.533325,479.764923 804.160278,480.891663 
	C804.160278,480.891663 804.053711,480.933167 804.171387,481.160278 
	C804.852661,481.590515 805.416199,481.793640 805.979797,481.996765 
	C805.979797,481.996765 806.000793,481.993195 806.131287,482.223755 
	C806.552002,482.623901 806.842224,482.793518 807.132446,482.963135 
	C807.132446,482.963135 807.042358,482.946869 807.054321,483.259277 
	C808.816162,484.984131 810.566040,486.396545 812.315918,487.808960 
	C812.315918,487.808960 812.162903,487.870636 812.211426,488.142914 
	C814.236389,490.585266 816.212830,492.755371 818.189209,494.925476 
	C818.189209,494.925476 818.087158,494.933655 818.079346,495.215179 
	C818.434021,495.988495 818.796631,496.480316 819.159180,496.972107 
	C819.159180,496.972107 819.050659,496.965759 819.056519,497.241486 
	C819.434204,497.999969 819.806091,498.482758 820.177979,498.965515 
	C820.177979,498.965515 820.043335,498.970215 820.119568,499.152039 
	C820.444580,499.555298 820.693359,499.776764 820.942139,499.998199 
z"/>
<path fill="#FF6F21" opacity="1.000000" stroke="none" 
	d="
M844.966797,440.985779 
	C844.984619,440.812378 845.002441,440.638947 845.484131,440.117035 
	C846.295166,438.243591 846.914001,436.723572 846.941895,435.192810 
	C847.056824,428.892975 847.129272,422.585693 846.936340,416.289795 
	C846.838684,413.101379 847.804688,411.816986 851.141907,411.959229 
	C856.439148,412.184967 861.758057,412.162048 867.057922,411.971069 
	C870.127075,411.860474 871.115417,412.995087 871.045166,415.999939 
	C870.882568,422.961365 870.904114,429.931274 871.068726,436.892670 
	C871.101868,438.295654 872.098267,439.675903 872.650635,441.066650 
	C872.650635,441.066620 872.862976,440.961548 873.037109,441.447601 
	C877.212097,442.289490 881.208618,442.845062 885.215393,442.931488 
	C887.920837,442.989807 889.134949,443.751556 889.029724,446.627106 
	C888.866211,451.090912 888.846375,455.571259 889.037598,460.032898 
	C889.167297,463.059265 888.073120,464.045959 885.045959,464.069397 
	C881.033691,464.100433 877.025940,464.721191 873.016296,465.088470 
	C873.016296,465.088470 873.018066,465.004913 872.652466,465.110657 
	C871.855530,467.019165 871.052429,468.821106 871.048035,470.624908 
	C870.970947,502.586945 870.990967,534.549194 870.990051,566.511414 
	C870.989990,568.456909 870.990051,570.402405 870.990051,572.990173 
	C864.764099,572.990173 859.155273,572.992004 853.546448,572.989746 
	C846.994995,572.987061 846.991882,572.985474 846.991577,566.607849 
	C846.990173,534.479187 847.023987,502.350372 846.896606,470.222168 
	C846.889832,468.518311 845.525208,466.819794 844.792664,465.118805 
	C844.792664,465.118805 844.948425,465.022247 844.718872,464.762085 
	C840.359009,464.330750 836.226318,463.989929 832.099060,464.046448 
	C829.208130,464.086090 827.796082,463.347870 827.947754,460.141937 
	C828.159912,455.655060 828.123108,451.145966 827.955750,446.655243 
	C827.848022,443.764435 829.048584,442.856934 831.788635,442.965179 
	C835.613281,443.116302 839.452576,443.082581 843.275085,442.903839 
	C843.867615,442.876160 844.404297,441.655029 844.966797,440.985779 
z"/>
<path fill="#F7540B" opacity="1.000000" stroke="none" 
	d="
M844.872986,465.572998 
	C845.525208,466.819794 846.889832,468.518311 846.896606,470.222168 
	C847.023987,502.350372 846.990173,534.479187 846.991577,566.607849 
	C846.991882,572.985474 846.994995,572.987061 853.546448,572.989746 
	C859.155273,572.992004 864.764099,572.990173 870.990051,572.990173 
	C870.990051,570.402405 870.989990,568.456909 870.990051,566.511414 
	C870.990967,534.549194 870.970947,502.586945 871.048035,470.624908 
	C871.052429,468.821106 871.855530,467.019165 872.689331,465.130432 
	C872.866455,466.997467 872.448486,468.950073 872.444702,470.903442 
	C872.381287,503.397583 872.369751,535.891846 872.346924,568.386108 
	C872.345642,570.190979 872.346802,571.995850 872.346802,574.069824 
	C863.170166,574.069824 854.257996,574.069824 844.953308,574.069824 
	C844.953308,537.965515 844.953308,501.996368 844.872986,465.572998 
z"/>
<path fill="#5A26BC" opacity="1.000000" stroke="none" 
	d="
M404.544891,477.020203 
	C403.820190,480.105743 402.297211,479.126495 401.362701,477.141144 
	C400.773407,475.889130 401.016663,474.209686 401.015167,472.721893 
	C400.996338,454.074493 400.911865,435.426331 401.075958,416.780396 
	C401.108185,413.117218 400.157898,411.746460 396.333496,411.930359 
	C390.203491,412.225159 384.048950,412.009338 377.280151,412.009338 
	C377.173523,414.251587 377.004059,416.166565 377.003021,418.081604 
	C376.985870,449.715576 377.156738,481.350861 376.910828,512.982910 
	C376.805725,526.503662 376.812958,539.870178 382.927490,552.757690 
	C377.392853,545.835693 375.283661,537.239868 375.216583,528.464233 
	C374.920197,489.682343 375.056549,450.897156 375.053406,412.113159 
	C375.053345,411.654022 375.280487,411.194885 375.471771,410.469482 
	C384.404510,410.469482 393.320648,410.469482 402.903931,410.469482 
	C402.903931,412.065155 402.903717,413.652710 402.903961,415.240265 
	C402.906738,434.216217 402.881042,453.192291 402.964417,472.167908 
	C402.971436,473.764099 403.710999,475.357056 404.544891,477.020203 
z"/>
<path fill="#F7540B" opacity="1.000000" stroke="none" 
	d="
M505.885773,480.546692 
	C505.248383,479.353210 504.096832,477.694061 504.086273,476.027710 
	C503.960541,456.222443 503.891663,436.414917 504.095123,416.610962 
	C504.138367,412.400665 503.290833,410.541718 498.650970,410.921143 
	C493.525604,411.340332 488.336945,411.118317 483.181152,410.978790 
	C480.373413,410.902863 478.943146,411.526428 478.957489,414.795471 
	C479.063995,439.094910 478.958435,463.395325 479.101318,487.694397 
	C479.116302,490.238037 480.312378,492.774689 480.937103,495.723206 
	C479.888000,492.957794 478.007782,489.793091 477.972931,486.608215 
	C477.714539,462.987762 477.822937,439.363281 477.816223,415.740082 
	C477.815704,413.924957 477.816132,412.109833 477.816132,410.163910 
	C487.216095,410.163910 496.303955,410.163910 505.901703,410.163910 
	C505.901703,433.602692 505.901703,456.840210 505.885773,480.546692 
z"/>
<path fill="#F7540B" opacity="1.000000" stroke="none" 
	d="
M729.671204,496.108643 
	C728.207458,501.409485 726.414062,506.897583 724.761292,512.427734 
	C724.293884,513.991638 724.030396,515.677856 724.025208,517.309143 
	C723.971680,534.308533 724.096924,551.309448 723.906128,568.306885 
	C723.863403,572.118347 725.092468,573.270874 728.774780,573.048828 
	C733.424438,572.768372 738.111938,572.812439 742.767578,573.038208 
	C746.056030,573.197693 747.077026,572.021973 747.047363,568.754089 
	C746.909607,553.589050 746.849976,538.419983 747.065002,523.256714 
	C747.147095,517.471802 747.740540,511.596161 752.830566,507.163849 
	C748.499023,514.080688 748.370850,522.095703 748.315125,530.066223 
	C748.214111,544.529907 748.286499,558.994812 748.286499,573.749390 
	C739.468689,573.749390 730.946472,573.749390 722.928894,573.749390 
	C722.928894,553.508850 722.457275,533.432739 723.225464,513.404114 
	C723.446655,507.636322 727.239563,502.005493 729.671204,496.108643 
z"/>
<path fill="#F7540B" opacity="1.000000" stroke="none" 
	d="
M630.098877,539.564331 
	C625.989990,537.104309 626.118164,532.553406 626.066345,528.388672 
	C625.873901,512.923828 625.984619,497.455292 625.981567,481.988129 
	C625.981262,480.210510 625.981506,478.432892 625.981506,476.035217 
	C618.437317,476.035217 611.500671,475.914856 604.579102,476.183105 
	C603.684509,476.217804 602.134766,478.256348 602.124695,479.377747 
	C601.968994,496.672913 601.338806,514.009216 602.335693,531.248230 
	C602.767456,538.715210 606.651855,545.982483 608.946533,553.723877 
	C604.071289,547.922791 601.326538,540.666809 601.143066,533.052490 
	C600.679321,513.805054 600.989319,494.539001 600.989319,475.006958 
	C609.415100,475.006958 617.981812,475.006958 627.076477,475.006958 
	C627.076477,483.072388 626.982422,491.155853 627.099609,499.236206 
	C627.256042,510.019226 627.450439,520.805359 627.918884,531.577515 
	C628.030212,534.135986 629.295959,536.644226 630.098877,539.564331 
z"/>
<path fill="#F7540B" opacity="1.000000" stroke="none" 
	d="
M481.917053,498.419495 
	C482.932281,499.618439 484.364716,501.057861 485.020996,502.791168 
	C491.544006,520.019348 490.077850,536.683289 482.605682,553.484558 
	C480.344116,558.569702 481.402069,565.167786 481.211487,571.081604 
	C481.192169,571.681396 483.039490,572.857178 484.047821,572.888550 
	C489.702240,573.064331 495.372406,573.117920 501.018402,572.836609 
	C502.059113,572.784729 503.307739,571.156189 503.913910,569.974976 
	C504.388092,569.050903 503.998322,567.692383 504.023499,566.527527 
	C504.343201,551.751587 504.481506,536.967529 505.132874,522.206177 
	C505.282990,518.803589 507.196381,515.478821 508.666321,512.068359 
	C508.031769,518.697083 506.381531,525.354431 506.162109,532.058655 
	C505.711395,545.830872 506.026672,559.628235 506.026672,573.723022 
	C497.083374,573.723022 488.387512,573.723022 479.372101,573.723022 
	C479.463562,565.007874 478.716370,556.831909 482.709900,548.404236 
	C490.443573,532.083679 489.237427,515.234192 481.917053,498.419495 
z"/>
<path fill="#5A26BC" opacity="1.000000" stroke="none" 
	d="
M248.975922,504.512634 
	C248.599457,503.077789 248.018982,501.179779 248.014908,499.280518 
	C247.957214,472.324921 247.977615,445.369202 247.979126,418.413483 
	C247.979233,416.595123 247.979141,414.776794 247.979141,412.494324 
	C237.665222,412.494324 227.665863,412.494324 217.022400,412.494324 
	C217.022400,414.431091 217.022186,416.207794 217.022430,417.984528 
	C217.026642,447.436127 217.197861,476.889557 216.876495,506.337585 
	C216.820663,511.452087 214.683609,516.543823 213.173584,521.807800 
	C213.895721,512.127441 215.698196,502.297821 215.863052,492.440826 
	C216.288879,466.976837 215.991608,441.500793 215.983246,416.029541 
	C215.982712,414.400696 215.983185,412.771851 215.983185,411.035156 
	C227.295334,411.035156 238.189926,411.035156 249.039932,411.035156 
	C249.039932,442.201599 249.039932,473.125275 248.975922,504.512634 
z"/>
<path fill="#F7540B" opacity="1.000000" stroke="none" 
	d="
M796.887512,509.441925 
	C802.168701,512.948059 801.695984,519.028259 801.853455,524.398315 
	C802.273315,538.711548 802.215637,553.049988 801.882019,567.367615 
	C801.769775,572.181763 803.414551,573.393799 807.837280,573.057556 
	C812.309021,572.717712 816.830811,572.862610 821.322632,573.021484 
	C824.169434,573.122131 825.072815,571.998657 825.058105,569.222961 
	C824.966187,551.899719 825.200439,534.571716 824.857544,517.254639 
	C824.767639,512.713928 823.017029,508.206085 822.056213,503.271759 
	C823.688232,508.319885 826.497803,513.740234 826.677002,519.246094 
	C827.265198,537.314148 826.898132,555.413330 826.898132,574.018799 
	C818.429871,574.018799 810.174927,574.018799 801.470764,573.467163 
	C801.030396,557.875000 801.062195,542.834412 801.014099,527.794006 
	C801.009033,526.204651 800.534851,524.616699 800.278259,523.028137 
	C799.172363,518.625427 798.066467,514.222778 796.887512,509.441925 
z"/>
<path fill="#F7540B" opacity="1.000000" stroke="none" 
	d="
M700.316040,548.395874 
	C701.364380,543.126831 703.077087,537.758728 703.915344,532.257263 
	C704.735352,526.876099 704.873474,521.361572 704.939941,515.901062 
	C705.082031,504.237579 704.805054,492.566895 705.081604,480.908203 
	C705.179077,476.799408 703.762329,475.717041 699.929626,475.943024 
	C695.113586,476.226990 690.257751,476.204865 685.438904,475.946106 
	C681.891357,475.755615 680.878784,477.063477 680.919922,480.517914 
	C681.082825,494.180939 681.256042,507.855072 680.853577,521.508179 
	C680.690247,527.052246 679.103027,532.560547 678.053589,538.064209 
	C677.925354,538.736938 677.112366,539.279175 676.243530,539.907593 
	C676.907898,534.293091 678.694336,528.672241 678.840149,523.009094 
	C679.249634,507.103943 678.982971,491.181427 678.982971,475.035767 
	C688.128845,475.035767 696.845215,475.035767 706.057129,475.035767 
	C706.057129,487.659973 706.089111,500.247528 706.043884,512.834778 
	C706.020630,519.312500 706.491882,525.881409 705.568787,532.239075 
	C704.776184,537.697693 702.318909,542.914612 700.316040,548.395874 
z"/>
<path fill="#F7540B" opacity="1.000000" stroke="none" 
	d="
M560.455566,573.906189 
	C559.996338,556.219360 559.996338,538.639771 559.996338,521.060242 
	C560.332703,521.060120 560.669067,521.059998 561.005432,521.059875 
	C561.005432,535.182190 561.005310,549.304443 561.005554,563.426697 
	C561.005737,572.987793 561.005920,572.987793 570.393311,572.984009 
	C574.059265,572.982544 577.727722,572.897766 581.390320,573.008423 
	C583.849915,573.082764 585.064026,572.332764 585.005737,569.622620 
	C584.609009,551.169006 584.655640,532.696411 583.757324,514.268982 
	C583.483704,508.654541 580.689026,503.162933 579.091064,497.216614 
	C584.216980,503.760559 585.597961,511.997955 585.831848,520.120605 
	C586.343445,537.887695 585.990173,555.679749 585.990173,574.013489 
	C577.440430,574.013489 569.177612,574.013489 560.455566,573.906189 
z"/>
<path fill="#F7540B" opacity="1.000000" stroke="none" 
	d="
M872.521729,440.607910 
	C872.098267,439.675903 871.101868,438.295654 871.068726,436.892670 
	C870.904114,429.931274 870.882568,422.961365 871.045166,415.999939 
	C871.115417,412.995087 870.127075,411.860474 867.057922,411.971069 
	C861.758057,412.162048 856.439148,412.184967 851.141907,411.959229 
	C847.804688,411.816986 846.838684,413.101379 846.936340,416.289795 
	C847.129272,422.585693 847.056824,428.892975 846.941895,435.192810 
	C846.914001,436.723572 846.295166,438.243591 845.565918,439.868652 
	C845.183838,430.499329 845.183838,421.029938 845.183838,411.247742 
	C854.187683,411.247742 863.090698,411.247742 872.392883,411.247742 
	C872.392883,420.877258 872.392883,430.513214 872.521729,440.607910 
z"/>
<path fill="#F7540B" opacity="1.000000" stroke="none" 
	d="
M795.963135,476.602600 
	C790.311890,475.943268 784.518494,474.701508 778.659668,474.038818 
	C761.696838,472.120056 747.646973,478.512817 735.044556,489.784668 
	C740.490601,482.154022 748.321716,477.462463 757.355042,474.641968 
	C770.345337,470.585968 783.187134,470.872131 795.963135,476.602600 
z"/>
<path fill="#F7540B" opacity="1.000000" stroke="none" 
	d="
M873.421021,465.129456 
	C877.025940,464.721191 881.033691,464.100433 885.045959,464.069397 
	C888.073120,464.045959 889.167297,463.059265 889.037598,460.032898 
	C888.846375,455.571259 888.866211,451.090912 889.029724,446.627106 
	C889.134949,443.751556 887.920837,442.989807 885.215393,442.931488 
	C881.208618,442.845062 877.212097,442.289490 873.084106,441.556335 
	C878.580017,441.179016 884.203003,441.179016 890.051025,441.179016 
	C890.051025,449.154480 890.051025,456.903900 890.051025,465.170410 
	C884.661682,465.170410 879.243713,465.170410 873.421021,465.129456 
z"/>
<path fill="#F7540B" opacity="1.000000" stroke="none" 
	d="
M622.096924,567.353149 
	C623.339111,567.403259 624.884766,567.502136 626.173462,568.129211 
	C643.017395,576.324890 659.964172,576.354858 677.062317,568.989319 
	C678.105652,568.539795 679.261230,568.351013 680.759766,568.072632 
	C661.444946,578.953064 641.819763,578.872986 622.096924,567.353149 
z"/>
<path fill="#5A26BC" opacity="1.000000" stroke="none" 
	d="
M198.605377,540.997803 
	C195.436813,546.974426 188.910828,548.345215 183.090225,549.798462 
	C173.842285,552.107422 164.260422,553.079102 153.411743,554.845703 
	C154.130005,561.773682 154.879532,569.003174 155.798584,576.574219 
	C153.534348,577.511292 152.848083,576.509705 152.894119,574.102112 
	C153.030106,566.990845 152.942703,559.875366 152.942703,552.272278 
	C168.866760,551.653931 184.699402,550.765808 198.605377,540.997803 
z"/>
<path fill="#5A26BC" opacity="1.000000" stroke="none" 
	d="
M273.647156,489.060547 
	C273.710358,489.665131 273.673645,490.580292 273.221558,491.184845 
	C259.393829,509.674194 257.121429,529.259949 267.509705,550.091064 
	C267.723236,550.519226 267.750519,551.040283 267.766785,551.894043 
	C258.431885,538.397156 257.587585,523.314087 262.712128,508.089203 
	C264.974060,501.368988 269.729950,495.488220 273.647156,489.060547 
z"/>
<path fill="#F7540B" opacity="1.000000" stroke="none" 
	d="
M844.506226,441.063965 
	C844.404297,441.655029 843.867615,442.876160 843.275085,442.903839 
	C839.452576,443.082581 835.613281,443.116302 831.788635,442.965179 
	C829.048584,442.856934 827.848022,443.764435 827.955750,446.655243 
	C828.123108,451.145966 828.159912,455.655060 827.947754,460.141937 
	C827.796082,463.347870 829.208130,464.086090 832.099060,464.046448 
	C836.226318,463.989929 840.359009,464.330750 844.737305,464.851868 
	C838.881470,465.201813 832.777710,465.201813 826.382324,465.201813 
	C826.382324,457.229401 826.382324,449.549988 826.382324,441.142120 
	C832.249634,441.142120 838.147644,441.142120 844.506226,441.063965 
z"/>
<path fill="#5A26BC" opacity="1.000000" stroke="none" 
	d="
M345.945984,484.637878 
	C343.642548,483.679291 341.094910,482.556366 338.712189,481.153381 
	C324.383209,472.715973 309.387787,471.968872 293.841431,477.083588 
	C291.813293,477.750854 289.759338,478.339691 287.321899,478.963074 
	C307.681305,468.317291 327.250702,470.633728 345.945984,484.637878 
z"/>
<path fill="#F7540B" opacity="1.000000" stroke="none" 
	d="
M563.935425,480.635376 
	C562.694580,480.591248 561.140076,480.515228 559.862000,479.881714 
	C543.989502,472.014862 528.083069,471.660767 512.066528,479.412506 
	C511.348541,479.760010 510.476288,479.788849 509.287170,479.955078 
	C527.263184,469.010651 545.538635,470.306366 563.935425,480.635376 
z"/>
<path fill="#5A26BC" opacity="1.000000" stroke="none" 
	d="
M357.376495,551.933838 
	C358.429382,548.091125 359.913666,544.099243 361.086212,540.017883 
	C364.276306,528.913879 363.961670,517.892883 360.013428,506.992310 
	C359.518707,505.626495 359.346741,504.143799 359.044739,502.307922 
	C367.757355,518.772034 366.535553,535.365173 357.376495,551.933838 
z"/>
<path fill="#5A26BC" opacity="1.000000" stroke="none" 
	d="
M288.141907,571.319336 
	C293.701294,572.386963 299.491760,573.715820 305.280243,575.053345 
	C315.671997,577.454468 325.308685,574.844604 334.727600,570.673279 
	C336.224060,570.010559 337.819702,569.571838 339.759674,569.069275 
	C323.348938,579.520691 306.058777,579.699158 288.141907,571.319336 
z"/>
<path fill="#5A26BC" opacity="1.000000" stroke="none" 
	d="
M457.908844,482.660492 
	C453.950623,480.985443 449.929443,478.688965 445.640228,477.130066 
	C434.092621,472.933136 422.354706,471.262787 410.400879,475.712372 
	C409.513184,476.042816 408.444794,475.887695 407.097107,475.957458 
	C417.335114,470.499664 428.532654,470.591705 439.502838,473.752930 
	C445.875519,475.589294 451.669342,479.434265 457.908844,482.660492 
z"/>
<path fill="#5A26BC" opacity="1.000000" stroke="none" 
	d="
M473.324036,547.851929 
	C473.998322,544.251526 475.602203,540.443237 475.751556,536.578796 
	C476.068115,528.388428 475.647461,520.168274 475.477692,511.961395 
	C475.443726,510.319122 475.180725,508.681641 474.987915,506.627533 
	C480.766602,520.220459 479.305084,533.989197 473.324036,547.851929 
z"/>
<path fill="#5A26BC" opacity="1.000000" stroke="none" 
	d="
M413.467957,575.194702 
	C416.963776,574.945740 420.764404,575.395569 424.447510,574.925293 
	C432.752533,573.864746 440.999420,572.348938 449.681396,571.035645 
	C438.521179,577.073425 426.386292,578.462158 413.467957,575.194702 
z"/>
<path fill="#F7540B" opacity="1.000000" stroke="none" 
	d="
M670.567871,545.964172 
	C668.661377,551.094971 663.528931,551.593567 659.027954,552.355652 
	C650.943787,553.724426 642.793762,554.077393 636.153687,547.187622 
	C647.585449,553.202515 658.990906,553.292847 670.567871,545.964172 
z"/>
<path fill="#F7540B" opacity="1.000000" stroke="none" 
	d="
M520.434082,500.093536 
	C522.411194,498.929810 524.667175,496.969849 527.164307,496.588501 
	C535.772522,495.273865 544.299500,495.170807 550.914917,502.763672 
	C541.488953,496.288330 531.430359,495.490509 520.434082,500.093536 
z"/>
<path fill="#5A26BC" opacity="1.000000" stroke="none" 
	d="
M235.403397,545.977173 
	C235.082336,545.652649 234.886215,545.086365 235.056168,544.669373 
	C238.767303,535.564514 242.519165,526.476135 246.577606,517.205444 
	C245.758377,527.629456 241.439194,536.993591 235.403397,545.977173 
z"/>
<path fill="#FF6F21" opacity="1.000000" stroke="none" 
	d="
M800.196167,523.488037 
	C800.534851,524.616699 801.009033,526.204651 801.014099,527.794006 
	C801.062195,542.834412 801.030396,557.875000 801.010620,573.372437 
	C800.718323,572.323425 800.199707,570.818665 800.192322,569.311462 
	C800.118164,554.190552 800.127991,539.069214 800.196167,523.488037 
z"/>
<path fill="#F7540B" opacity="1.000000" stroke="none" 
	d="
M764.390625,498.837585 
	C764.449280,498.273315 764.799744,497.244354 765.362854,497.110596 
	C772.252625,495.474152 779.121277,494.742889 785.823486,498.776245 
	C778.939636,496.805786 771.892395,495.828033 764.390625,498.837585 
z"/>
<path fill="#5A26BC" opacity="1.000000" stroke="none" 
	d="
M450.400726,571.039673 
	C451.252686,569.942261 452.347961,568.643616 453.675049,567.656677 
	C457.177704,565.051636 460.780823,562.581665 464.697632,560.042725 
	C460.284149,563.678528 455.516937,567.329529 450.400726,571.039673 
z"/>
<path fill="#5A26BC" opacity="1.000000" stroke="none" 
	d="
M160.496613,576.970093 
	C166.603058,576.655396 173.173096,576.393188 180.104340,576.033997 
	C173.963776,576.298828 167.461990,576.660645 160.496613,576.970093 
z"/>
<path fill="#5A26BC" opacity="1.000000" stroke="none" 
	d="
M218.366196,562.969482 
	C221.210602,560.134033 224.379852,557.192627 227.896881,554.194519 
	C225.060104,557.046387 221.875580,559.954895 218.366196,562.969482 
z"/>
<path fill="#F7540B" opacity="1.000000" stroke="none" 
	d="
M687.414551,564.033936 
	C689.859253,561.123657 692.622864,558.105530 695.729736,555.065979 
	C693.293091,558.005005 690.513245,560.965576 687.414551,564.033936 
z"/>
<path fill="#5A26BC" opacity="1.000000" stroke="none" 
	d="
M272.821808,559.487183 
	C276.090576,561.932678 279.431732,564.711304 282.859131,567.826904 
	C279.595001,565.382690 276.244629,562.601440 272.821808,559.487183 
z"/>
<path fill="#5A26BC" opacity="1.000000" stroke="none" 
	d="
M359.088501,501.599792 
	C356.844879,498.784271 354.558167,495.610901 352.252869,492.076782 
	C354.504700,494.891296 356.775085,498.066589 359.088501,501.599792 
z"/>
<path fill="#F7540B" opacity="1.000000" stroke="none" 
	d="
M575.038513,490.581665 
	C572.809204,488.770966 570.457153,486.648376 568.105591,484.174255 
	C570.375977,485.971741 572.645874,488.120758 575.038513,490.581665 
z"/>
<path fill="#5A26BC" opacity="1.000000" stroke="none" 
	d="
M212.648987,522.104248 
	C211.127441,525.510254 209.334015,529.133972 207.202820,532.858032 
	C208.702408,529.412964 210.539764,525.867493 212.648987,522.104248 
z"/>
<path fill="#F7540B" opacity="1.000000" stroke="none" 
	d="
M803.983887,480.592651 
	C801.533325,479.764923 798.906311,478.638214 796.159912,477.175079 
	C798.629517,477.990326 801.218506,479.141968 803.983887,480.592651 
z"/>
<path fill="#F7540B" opacity="1.000000" stroke="none" 
	d="
M818.102661,494.588379 
	C816.212830,492.755371 814.236389,490.585266 812.219360,488.060791 
	C814.124451,489.888031 816.070312,492.069672 818.102661,494.588379 
z"/>
<path fill="#5A26BC" opacity="1.000000" stroke="none" 
	d="
M468.392639,555.981201 
	C469.544708,553.515503 470.990906,550.877869 472.767883,548.135864 
	C471.628052,550.624084 470.157410,553.216736 468.392639,555.981201 
z"/>
<path fill="#5A26BC" opacity="1.000000" stroke="none" 
	d="
M464.185181,488.523071 
	C462.194275,487.102509 460.122101,485.354980 458.053894,483.255310 
	C460.073212,484.667511 462.088593,486.431824 464.185181,488.523071 
z"/>
<path fill="#F7540B" opacity="1.000000" stroke="none" 
	d="
M812.232422,487.484680 
	C810.566040,486.396545 808.816162,484.984131 807.073914,483.217957 
	C808.770691,484.296234 810.459778,485.728302 812.232422,487.484680 
z"/>
<path fill="#5A26BC" opacity="1.000000" stroke="none" 
	d="
M205.297012,534.790894 
	C204.206772,536.362427 202.822006,538.047974 201.084290,539.771179 
	C202.155045,538.174194 203.578766,536.539551 205.297012,534.790894 
z"/>
<path fill="#F7540B" opacity="1.000000" stroke="none" 
	d="
M681.397583,568.104736 
	C682.844482,566.813293 684.627869,565.446350 686.770386,564.084839 
	C685.330994,565.403259 683.532532,566.716309 681.397583,568.104736 
z"/>
<path fill="#F7540B" opacity="1.000000" stroke="none" 
	d="
M579.155701,496.575439 
	C577.841736,495.133514 576.459534,493.351898 575.089294,491.208618 
	C576.429993,492.643188 577.758728,494.439453 579.155701,496.575439 
z"/>
<path fill="#5A26BC" opacity="1.000000" stroke="none" 
	d="
M286.640106,478.987946 
	C285.175171,480.265015 283.373779,481.599274 281.211487,482.917053 
	C282.668243,481.615417 284.485931,480.330292 286.640106,478.987946 
z"/>
<path fill="#5A26BC" opacity="1.000000" stroke="none" 
	d="
M353.338501,557.644531 
	C354.178406,555.880249 355.332336,554.050659 356.816345,552.135864 
	C355.981842,553.893616 354.817169,555.736450 353.338501,557.644531 
z"/>
<path fill="#5A26BC" opacity="1.000000" stroke="none" 
	d="
M213.373138,565.834473 
	C214.478378,564.884521 215.913071,563.950867 217.712692,563.031006 
	C216.619278,563.980164 215.160934,564.915466 213.373138,565.834473 
z"/>
<path fill="#5A26BC" opacity="1.000000" stroke="none" 
	d="
M228.466537,554.178711 
	C229.254257,552.858093 230.364990,551.466919 231.822510,550.089966 
	C231.042709,551.438904 229.916122,552.773499 228.466537,554.178711 
z"/>
<path fill="#5A26BC" opacity="1.000000" stroke="none" 
	d="
M267.692322,552.561279 
	C268.755859,553.622131 269.848389,555.016724 270.927460,556.771790 
	C269.849762,555.719788 268.785522,554.307434 267.692322,552.561279 
z"/>
<path fill="#F7540B" opacity="1.000000" stroke="none" 
	d="
M632.989502,543.645020 
	C632.082092,542.836304 631.061462,541.725464 630.065918,540.233948 
	C631.019470,541.016479 631.947876,542.179626 632.989502,543.645020 
z"/>
<path fill="#F7540B" opacity="1.000000" stroke="none" 
	d="
M509.260468,511.817810 
	C509.815979,510.398193 510.609650,508.755249 511.766113,507.097839 
	C511.252167,508.587097 510.375397,510.090790 509.260468,511.817810 
z"/>
<path fill="#5A26BC" opacity="1.000000" stroke="none" 
	d="
M232.390015,550.006104 
	C232.885117,548.800415 233.668274,547.443909 234.811646,546.096802 
	C234.340591,547.355835 233.509338,548.605591 232.390015,550.006104 
z"/>
<path fill="#F7540B" opacity="1.000000" stroke="none" 
	d="
M732.621338,492.000641 
	C732.144409,493.203491 731.378174,494.556335 730.259155,495.930847 
	C730.714966,494.685242 731.523499,493.417938 732.621338,492.000641 
z"/>
<path fill="#5A26BC" opacity="1.000000" stroke="none" 
	d="
M470.007874,495.635162 
	C469.081116,494.832947 468.075714,493.717041 467.076599,492.237915 
	C468.031708,493.023621 468.980499,494.172546 470.007874,495.635162 
z"/>
<path fill="#5A26BC" opacity="1.000000" stroke="none" 
	d="
M465.302734,559.889038 
	C465.836121,558.726990 466.644531,557.401001 467.809906,556.087769 
	C467.303864,557.308655 466.440826,558.516846 465.302734,559.889038 
z"/>
<path fill="#F7540B" opacity="1.000000" stroke="none" 
	d="
M553.968018,506.391876 
	C554.869324,507.226501 555.872803,508.369385 556.811768,509.884949 
	C555.854919,509.071777 554.962646,507.885956 553.968018,506.391876 
z"/>
<path fill="#5A26BC" opacity="1.000000" stroke="none" 
	d="
M283.037933,568.374512 
	C284.490692,568.873962 286.121704,569.657776 287.860718,570.773071 
	C286.384491,570.289368 284.800323,569.474121 283.037933,568.374512 
z"/>
<path fill="#F7540B" opacity="1.000000" stroke="none" 
	d="
M618.037598,564.357056 
	C619.229614,564.842590 620.569458,565.616150 621.926025,566.741089 
	C620.690308,566.276672 619.437927,565.460876 618.037598,564.357056 
z"/>
<path fill="#5A26BC" opacity="1.000000" stroke="none" 
	d="
M342.341370,567.989380 
	C343.037933,567.085205 344.035950,566.100830 345.362366,565.075317 
	C344.674774,565.992432 343.658813,566.950867 342.341370,567.989380 
z"/>
<path fill="#5A26BC" opacity="1.000000" stroke="none" 
	d="
M280.621765,482.913818 
	C279.824677,483.867401 278.712311,484.905365 277.254059,485.943787 
	C278.040985,484.962219 279.173737,483.980225 280.621765,482.913818 
z"/>
<path fill="#F7540B" opacity="1.000000" stroke="none" 
	d="
M566.940491,482.669342 
	C566.103760,482.493317 565.105469,482.047089 564.087524,481.236572 
	C564.971558,481.381226 565.875305,481.890167 566.940491,482.669342 
z"/>
<path fill="#F7540B" opacity="1.000000" stroke="none" 
	d="
M675.653198,540.032593 
	C675.466736,540.876465 675.007812,541.877197 674.176758,542.880981 
	C674.330017,541.985779 674.855347,541.087585 675.653198,540.032593 
z"/>
<path fill="#5A26BC" opacity="1.000000" stroke="none" 
	d="
M382.874725,553.429993 
	C383.529388,553.884277 384.247559,554.650330 384.911377,555.795349 
	C384.217407,555.363464 383.577820,554.552612 382.874725,553.429993 
z"/>
<path fill="#F7540B" opacity="1.000000" stroke="none" 
	d="
M516.365234,503.024597 
	C516.820984,502.424164 517.571411,501.733032 518.687500,501.042053 
	C518.255493,501.672760 517.457703,502.303345 516.365234,503.024597 
z"/>
<path fill="#F7540B" opacity="1.000000" stroke="none" 
	d="
M551.016541,503.358124 
	C551.895874,503.853302 552.906555,504.632446 553.917358,505.770691 
	C552.994324,505.300568 552.071045,504.471313 551.016541,503.358124 
z"/>
<path fill="#5A26BC" opacity="1.000000" stroke="none" 
	d="
M350.043915,488.599976 
	C349.128052,488.118805 348.094574,487.344635 347.081238,486.206879 
	C348.043030,486.664520 348.984650,487.485748 350.043915,488.599976 
z"/>
<path fill="#5A26BC" opacity="1.000000" stroke="none" 
	d="
M472.344238,500.767639 
	C471.959869,500.213715 471.493439,499.364838 471.063721,498.187744 
	C471.487701,498.730591 471.874939,499.601624 472.344238,500.767639 
z"/>
<path fill="#5A26BC" opacity="1.000000" stroke="none" 
	d="
M276.653076,486.027100 
	C276.164825,486.918854 275.386597,487.930908 274.251099,488.941406 
	C274.716919,488.009033 275.540039,487.078217 276.653076,486.027100 
z"/>
<path fill="#5A26BC" opacity="1.000000" stroke="none" 
	d="
M384.872009,556.436584 
	C385.517029,556.775330 386.242035,557.401733 386.972260,558.372559 
	C386.302307,558.052734 385.627136,557.388489 384.872009,556.436584 
z"/>
<path fill="#F7540B" opacity="1.000000" stroke="none" 
	d="
M734.463745,489.811218 
	C734.347107,490.422760 733.954407,491.156891 733.202393,491.901764 
	C733.291199,491.252960 733.739441,490.593384 734.463745,489.811218 
z"/>
<path fill="#F7540B" opacity="1.000000" stroke="none" 
	d="
M696.294922,554.916321 
	C696.405945,554.229370 696.765137,553.384277 697.340698,552.350952 
	C697.219116,553.027893 696.881104,553.893066 696.294922,554.916321 
z"/>
<path fill="#F7540B" opacity="1.000000" stroke="none" 
	d="
M608.954468,554.366211 
	C609.523987,554.598267 610.165222,555.122009 610.707275,556.001343 
	C610.080750,555.790649 609.553528,555.224304 608.954468,554.366211 
z"/>
<path fill="#F7540B" opacity="1.000000" stroke="none" 
	d="
M794.899902,506.370361 
	C795.515503,506.862793 796.216858,507.663574 796.905396,508.811829 
	C796.256958,508.332428 795.621338,507.505585 794.899902,506.370361 
z"/>
<path fill="#F7540B" opacity="1.000000" stroke="none" 
	d="
M788.028809,500.359589 
	C788.830444,500.566681 789.785583,501.052216 790.833069,501.871063 
	C790.010986,501.682251 789.096680,501.160126 788.028809,500.359589 
z"/>
<path fill="#5A26BC" opacity="1.000000" stroke="none" 
	d="
M270.949799,557.375244 
	C271.527161,557.579468 272.198334,558.070557 272.806671,558.919861 
	C272.177094,558.739441 271.610352,558.200806 270.949799,557.375244 
z"/>
<path fill="#F7540B" opacity="1.000000" stroke="none" 
	d="
M508.664459,479.965820 
	C508.443512,480.456787 507.939270,481.014465 507.245178,481.362427 
	C507.497284,480.779327 507.939240,480.405914 508.664459,479.965820 
z"/>
<path fill="#F7540B" opacity="1.000000" stroke="none" 
	d="
M612.915161,559.410889 
	C613.501953,559.581970 614.195740,560.036194 614.876343,560.846558 
	C614.249451,560.699829 613.635864,560.196960 612.915161,559.410889 
z"/>
<path fill="#F7540B" opacity="1.000000" stroke="none" 
	d="
M614.903687,561.422302 
	C615.495300,561.582275 616.193665,562.026001 616.886047,562.824829 
	C616.256897,562.688660 615.633667,562.197327 614.903687,561.422302 
z"/>
<path fill="#F7540B" opacity="1.000000" stroke="none" 
	d="
M513.330566,505.970764 
	C513.508484,505.425537 513.956116,504.761719 514.739868,504.074310 
	C514.583984,504.651215 514.092102,505.251678 513.330566,505.970764 
z"/>
<path fill="#5A26BC" opacity="1.000000" stroke="none" 
	d="
M466.113342,490.605499 
	C465.547119,490.404938 464.888611,489.903076 464.191101,489.072113 
	C464.775116,489.263428 465.398102,489.783813 466.113342,490.605499 
z"/>
<path fill="#F7540B" opacity="1.000000" stroke="none" 
	d="
M753.374512,507.036499 
	C753.531433,506.474609 753.957642,505.786987 754.723755,505.072144 
	C754.590454,505.666870 754.117126,506.288818 753.374512,507.036499 
z"/>
<path fill="#5A26BC" opacity="1.000000" stroke="none" 
	d="
M340.343262,569.122925 
	C340.508881,568.809082 340.970062,568.443420 341.752380,568.058472 
	C341.595276,568.383240 341.117065,568.727112 340.343262,569.122925 
z"/>
<path fill="#5A26BC" opacity="1.000000" stroke="none" 
	d="
M471.111145,497.661499 
	C470.797424,497.493073 470.434631,497.026672 470.059631,496.238586 
	C470.385620,496.399078 470.723846,496.881317 471.111145,497.661499 
z"/>
<path fill="#F7540B" opacity="1.000000" stroke="none" 
	d="
M610.635315,556.546631 
	C611.035950,556.645752 611.479858,557.047363 611.921204,557.786499 
	C611.505310,557.698975 611.091919,557.274109 610.635315,556.546631 
z"/>
<path fill="#F7540B" opacity="1.000000" stroke="none" 
	d="
M480.890778,496.343262 
	C481.206604,496.513885 481.564026,496.992798 481.923187,497.795532 
	C481.594086,497.630127 481.263214,497.140869 480.890778,496.343262 
z"/>
<path fill="#F7540B" opacity="1.000000" stroke="none" 
	d="
M805.804077,481.762695 
	C805.416199,481.793640 804.852661,481.590515 804.166748,481.103302 
	C804.572449,481.055664 805.100403,481.292145 805.804077,481.762695 
z"/>
<path fill="#F7540B" opacity="1.000000" stroke="none" 
	d="
M819.096436,496.658875 
	C818.796631,496.480316 818.434021,495.988495 818.096313,495.166931 
	C818.425354,495.339966 818.729492,495.842804 819.096436,496.658875 
z"/>
<path fill="#F7540B" opacity="1.000000" stroke="none" 
	d="
M759.457336,501.287384 
	C759.620117,500.910431 760.109497,500.495087 760.951782,500.082458 
	C760.797729,500.473114 760.290833,500.861023 759.457336,501.287384 
z"/>
<path fill="#F7540B" opacity="1.000000" stroke="none" 
	d="
M786.059937,499.319458 
	C786.480713,499.235870 787.079163,499.402588 787.824219,499.853699 
	C787.393066,499.948639 786.815369,499.759216 786.059937,499.319458 
z"/>
<path fill="#F7540B" opacity="1.000000" stroke="none" 
	d="
M822.100586,502.648376 
	C821.795105,502.460358 821.429321,501.945435 821.066406,501.091553 
	C821.392883,501.275574 821.716553,501.798553 822.100586,502.648376 
z"/>
<path fill="#F7540B" opacity="1.000000" stroke="none" 
	d="
M556.674805,510.520111 
	C556.950989,510.680176 557.277771,511.141815 557.393188,511.780762 
	C557.029724,511.579285 556.877625,511.200500 556.674805,510.520111 
z"/>
<path fill="#5A26BC" opacity="1.000000" stroke="none" 
	d="
M200.500839,539.682922 
	C200.388138,540.090881 199.969269,540.512268 199.216400,540.934021 
	C199.319839,540.521729 199.757263,540.109009 200.500839,539.682922 
z"/>
<path fill="#F7540B" opacity="1.000000" stroke="none" 
	d="
M820.118408,498.648071 
	C819.806091,498.482758 819.434204,497.999969 819.071289,497.189148 
	C819.406494,497.350952 819.732666,497.840790 820.118408,498.648071 
z"/>
<path fill="#5A26BC" opacity="1.000000" stroke="none" 
	d="
M206.644180,533.022583 
	C206.719070,533.473938 206.520050,534.073181 205.990326,534.731812 
	C205.896515,534.250916 206.133408,533.710693 206.644180,533.022583 
z"/>
<path fill="#5A26BC" opacity="1.000000" stroke="none" 
	d="
M352.370789,491.436584 
	C351.938782,491.345062 351.502991,490.949677 351.069885,490.218842 
	C351.504059,490.299835 351.935516,490.716278 352.370789,491.436584 
z"/>
<path fill="#F7540B" opacity="1.000000" stroke="none" 
	d="
M755.265991,504.969879 
	C755.223083,504.797089 755.419189,504.523346 755.845703,504.137054 
	C755.885681,504.305969 755.695312,504.587463 755.265991,504.969879 
z"/>
<path fill="#F7540B" opacity="1.000000" stroke="none" 
	d="
M820.953857,499.719147 
	C820.693359,499.776764 820.444580,499.555298 820.127319,499.085083 
	C820.361084,499.037598 820.663330,499.238831 820.953857,499.719147 
z"/>
<path fill="#5A26BC" opacity="1.000000" stroke="none" 
	d="
M351.038940,489.698181 
	C350.822113,489.766327 350.523712,489.570374 350.137207,489.113312 
	C350.351807,489.046143 350.654572,489.240112 351.038940,489.698181 
z"/>
<path fill="#F7540B" opacity="1.000000" stroke="none" 
	d="
M791.968018,503.292542 
	C792.164917,503.230682 792.460327,503.423431 792.863770,503.863251 
	C792.670044,503.922577 792.368286,503.734863 791.968018,503.292542 
z"/>
<path fill="#F7540B" opacity="1.000000" stroke="none" 
	d="
M616.920166,563.329956 
	C617.138611,563.246826 617.447876,563.426941 617.860718,563.861572 
	C617.646545,563.941772 617.328735,563.767456 616.920166,563.329956 
z"/>
<path fill="#F7540B" opacity="1.000000" stroke="none" 
	d="
M756.282715,503.989807 
	C756.226685,503.794647 756.423645,503.514923 756.861084,503.131714 
	C756.912964,503.320557 756.724365,503.612915 756.282715,503.989807 
z"/>
<path fill="#F7540B" opacity="1.000000" stroke="none" 
	d="
M515.282104,503.992188 
	C515.228699,503.799835 515.427307,503.518646 515.867798,503.132935 
	C515.917847,503.320129 515.725952,503.611755 515.282104,503.992188 
z"/>
<path fill="#F7540B" opacity="1.000000" stroke="none" 
	d="
M790.901367,502.339722 
	C791.121521,502.255524 791.435974,502.435822 791.855347,502.873993 
	C791.638733,502.955963 791.317261,502.780090 790.901367,502.339722 
z"/>
<path fill="#F7540B" opacity="1.000000" stroke="none" 
	d="
M757.300354,503.026703 
	C757.241821,502.816498 757.449402,502.526428 757.919312,502.152649 
	C757.976624,502.361511 757.771545,502.654175 757.300354,503.026703 
z"/>
<path fill="#F7540B" opacity="1.000000" stroke="none" 
	d="
M758.356323,502.119934 
	C758.285645,501.885925 758.497131,501.577301 758.996094,501.215027 
	C759.068604,501.456055 758.853577,501.750702 758.356323,502.119934 
z"/>
<path fill="#F7540B" opacity="1.000000" stroke="none" 
	d="
M519.297852,500.997620 
	C519.234985,500.776001 519.438843,500.496155 519.897217,500.131104 
	C519.955994,500.343750 519.760254,500.641602 519.297852,500.997620 
z"/>
<path fill="#F7540B" opacity="1.000000" stroke="none" 
	d="
M671.682434,544.929565 
	C671.748352,545.139221 671.552124,545.447021 671.091431,545.851562 
	C671.024719,545.641357 671.222473,545.334473 671.682434,544.929565 
z"/>
<path fill="#F7540B" opacity="1.000000" stroke="none" 
	d="
M792.987061,504.283112 
	C793.180725,504.228302 793.468567,504.428009 793.863647,504.873169 
	C793.674316,504.924988 793.377808,504.731293 792.987061,504.283112 
z"/>
<path fill="#F7540B" opacity="1.000000" stroke="none" 
	d="
M793.964111,505.299500 
	C794.170654,505.240692 794.465149,505.445801 794.853210,505.911255 
	C794.648560,505.968842 794.350281,505.766113 793.964111,505.299500 
z"/>
<path fill="#F7540B" opacity="1.000000" stroke="none" 
	d="
M611.954285,558.308105 
	C612.166016,558.245789 612.462158,558.450012 612.846802,558.917175 
	C612.636414,558.978333 612.337524,558.776550 611.954285,558.308105 
z"/>
<path fill="#F7540B" opacity="1.000000" stroke="none" 
	d="
M512.300171,507.035217 
	C512.228149,506.827942 512.414978,506.534424 512.846375,506.136383 
	C512.913635,506.337555 512.736328,506.643280 512.300171,507.035217 
z"/>
<path fill="#5A26BC" opacity="1.000000" stroke="none" 
	d="
M347.047363,485.695923 
	C346.841278,485.766632 346.534271,485.582214 346.130249,485.140381 
	C346.337585,485.068909 346.641998,485.254883 347.047363,485.695923 
z"/>
<path fill="#F7540B" opacity="1.000000" stroke="none" 
	d="
M762.284668,499.842651 
	C762.274048,499.643921 762.527405,499.423645 763.028442,499.136292 
	C763.033691,499.319824 762.791199,499.570465 762.284668,499.842651 
z"/>
<path fill="#F7540B" opacity="1.000000" stroke="none" 
	d="
M568.073669,483.680237 
	C567.861877,483.760406 567.552917,483.579498 567.136719,483.146271 
	C567.345154,483.069031 567.660828,483.244110 568.073669,483.680237 
z"/>
<path fill="#F7540B" opacity="1.000000" stroke="none" 
	d="
M673.671387,542.911438 
	C673.746826,543.125549 673.559509,543.438354 673.111755,543.855042 
	C673.037109,543.642639 673.222839,543.326416 673.671387,542.911438 
z"/>
<path fill="#F7540B" opacity="1.000000" stroke="none" 
	d="
M633.980225,544.731873 
	C633.802795,544.773743 633.524475,544.570557 633.133667,544.129395 
	C633.307190,544.089905 633.593262,544.288330 633.980225,544.731873 
z"/>
<path fill="#5A26BC" opacity="1.000000" stroke="none" 
	d="
M467.062866,491.678894 
	C466.833527,491.754425 466.531097,491.558563 466.149261,491.094055 
	C466.376465,491.019409 466.683105,491.213440 467.062866,491.678894 
z"/>
<path fill="#F7540B" opacity="1.000000" stroke="none" 
	d="
M807.021851,482.724213 
	C806.842224,482.793518 806.552002,482.623901 806.134888,482.233826 
	C806.309021,482.170654 806.610168,482.327972 807.021851,482.724213 
z"/>
<path fill="#F7540B" opacity="1.000000" stroke="none" 
	d="
M672.696472,543.948608 
	C672.757080,544.154358 672.556152,544.455139 672.094727,544.853149 
	C672.034424,544.648010 672.234619,544.345764 672.696472,543.948608 
z"/>
<path fill="#F7540B" opacity="1.000000" stroke="none" 
	d="
M636.041687,546.706848 
	C635.844849,546.772522 635.546936,546.585876 635.137756,546.155273 
	C635.331238,546.092346 635.635925,546.273438 636.041687,546.706848 
z"/>
<path fill="#F7540B" opacity="1.000000" stroke="none" 
	d="
M634.985413,545.732544 
	C634.808289,545.779114 634.528259,545.582947 634.135010,545.152466 
	C634.308655,545.108704 634.595581,545.299316 634.985413,545.732544 
z"/>
<path fill="#FEFDFE" opacity="1.000000" stroke="none" 
	d="
M420.011841,552.053101 
	C400.815369,545.872131 398.834473,523.467407 405.268646,509.691101 
	C410.337219,498.838745 424.510162,494.514587 436.012329,499.555206 
	C446.251190,504.042145 450.874298,511.990601 450.866974,522.747986 
	C450.863922,527.254517 449.817444,531.760315 448.927307,536.896362 
	C447.047028,540.002502 445.484802,542.478638 443.922546,544.954834 
	C443.922546,544.954834 443.992920,544.990845 443.712646,545.090515 
	C442.918549,545.771729 442.404694,546.353333 441.890808,546.934937 
	C441.890839,546.934937 441.977020,546.972107 441.626160,547.060303 
	C435.011505,552.355896 427.586945,552.530762 420.011841,552.053101 
z"/>
<path fill="#5A26BC" opacity="1.000000" stroke="none" 
	d="
M420.242584,552.332031 
	C427.586945,552.530762 435.011505,552.355896 441.604340,547.018738 
	C440.795685,548.164856 439.894043,549.881592 438.478912,550.639221 
	C432.796844,553.681091 426.700928,553.998596 420.242584,552.332031 
z"/>
<path fill="#5A26BC" opacity="1.000000" stroke="none" 
	d="
M444.277100,544.944580 
	C445.484802,542.478638 447.047028,540.002502 448.834900,537.279175 
	C447.584290,539.666138 446.107971,542.300171 444.277100,544.944580 
z"/>
<path fill="#5A26BC" opacity="1.000000" stroke="none" 
	d="
M442.232361,546.924316 
	C442.404694,546.353333 442.918549,545.771729 443.694122,545.055603 
	C443.495209,545.585266 443.034546,546.249451 442.232361,546.924316 
z"/>
<path fill="#FEFDFE" opacity="1.000000" stroke="none" 
	d="
M296.987305,548.017273 
	C289.143066,542.064148 284.050201,527.195618 288.557159,514.644958 
	C295.554108,495.160309 317.282104,493.699402 329.293304,504.313019 
	C333.199097,507.764343 334.470581,514.196838 337.002747,520.104248 
	C336.329102,526.615417 335.599640,532.288208 334.870209,537.960938 
	C334.870209,537.960938 334.950256,537.977600 334.675140,538.135132 
	C333.561066,539.840637 332.722107,541.388611 331.883118,542.936523 
	C331.883118,542.936523 331.963959,542.974854 331.657166,543.098755 
	C325.620392,550.111572 318.246185,553.328308 309.411835,551.982178 
	C305.167480,551.335449 301.122559,549.380066 296.987305,548.017273 
z"/>
<path fill="#5A26BC" opacity="1.000000" stroke="none" 
	d="
M297.036560,548.368530 
	C301.122559,549.380066 305.167480,551.335449 309.411835,551.982178 
	C318.246185,553.328308 325.620392,550.111572 331.643341,543.056152 
	C330.880463,549.857788 316.304230,555.610229 309.125610,553.746033 
	C304.958282,552.663940 301.089142,550.433472 297.036560,548.368530 
z"/>
<path fill="#5A26BC" opacity="1.000000" stroke="none" 
	d="
M335.223755,537.838745 
	C335.599640,532.288208 336.329102,526.615417 337.115906,520.489746 
	C337.747498,520.538391 338.881470,521.141418 338.811676,521.526062 
	C337.829529,526.940308 336.683502,532.324829 335.223755,537.838745 
z"/>
<path fill="#5A26BC" opacity="1.000000" stroke="none" 
	d="
M332.248108,542.920410 
	C332.722107,541.388611 333.561066,539.840637 334.665771,538.095337 
	C334.158752,539.566772 333.385925,541.235596 332.248108,542.920410 
z"/>
</svg>