<?xml version="1.0" encoding="UTF-8"?>
<svg version="1.1" xmlns="http://www.w3.org/2000/svg" width="337" height="227">
<path d="M0 0 C111.21 0 222.42 0 337 0 C337 74.91 337 149.82 337 227 C225.79 227 114.58 227 0 227 C0 152.09 0 77.18 0 0 Z " fill="#FEFEFE" transform="translate(0,0)"/>
<path d="M0 0 C11.88 0 23.76 0 36 0 C36 68.64 36 137.28 36 208 C22.14 208 8.28 208 -6 208 C-7.29790547 205.40418906 -7.13947417 203.50443517 -7.15821838 200.59640503 C-7.1680072 199.44933075 -7.17779602 198.30225647 -7.18788147 197.12042236 C-7.19651466 195.22365753 -7.19651466 195.22365753 -7.20532227 193.28857422 C-7.21489873 191.94839169 -7.22490867 190.60821219 -7.23532104 189.26803589 C-7.2624013 185.62366184 -7.28339393 181.97927479 -7.30332303 178.33485556 C-7.32516337 174.52848018 -7.35256159 170.72214498 -7.37937927 166.915802 C-7.42933261 159.70519963 -7.47426162 152.49457499 -7.51740164 145.28392899 C-7.56675147 137.07603164 -7.62167794 128.8681746 -7.67708123 120.66031623 C-7.79094181 103.77357995 -7.8970357 86.88680677 -8 70 C-21.86 69.67 -35.72 69.34 -50 69 C-50 58.77 -50 48.54 -50 38 C-45.05 37.01 -40.1 36.02 -35 35 C-31.1424006 33.43285025 -27.63945321 31.92747357 -24 30 C-23.29875 29.64679687 -22.5975 29.29359375 -21.875 28.9296875 C-18.36776129 27.07377368 -16.21696762 25.26711018 -14 22 C-13.34 22 -12.68 22 -12 22 C-11.7421875 21.43925781 -11.484375 20.87851562 -11.21875 20.30078125 C-9.85676439 17.72959688 -8.23526945 15.52202563 -6.5 13.1875 C-3.5920474 9.10912664 -2.03531314 5.86597174 -1 1 C-0.67 0.67 -0.34 0.34 0 0 Z " fill="#FEFEFE" transform="translate(287,8)"/>
<path d="M0 0 C1.30481323 0.00398804 1.30481323 0.00398804 2.63598633 0.00805664 C24.54160394 0.16660394 24.54160394 0.16660394 26.5 2.125 C27.97674029 2.25924912 29.45687555 2.35665467 30.9375 2.4375 C36.65462094 2.95204088 41.30467346 4.78405722 46.5 7.125 C47.83265694 7.68910063 49.16591052 8.25179573 50.5 8.8125 C52.18233076 9.54851971 53.85757209 10.30378604 55.5 11.125 C55.5 11.785 55.5 12.445 55.5 13.125 C56.35851562 13.34800781 57.21703125 13.57101562 58.1015625 13.80078125 C62.02921474 15.33121126 64.77610134 17.54575874 67.875 20.3125 C68.44154297 20.80717773 69.00808594 21.30185547 69.59179688 21.81152344 C70.7188208 22.79654492 71.84293544 23.78490675 72.96386719 24.77685547 C74.27285448 25.92565201 75.60667512 27.0460507 76.9453125 28.16015625 C84.54982153 34.50688527 88.15874973 41.14263451 92.0703125 50.234375 C93.27420088 53.07435782 93.27420088 53.07435782 95.0546875 54.6328125 C97.21553643 56.86374302 97.65945808 59.28708973 98.5 62.25 C99.6167047 66.10731965 100.75390728 69.91353268 102.125 73.6875 C106.25704842 86.33718218 105.7393652 99.23594873 105.625 112.375 C105.61494943 114.39192264 105.60582726 116.40885012 105.59765625 118.42578125 C105.57580895 123.32564238 105.54139364 128.22526661 105.5 133.125 C104.84 133.125 104.18 133.125 103.5 133.125 C103.43941406 133.90746094 103.37882813 134.68992188 103.31640625 135.49609375 C103.23261719 136.50800781 103.14882812 137.51992187 103.0625 138.5625 C102.94068359 140.07650391 102.94068359 140.07650391 102.81640625 141.62109375 C102.5 144.125 102.5 144.125 101.5 145.125 C101.15239293 146.51250721 100.84663367 147.91061734 100.5625 149.3125 C99.77290501 153.02652087 98.70112796 156.52161612 97.5 160.125 C97.15366415 161.6429251 96.82125076 163.16406865 96.5 164.6875 C95.7947708 168.00095784 94.90020776 171.02453995 93.5 174.125 C92.84 174.125 92.18 174.125 91.5 174.125 C91.335 175.07375 91.17 176.0225 91 177 C88.70384468 184.98803331 81.78659571 191.24507519 75.56640625 196.40625 C73.30818686 198.28454212 71.16213574 200.26217023 69 202.25 C65.60785775 205.284148 62.17755111 207.76763034 58.2265625 210.01953125 C56.45568711 211.04922924 56.45568711 211.04922924 55.17578125 212.5703125 C49.00250423 218.2975019 38.53382588 220.72032943 30.4140625 221.703125 C27.35182738 222.08071785 27.35182738 222.08071785 23.8828125 223.15234375 C18.54144653 224.52389469 13.23669003 224.46538124 7.75 224.4375 C6.65977539 224.43476074 5.56955078 224.43202148 4.44628906 224.42919922 C-7.14821516 224.28228371 -19.70945461 223.7412761 -30.5 219.125 C-32.82597511 218.7436926 -35.15912158 218.40039746 -37.5 218.125 C-37.5 217.465 -37.5 216.805 -37.5 216.125 C-38.51835938 216.03734375 -39.53671875 215.9496875 -40.5859375 215.859375 C-44.86492447 215.05653114 -47.46553031 213.69819556 -51.125 211.375 C-52.21039063 210.69953125 -53.29578125 210.0240625 -54.4140625 209.328125 C-57.45490295 207.15719587 -59.90028759 204.79605958 -62.5 202.125 C-63.428125 201.568125 -64.35625 201.01125 -65.3125 200.4375 C-66.034375 200.004375 -66.75625 199.57125 -67.5 199.125 C-67.5 198.465 -67.5 197.805 -67.5 197.125 C-68.38558594 196.75375 -68.38558594 196.75375 -69.2890625 196.375 C-76.28599197 192.41913882 -80.69483355 182.94914149 -84.5 176.125 C-84.97824219 175.27550781 -85.45648438 174.42601562 -85.94921875 173.55078125 C-88.75242024 168.30582258 -90.16961842 164.07186844 -90.5 158.125 C-91.16 158.125 -91.82 158.125 -92.5 158.125 C-93.16340408 155.92188134 -93.80451982 153.71205174 -94.4375 151.5 C-94.79714844 150.27023438 -95.15679687 149.04046875 -95.52734375 147.7734375 C-98.37643813 135.79214657 -97.71474029 122.82183242 -97.74023438 110.57617188 C-97.74996054 107.76142028 -97.78110696 104.94739469 -97.8125 102.1328125 C-97.97228824 75.16706682 -97.97228824 75.16706682 -91.5 65.125 C-91.06489389 63.34697381 -90.69311235 61.55263667 -90.375 59.75 C-87.43876389 47.33216814 -79.33758639 37.03203697 -70.5 28.125 C-69.654375 27.238125 -68.80875 26.35125 -67.9375 25.4375 C-56.14850136 14.2530654 -56.14850136 14.2530654 -50.125 11.6875 C-46.49672821 10.28396985 -46.49672821 10.28396985 -43.6875 8.0625 C-40.16139078 5.91917871 -37.43486414 5.30562373 -33.41796875 4.625 C-30.0227978 4.04323041 -26.67584252 3.30593809 -23.3125 2.5625 C-15.45670805 0.82973675 -8.02522251 -0.04409888 0 0 Z M-25.17578125 11.2109375 C-28.23407707 12.41369586 -31.33520346 13.478525 -34.4375 14.5625 C-50.72084389 20.41269924 -63.01319223 28.98960922 -73.5 43.125 C-74.17530327 44.94831883 -74.8428509 46.77500104 -75.46484375 48.6171875 C-76.51890794 51.17080715 -77.84583565 53.44995721 -79.26074219 55.81762695 C-92.00446399 77.71683134 -91.2972004 101.64481533 -90.5 126.125 C-89.84 126.125 -89.18 126.125 -88.5 126.125 C-88.45101562 127.23617187 -88.40203125 128.34734375 -88.3515625 129.4921875 C-87.96343966 137.51369363 -87.54404684 145.32288657 -85.5 153.125 C-85.27183594 154.0221875 -85.04367188 154.919375 -84.80859375 155.84375 C-83.60396327 160.23339824 -82.8131913 162.95317153 -79.5 166.125 C-78.5 169.125 -78.5 169.125 -77.5 172.125 C-77.02304688 172.59164062 -76.54609375 173.05828125 -76.0546875 173.5390625 C-74.21981285 175.41081905 -73.60019365 177.07410504 -72.625 179.5 C-65.97876329 192.94931677 -53.52875211 200.68506466 -40.5078125 207.12939453 C-38.81217617 207.97020252 -37.13772597 208.85353572 -35.46875 209.74609375 C-22.78068546 216.18566867 -9.27971065 216.42717678 4.625 216.5625 C5.30323822 216.57471588 5.98147644 216.58693176 6.68026733 216.59951782 C16.61792146 216.74998151 25.11700505 215.3732986 34.5 212.125 C35.35577637 211.83101318 36.21155273 211.53702637 37.09326172 211.23413086 C39.20193879 210.48090254 41.28984167 209.69075056 43.375 208.875 C44.07496094 208.606875 44.77492187 208.33875 45.49609375 208.0625 C47.16609865 207.42195018 48.83338897 206.77432897 50.5 206.125 C50.5 205.465 50.5 204.805 50.5 204.125 C52.15 203.795 53.8 203.465 55.5 203.125 C55.5 202.465 55.5 201.805 55.5 201.125 C56.06460938 201.02703125 56.62921875 200.9290625 57.2109375 200.828125 C66.08461166 198.10242304 72.05807583 189.26199812 77.2734375 182.078125 C79.5 179.125 79.5 179.125 81.6640625 176.98046875 C87.55422882 171.02764109 89.2445145 160.91495413 91.5 153.125 C91.83515625 151.98933594 92.1703125 150.85367188 92.515625 149.68359375 C96.08050972 136.79625254 96.79768538 124.22820588 96.8125 110.9375 C96.8176059 109.86065445 96.8176059 109.86065445 96.82281494 108.76205444 C96.89844863 80.84486359 90.26645537 53.00249572 70 32.609375 C66.28335089 28.69018414 66.28335089 28.69018414 61.5 27.125 C61.5 26.465 61.5 25.805 61.5 25.125 C44.16382389 12.18660386 24.57854367 6.89073973 3.1875 6.8125 C2.09042725 6.80702148 0.99335449 6.80154297 -0.13696289 6.79589844 C-8.93184892 6.8730991 -16.97418644 7.9169907 -25.17578125 11.2109375 Z " fill="#DEDEDE" transform="translate(97.5,1.875)"/>
<path d="M0 0 C16.83 0 33.66 0 51 0 C51 73.92 51 147.84 51 224 C30.87 224 10.74 224 -10 224 C-10 178.46 -10 132.92 -10 86 C-24.19 86 -38.38 86 -53 86 C-54.58681989 84.41318011 -54.12728536 82.78751654 -54.12939453 80.58789062 C-54.13412277 79.18138245 -54.13412277 79.18138245 -54.13894653 77.74645996 C-54.1369223 76.72669067 -54.13489807 75.70692139 -54.1328125 74.65625 C-54.13376923 73.61682251 -54.13472595 72.57739502 -54.13571167 71.50646973 C-54.13639363 69.30395446 -54.13453827 67.10143721 -54.13037109 64.89892578 C-54.12502308 61.51460281 -54.13031559 58.13041256 -54.13671875 54.74609375 C-54.13605797 52.61197887 -54.13477681 50.47786408 -54.1328125 48.34375 C-54.13483673 47.32398071 -54.13686096 46.30421143 -54.13894653 45.25354004 C-54.13579437 44.31586792 -54.13264221 43.3781958 -54.12939453 42.41210938 C-54.12859894 41.58239624 -54.12780334 40.75268311 -54.12698364 39.89782715 C-54 38 -54 38 -53 37 C-50.95730281 36.68606523 -48.91356948 36.37773585 -46.86572266 36.09936523 C-37.33375702 34.79507734 -28.92825025 32.66566372 -20 29 C-18.70255859 28.58814453 -18.70255859 28.58814453 -17.37890625 28.16796875 C-14.25608444 26.63476067 -12.86431056 24.66101744 -10.8125 21.875 C-9.58453654 20.21736672 -8.32294637 18.58286299 -7 17 C-6.34 17 -5.68 17 -5 17 C-4.72285156 15.85660156 -4.44570313 14.71320312 -4.16015625 13.53515625 C-3.79445622 12.04422535 -3.42856071 10.55334239 -3.0625 9.0625 C-2.88009766 8.30775391 -2.69769531 7.55300781 -2.50976562 6.77539062 C-1.11328125 1.11328125 -1.11328125 1.11328125 0 0 Z M6 8 C3.91269445 10.80078462 3.91269445 10.80078462 3.25 13.625 C1.81492205 17.49971048 -0.19997651 20.48496652 -2.5625 23.8515625 C-4.03993805 25.95247481 -4.03993805 25.95247481 -5.0703125 28.2109375 C-6.29630105 30.57019277 -7.6257979 30.88272843 -10 32 C-10.5775 32.61875 -11.155 33.2375 -11.75 33.875 C-20.1480767 41.80651688 -33.37864393 43.87572879 -44 46 C-44 56.23 -44 66.46 -44 77 C-30.14 77.33 -16.28 77.66 -2 78 C-1.97494385 82.10937012 -1.9498877 86.21874023 -1.92407227 90.45263672 C-1.84075781 103.99944512 -1.75210174 117.54621409 -1.66066074 131.09296989 C-1.60532799 139.30984945 -1.55184592 147.52673335 -1.50268555 155.74365234 C-1.45984434 162.90357572 -1.41356652 170.06346712 -1.36312145 177.22334111 C-1.33651999 181.016182 -1.31166691 184.80901654 -1.29092598 188.60189438 C-1.27136527 192.16903075 -1.24722322 195.73610626 -1.21950912 199.30318832 C-1.20565331 201.24224549 -1.19670729 203.18133578 -1.18788147 205.12042236 C-1.17809265 206.26749664 -1.16830383 207.41457092 -1.15821838 208.59640503 C-1.15176583 209.59747221 -1.14531328 210.59853939 -1.1386652 211.62994194 C-1.15518871 214.0181302 -1.15518871 214.0181302 0 216 C13.86 216 27.72 216 42 216 C42 147.36 42 78.72 42 8 C30.12 8 18.24 8 6 8 Z " fill="#DEDEDE" transform="translate(281,0)"/>
<path d="M0 0 C2.05809953 1.49512163 3.25511901 3.21577091 4.7421875 5.265625 C5.5671875 5.74 6.3921875 6.214375 7.2421875 6.703125 C10.21186017 8.55917042 11.02196193 10.24753103 12.7421875 13.265625 C13.22558594 13.98621094 13.70898438 14.70679687 14.20703125 15.44921875 C20.30953728 24.78912851 22.97930013 35.20375817 23.7421875 46.265625 C24.4021875 46.265625 25.0621875 46.265625 25.7421875 46.265625 C25.76683324 52.22875666 25.7850215 58.19185895 25.79711914 64.1550293 C25.80216028 66.18530798 25.80899307 68.21558302 25.81762695 70.24584961 C25.82970217 73.15739847 25.83541784 76.0688995 25.83984375 78.98046875 C25.84500504 79.8940062 25.85016632 80.80754364 25.85548401 81.74876404 C25.85567918 83.92137927 25.80430555 86.09389796 25.7421875 88.265625 C25.4121875 88.595625 25.0821875 88.925625 24.7421875 89.265625 C24.58414974 90.84600265 24.46567646 92.43042174 24.3671875 94.015625 C23.98476152 98.31336463 23.03142932 100.60283809 20.7421875 104.265625 C20.16160273 106.77019142 19.72777974 109.28480965 19.28125 111.81640625 C18.59597568 114.92993523 17.33388166 117.51633509 15.7421875 120.265625 C15.0821875 120.265625 14.4221875 120.265625 13.7421875 120.265625 C13.5359375 120.9875 13.3296875 121.709375 13.1171875 122.453125 C11.33404037 126.10047141 8.9230401 127.78455997 5.7421875 130.265625 C5.13761719 130.91917969 4.53304687 131.57273438 3.91015625 132.24609375 C-2.19666986 137.93479483 -10.84646436 139.60134816 -18.9453125 139.765625 C-24.82855479 139.55224316 -30.98288482 139.11408595 -36.2578125 136.265625 C-36.5878125 135.275625 -36.9178125 134.285625 -37.2578125 133.265625 C-39.27289608 132.53238704 -39.27289608 132.53238704 -41.2578125 132.265625 C-41.2578125 131.605625 -41.2578125 130.945625 -41.2578125 130.265625 C-42.6809375 129.894375 -42.6809375 129.894375 -44.1328125 129.515625 C-47.2578125 128.265625 -47.2578125 128.265625 -48.3203125 126.453125 C-48.6296875 125.73125 -48.9390625 125.009375 -49.2578125 124.265625 C-50.1240625 123.42 -50.9903125 122.574375 -51.8828125 121.703125 C-54.2578125 119.265625 -54.2578125 119.265625 -54.2578125 116.265625 C-54.9178125 116.265625 -55.5778125 116.265625 -56.2578125 116.265625 C-56.43957031 115.64816406 -56.62132812 115.03070313 -56.80859375 114.39453125 C-58.05711528 110.1879741 -59.33525876 106.01998361 -60.8203125 101.890625 C-64.35013521 91.17311307 -64.63062796 80.28525096 -64.62841797 69.11376953 C-64.63276924 66.66496999 -64.6691504 64.21801148 -64.70703125 61.76953125 C-64.806525 47.69169525 -63.30277295 31.78671017 -56.2578125 19.265625 C-55.5978125 18.935625 -54.9378125 18.605625 -54.2578125 18.265625 C-53.9278125 17.275625 -53.5978125 16.285625 -53.2578125 15.265625 C-50.20550761 7.88542511 -42.87714137 2.70876338 -35.9453125 -0.796875 C-25.27078316 -4.78424783 -10.40126969 -4.80058601 0 0 Z M-33.2578125 8.265625 C-34.4334375 8.6575 -35.6090625 9.049375 -36.8203125 9.453125 C-42.9012656 12.65944572 -47.11240432 18.20846752 -50.2578125 24.265625 C-51.00006508 27.34292774 -51.00006508 27.34292774 -51.3828125 30.515625 C-52.1699938 36.1778063 -52.1699938 36.1778063 -53.2578125 37.265625 C-57.50128092 58.26614753 -58.48656511 85.91451978 -50.19140625 105.96875 C-49.2578125 108.265625 -49.2578125 108.265625 -48.3203125 112.140625 C-46.31007284 118.0530946 -40.9319347 121.40439362 -36.2578125 125.265625 C-35.7215625 125.8225 -35.1853125 126.379375 -34.6328125 126.953125 C-31.59902247 129.84901549 -28.67159749 130.51708794 -24.5625 130.49609375 C-23.24185547 130.49319336 -23.24185547 130.49319336 -21.89453125 130.49023438 C-20.98316406 130.47798828 -20.07179687 130.46574219 -19.1328125 130.453125 C-17.75416016 130.4521582 -17.75416016 130.4521582 -16.34765625 130.45117188 C-11.64606203 130.58977825 -11.64606203 130.58977825 -7.2578125 129.265625 C-7.2578125 128.605625 -7.2578125 127.945625 -7.2578125 127.265625 C-5.9275 126.894375 -5.9275 126.894375 -4.5703125 126.515625 C2.11366217 123.99337041 5.57977685 119.48278977 8.7421875 113.265625 C8.7421875 112.605625 8.7421875 111.945625 8.7421875 111.265625 C9.7321875 110.935625 10.7221875 110.605625 11.7421875 110.265625 C12.51590812 108.3857692 12.51590812 108.3857692 12.875 106.08203125 C13.12443359 104.81456055 13.12443359 104.81456055 13.37890625 103.52148438 C13.54003906 102.63267578 13.70117188 101.74386719 13.8671875 100.828125 C14.20095847 99.07901227 14.53679862 97.33029274 14.875 95.58203125 C15.01824707 94.80287354 15.16149414 94.02371582 15.30908203 93.22094727 C15.7421875 91.265625 15.7421875 91.265625 16.7421875 89.265625 C16.83168167 87.81525393 16.8597719 86.36083871 16.85571289 84.90771484 C16.85563736 84.00693207 16.85556183 83.10614929 16.85548401 82.17807007 C16.85032272 81.20407257 16.84516144 80.23007507 16.83984375 79.2265625 C16.8384288 78.23057037 16.83701385 77.23457825 16.83555603 76.20840454 C16.82994686 73.01911447 16.8173928 69.82989394 16.8046875 66.640625 C16.79967368 64.48177185 16.79511057 62.32291759 16.79101562 60.1640625 C16.77997445 54.8645595 16.76322738 49.56509722 16.7421875 44.265625 C16.0821875 44.265625 15.4221875 44.265625 14.7421875 44.265625 C14.72800781 43.69457031 14.71382813 43.12351563 14.69921875 42.53515625 C14.00775411 30.78025731 9.88859904 21.6218966 1.828125 13.09375 C-0.21562547 11.064432 -0.21562547 11.064432 -3.2578125 10.265625 C-3.2578125 9.605625 -3.2578125 8.945625 -3.2578125 8.265625 C-13.54246204 4.4430119 -23.17862296 3.57661073 -33.2578125 8.265625 Z " fill="#DFE0DF" transform="translate(120.2578125,45.734375)"/>
<path d="M0 0 C11.88 0 23.76 0 36 0 C36 68.64 36 137.28 36 208 C35.34 207.67 34.68 207.34 34 207 C34.33 139.02 34.66 71.04 35 1 C4.94849605 -1.86231565 4.94849605 -1.86231565 -2 6 C-1.125 1.125 -1.125 1.125 0 0 Z " fill="#F5F5F5" transform="translate(287,8)"/>
<path d="M0 0 C0 0.66 0 1.32 0 2 C-2.54046458 2.50688605 -5.08208876 3.00566874 -7.625 3.5 C-8.33785156 3.64308594 -9.05070313 3.78617188 -9.78515625 3.93359375 C-10.48769531 4.06894531 -11.19023437 4.20429687 -11.9140625 4.34375 C-12.8723999 4.53227539 -12.8723999 4.53227539 -13.85009766 4.72460938 C-16.54625274 5.06997196 -19.28181539 5 -22 5 C-22 20.18 -22 35.36 -22 51 C-8.14 51 5.72 51 20 51 C20 51.33 20 51.66 20 52 C13.8944529 52.02464513 7.78893449 52.04283371 1.68334961 52.05493164 C-0.39543156 52.05997288 -2.47420916 52.06680574 -4.55297852 52.07543945 C-7.53402586 52.08751422 -10.51502649 52.09323024 -13.49609375 52.09765625 C-14.89921059 52.10539818 -14.89921059 52.10539818 -16.33067322 52.11329651 C-17.62189842 52.11340981 -17.62189842 52.11340981 -18.93920898 52.11352539 C-19.70087875 52.115746 -20.46254852 52.11796661 -21.24729919 52.12025452 C-23 52 -23 52 -24 51 C-24.09822744 49.53194708 -24.1279837 48.0592254 -24.12939453 46.58789062 C-24.13412277 45.18138245 -24.13412277 45.18138245 -24.13894653 43.74645996 C-24.1369223 42.72669067 -24.13489807 41.70692139 -24.1328125 40.65625 C-24.13376923 39.61682251 -24.13472595 38.57739502 -24.13571167 37.50646973 C-24.13639363 35.30395446 -24.13453827 33.10143721 -24.13037109 30.89892578 C-24.12502308 27.51460281 -24.13031559 24.13041256 -24.13671875 20.74609375 C-24.13605797 18.61197887 -24.13477681 16.47786408 -24.1328125 14.34375 C-24.13483673 13.32398071 -24.13686096 12.30421143 -24.13894653 11.25354004 C-24.13579437 10.31586792 -24.13264221 9.3781958 -24.12939453 8.41210938 C-24.12859894 7.58239624 -24.12780334 6.75268311 -24.12698364 5.89782715 C-24 4 -24 4 -23 3 C-21.63770396 2.70470301 -20.26370267 2.46281035 -18.88671875 2.24609375 C-18.05076172 2.11396484 -17.21480469 1.98183594 -16.35351562 1.84570312 C-15.47373047 1.71099609 -14.59394531 1.57628906 -13.6875 1.4375 C-12.81931641 1.29892578 -11.95113281 1.16035156 -11.05664062 1.01757812 C-7.2865822 0.43022443 -3.83271878 0 0 0 Z " fill="#E9EAEA" transform="translate(251,34)"/>
<path d="M0 0 C0.495 0.495 0.495 0.495 1 1 C3.73631801 1.53821792 6.4842058 1.96478036 9.23828125 2.40234375 C11.8073094 2.95830034 13.72711129 3.70969025 16 5 C13.66705225 5.04241723 11.33297433 5.04092937 9 5 C8.505 4.505 8.505 4.505 8 4 C-10.84892486 1.77114903 -29.34517963 2.85340379 -48 6 C-38.59986082 -3.40013918 -12.13732261 -1.03524222 0 0 Z " fill="#EEEEEE" transform="translate(115,0)"/>
<path d="M0 0 C1.51815699 0.00015911 3.0363194 0.00585313 4.55444336 0.01586914 C5.35208603 0.01728409 6.1497287 0.01869904 6.97154236 0.02015686 C9.52916146 0.02577223 12.08669429 0.03832727 14.64428711 0.05102539 C16.37410356 0.05603841 18.10392137 0.06060166 19.83374023 0.06469727 C24.08312264 0.07574664 28.33244023 0.09302153 32.58178711 0.11352539 C32.58178711 0.44352539 32.58178711 0.77352539 32.58178711 1.11352539 C31.57277344 1.12287109 30.56375977 1.1322168 29.52416992 1.1418457 C25.77404934 1.18177309 22.02474682 1.24753821 18.27514648 1.32104492 C16.65350874 1.34923886 15.03173398 1.37046134 13.40991211 1.38452148 C11.07586606 1.40597411 8.7434645 1.45263114 6.40991211 1.50415039 C5.68684875 1.50537903 4.9637854 1.50660767 4.21881104 1.50787354 C0.65678542 1.61110384 -1.10968706 1.86091911 -3.9074707 4.15161133 C-4.40601563 4.79904297 -4.90456055 5.44647461 -5.41821289 6.11352539 C-4.34682538 0.14436639 -4.34682538 0.14436639 0 0 Z " fill="#EDEDED" transform="translate(290.418212890625,7.886474609375)"/>
<path d="M0 0 C0.66 0.33 1.32 0.66 2 1 C1.31292969 1.66386719 0.62585938 2.32773437 -0.08203125 3.01171875 C-1.43361328 4.33623047 -1.43361328 4.33623047 -2.8125 5.6875 C-3.70582031 6.55761719 -4.59914063 7.42773438 -5.51953125 8.32421875 C-8.80448 11.86782489 -10.9168978 15.67355697 -13 20 C-13.50233842 15.30866999 -12.10186756 13.1446262 -9.3125 9.4375 C-8.28576172 8.04337891 -8.28576172 8.04337891 -7.23828125 6.62109375 C-5.02116589 4.02478588 -2.73271161 2.03397974 0 0 Z " fill="#EFEFEF" transform="translate(83,55)"/>
<path d="M0 0 C0.66 0.33 1.32 0.66 2 1 C-3.94 6.94 -9.88 12.88 -16 19 C-16 16 -16 16 -14.64453125 14.3515625 C-14.03996094 13.78179687 -13.43539063 13.21203125 -12.8125 12.625 C-12.173125 12.01269531 -11.53375 11.40039062 -10.875 10.76953125 C-10.25625 10.18558594 -9.6375 9.60164063 -9 9 C-8.113125 8.113125 -7.22625 7.22625 -6.3125 6.3125 C-4.20833333 4.20833333 -2.10416667 2.10416667 0 0 Z " fill="#E6E7E6" transform="translate(37,20)"/>
</svg>
