<?xml version="1.0" encoding="UTF-8"?>
<svg version="1.1" xmlns="http://www.w3.org/2000/svg" width="403" height="232">
<path d="M0 0 C132.99 0 265.98 0 403 0 C403 76.56 403 153.12 403 232 C270.01 232 137.02 232 0 232 C0 155.44 0 78.88 0 0 Z " fill="#FEFEFE" transform="translate(0,0)"/>
<path d="M0 0 C2.93253522 1.47845396 2.93253522 1.47845396 6.16796875 2.453125 C9.80010401 3.69798941 11.31335988 5.59512409 13.9375 8.40234375 C15.49619533 9.71935984 17.05900662 11.03151381 18.625 12.33984375 C22.13314635 15.41092868 24.10693227 17.65624243 24.9375 22.40234375 C25.5975 22.40234375 26.2575 22.40234375 26.9375 22.40234375 C31.58471173 30.73225157 32.6946123 37.6274779 32.5 47.08984375 C32.51095703 48.26095703 32.52191406 49.43207031 32.53320312 50.63867188 C32.46260057 58.98389346 31.31944666 64.55068228 25.6875 70.96484375 C24.78 71.76921875 23.8725 72.57359375 22.9375 73.40234375 C22.26847656 74.0159375 21.59945312 74.62953125 20.91015625 75.26171875 C15.224625 80.40234375 15.224625 80.40234375 12.9375 80.40234375 C12.9375 81.06234375 12.9375 81.72234375 12.9375 82.40234375 C-0.6957574 87.77364216 -0.6957574 87.77364216 -7.0625 89.40234375 C-7.0625 90.39234375 -7.0625 91.38234375 -7.0625 92.40234375 C-6.13566406 92.66789062 -5.20882812 92.9334375 -4.25390625 93.20703125 C-3.05636719 93.56023437 -1.85882813 93.9134375 -0.625 94.27734375 C0.56996094 94.62539062 1.76492188 94.9734375 2.99609375 95.33203125 C5.9375 96.40234375 5.9375 96.40234375 6.9375 98.40234375 C8.57404152 99.23522649 10.24835102 99.99460939 11.9375 100.71484375 C24.60573615 106.32506262 31.7811226 111.09492361 36.9375 124.40234375 C39.73487032 133.93940164 39.7988277 147.91883708 35.5625 156.90234375 C34.69989522 158.40950598 33.8271735 159.91100004 32.9375 161.40234375 C32.64875 162.45421875 32.36 163.50609375 32.0625 164.58984375 C30.60536405 168.23268363 28.37514331 170.59033295 25.73046875 173.453125 C24.20213645 175.1146453 22.81729785 176.80664985 21.4375 178.58984375 C18.53613903 181.85387484 15.52011449 183.92207218 11.9375 186.40234375 C11.6075 187.06234375 11.2775 187.72234375 10.9375 188.40234375 C9.04963182 189.27968126 7.12602885 190.08098063 5.1875 190.83984375 C2.11610471 192.04646333 -0.71603937 193.18553001 -3.515625 194.9375 C-10.44361249 198.92215538 -18.06942669 198.98719631 -25.875 199.52734375 C-26.99970703 199.61371094 -28.12441406 199.70007813 -29.28320312 199.7890625 C-40.19410221 200.58788486 -50.78274155 200.42211798 -61.6875 199.58984375 C-62.76773438 199.51958984 -63.84796875 199.44933594 -64.9609375 199.37695312 C-71.25903705 198.89691505 -76.27271163 197.92071651 -82.0625 195.40234375 C-83.856875 194.71591797 -83.856875 194.71591797 -85.6875 194.015625 C-86.80125 193.58636719 -87.915 193.15710938 -89.0625 192.71484375 C-90.196875 192.27785156 -91.33125 191.84085938 -92.5 191.390625 C-93.345625 191.06449219 -94.19125 190.73835937 -95.0625 190.40234375 C-95.0625 189.74234375 -95.0625 189.08234375 -95.0625 188.40234375 C-95.75859375 188.16386719 -96.4546875 187.92539063 -97.171875 187.6796875 C-107.19929522 183.24865181 -116.10407665 174.45567631 -122.0625 165.40234375 C-122.796875 163.08203125 -122.796875 163.08203125 -123.0625 161.40234375 C-123.7225 161.40234375 -124.3825 161.40234375 -125.0625 161.40234375 C-125.0625 160.08234375 -125.0625 158.76234375 -125.0625 157.40234375 C-125.7225 157.40234375 -126.3825 157.40234375 -127.0625 157.40234375 C-127.92288143 155.18071599 -128.74951685 152.9538433 -129.5625 150.71484375 C-129.80097656 150.10833984 -130.03945312 149.50183594 -130.28515625 148.87695312 C-132.76689684 141.89262602 -132.0625 137.64682448 -132.0625 129.40234375 C-117.2125 129.40234375 -102.3625 129.40234375 -87.0625 129.40234375 C-82.76462766 144.44489694 -82.76462766 144.44489694 -83.0625 150.40234375 C-82.4025 150.40234375 -81.7425 150.40234375 -81.0625 150.40234375 C-78.0625 153.86388221 -78.0625 153.86388221 -78.0625 156.40234375 C-77.464375 156.67046875 -76.86625 156.93859375 -76.25 157.21484375 C-74.0625 158.40234375 -74.0625 158.40234375 -72.828125 159.8125 C-70.35599838 162.03850782 -67.73402465 162.87689876 -64.625 164.02734375 C-62.92537109 164.66542969 -62.92537109 164.66542969 -61.19140625 165.31640625 C-56.80942201 166.83724472 -53.29626455 167.52586466 -48.640625 167.5 C-47.61582031 167.49677734 -46.59101563 167.49355469 -45.53515625 167.49023438 C-44.47167969 167.48185547 -43.40820312 167.47347656 -42.3125 167.46484375 C-41.23355469 167.46033203 -40.15460938 167.45582031 -39.04296875 167.45117188 C-36.38275617 167.43940102 -33.72265635 167.42295774 -31.0625 167.40234375 C-31.0625 166.74234375 -31.0625 166.08234375 -31.0625 165.40234375 C-30.42441406 165.29277344 -29.78632813 165.18320313 -29.12890625 165.0703125 C-28.30261719 164.91175781 -27.47632813 164.75320312 -26.625 164.58984375 C-25.80128906 164.43902344 -24.97757812 164.28820312 -24.12890625 164.1328125 C-23.10603516 163.77123047 -23.10603516 163.77123047 -22.0625 163.40234375 C-21.7325 162.41234375 -21.4025 161.42234375 -21.0625 160.40234375 C-19.66197101 159.33135099 -18.21735378 158.31727908 -16.75 157.33984375 C-11.61016208 153.40312076 -9.30763792 149.76264286 -8.0625 143.40234375 C-7.56049278 136.28565321 -7.73895076 129.41823078 -9.0625 122.40234375 C-9.7225 122.40234375 -10.3825 122.40234375 -11.0625 122.40234375 C-11.145 121.61859375 -11.2275 120.83484375 -11.3125 120.02734375 C-11.77159738 117.27178084 -11.77159738 117.27178084 -14 116.27734375 C-14.680625 115.98859375 -15.36125 115.69984375 -16.0625 115.40234375 C-16.7225 114.41234375 -17.3825 113.42234375 -18.0625 112.40234375 C-19.5475 111.90734375 -19.5475 111.90734375 -21.0625 111.40234375 C-21.3925 110.74234375 -21.7225 110.08234375 -22.0625 109.40234375 C-24.14331791 108.53119088 -24.14331791 108.53119088 -26.5625 107.83984375 C-30.97138383 106.49345992 -30.97138383 106.49345992 -32.0625 105.40234375 C-34.05866505 105.17352837 -36.06204193 105.00702687 -38.06640625 104.8671875 C-39.28134766 104.78017578 -40.49628906 104.69316406 -41.74804688 104.60351562 C-43.02744141 104.51650391 -44.30683594 104.42949219 -45.625 104.33984375 C-46.90826172 104.24896484 -48.19152344 104.15808594 -49.51367188 104.06445312 C-52.69632805 103.83965585 -55.87938046 103.62048168 -59.0625 103.40234375 C-59.0625 95.48234375 -59.0625 87.56234375 -59.0625 79.40234375 C-56.030625 79.31984375 -52.99875 79.23734375 -49.875 79.15234375 C-39.18957659 78.71595565 -27.46634572 77.50262117 -19.33203125 69.75390625 C-18.85121094 69.18414062 -18.37039063 68.614375 -17.875 68.02734375 C-17.38644531 67.46273437 -16.89789063 66.898125 -16.39453125 66.31640625 C-12.54487077 60.78463605 -12.81787213 55.60036062 -12.9375 49.08984375 C-12.94652344 48.15849609 -12.95554687 47.22714844 -12.96484375 46.26757812 C-12.98831737 43.97890015 -13.02115271 41.69075703 -13.0625 39.40234375 C-13.7225 39.40234375 -14.3825 39.40234375 -15.0625 39.40234375 C-15.289375 38.68046875 -15.51625 37.95859375 -15.75 37.21484375 C-18.28233787 31.78840545 -22.89012998 28.24207631 -28.0625 25.40234375 C-30.7253541 24.8859728 -33.35738362 24.66842077 -36.0625 24.40234375 C-37.5475 23.41234375 -37.5475 23.41234375 -39.0625 22.40234375 C-41.38516082 22.12721956 -41.38516082 22.12721956 -43.94921875 22.20703125 C-44.88701172 22.21347656 -45.82480469 22.21992187 -46.79101562 22.2265625 C-47.76748047 22.24332031 -48.74394531 22.26007812 -49.75 22.27734375 C-51.23209961 22.29087891 -51.23209961 22.29087891 -52.74414062 22.3046875 C-55.18383765 22.32825945 -57.62304697 22.36116353 -60.0625 22.40234375 C-60.0625 23.06234375 -60.0625 23.72234375 -60.0625 24.40234375 C-60.65417969 24.58410156 -61.24585938 24.76585937 -61.85546875 24.953125 C-70.33166293 27.64946736 -75.87986273 31.00040884 -81.0625 38.40234375 C-83.14931484 42.94645868 -84.08344192 47.50705336 -85.0625 52.40234375 C-98.5925 52.40234375 -112.1225 52.40234375 -126.0625 52.40234375 C-123.79873446 38.8197505 -123.79873446 38.8197505 -121.625 33.40234375 C-121.21378906 32.35046875 -120.80257812 31.29859375 -120.37890625 30.21484375 C-119.16049643 27.61171297 -117.78405439 25.67938636 -116.0625 23.40234375 C-115.76988281 22.60183594 -115.47726563 21.80132812 -115.17578125 20.9765625 C-113.75142801 17.68305798 -111.79262562 15.73459718 -109.25 13.21484375 C-108.39792969 12.35503906 -107.54585937 11.49523437 -106.66796875 10.609375 C-104.10518543 8.43850158 -102.18662869 7.51457311 -99.0625 6.40234375 C-97.48259339 5.47298692 -95.92025516 4.51324208 -94.375 3.52734375 C-67.89458451 -12.46962279 -27.44019463 -13.75509757 0 0 Z " fill="#FEFEFE" transform="translate(353.0625,20.59765625)"/>
<path d="M0 0 C0 0.66 0 1.32 0 2 C0.83917969 2.38285156 0.83917969 2.38285156 1.6953125 2.7734375 C11.26509522 7.8665083 18.81968313 16.01368749 23 26 C23 26.99 23 27.98 23 29 C23.99 29 24.98 29 26 29 C30.72537791 44.1212093 30.53056848 59.85636743 23.90234375 74.41015625 C20.91504323 79.66577988 16.65315986 83.2386222 12 87 C10.72568757 88.07923876 9.45464009 89.1623491 8.1875 90.25 C7.37345703 90.93835938 7.37345703 90.93835938 6.54296875 91.640625 C4.9611283 93.03424646 3.474788 94.49421046 2 96 C3.918125 96.4640625 3.918125 96.4640625 5.875 96.9375 C11.22869141 98.69391611 14.63754528 101.88037461 18.640625 105.74609375 C20.98084345 108.05745125 20.98084345 108.05745125 23.68359375 110.08984375 C26.50052646 112.41274442 27.61660437 114.65072638 29 118 C29 118.66 29 119.32 29 120 C29.66 120 30.32 120 31 120 C34.18212003 126.91765224 35.14071733 132.75958361 35.125 140.4375 C35.12757813 141.69433594 35.13015625 142.95117188 35.1328125 144.24609375 C35.00243134 147.93127902 34.59062733 151.36717317 34 155 C33.34 155 32.68 155 32 155 C31.90203125 155.59425781 31.8040625 156.18851563 31.703125 156.80078125 C30.15315197 165.39244208 28.25183902 174.55871131 22 181 C21.29875 181.7425 20.5975 182.485 19.875 183.25 C15.67142739 187.27080858 11.38230602 191.17482436 7 195 C6.38511719 195.55042969 5.77023437 196.10085937 5.13671875 196.66796875 C-15.51646194 213.74920245 -44.79416002 213.67979064 -70.05957031 211.76855469 C-79.7151735 210.77958049 -88.71108354 208.44495233 -97.80078125 205.0859375 C-100.87877558 204.04114822 -103.78510646 203.43773134 -107 203 C-107 202.34 -107 201.68 -107 201 C-108.32 200.67 -109.64 200.34 -111 200 C-111 199.34 -111 198.68 -111 198 C-112.08667969 197.83177734 -112.08667969 197.83177734 -113.1953125 197.66015625 C-120.8387364 195.86107736 -126.63943763 190.86819665 -131.46484375 184.890625 C-132.84933356 183.18555358 -134.28198196 181.69428629 -135.875 180.1875 C-138 178 -138 178 -139 175 C-139.61746094 174.4121875 -140.23492187 173.824375 -140.87109375 173.21875 C-150.08683349 163.61408913 -152.20285906 147.26372451 -152.0703125 134.6015625 C-152.06523682 133.67641846 -152.06016113 132.75127441 -152.05493164 131.7980957 C-152.04176504 129.53197723 -152.02332007 127.26603291 -152 125 C-144.19424805 124.97687208 -136.38850405 124.95908262 -128.58272648 124.94818783 C-124.9585404 124.94295998 -121.3343777 124.93586413 -117.71020508 124.92456055 C-114.21540025 124.91372816 -110.72061796 124.90772242 -107.22579765 124.90512276 C-105.23760611 124.90236449 -103.24942369 124.89455312 -101.26124573 124.88670349 C-100.06007614 124.88662796 -98.85890656 124.88655243 -97.62133789 124.88647461 C-96.55766495 124.884254 -95.493992 124.88203339 -94.39808655 124.87974548 C-92 125 -92 125 -91 126 C-90.54915503 129.67495484 -90.18141063 133.3490372 -89.83789062 137.03515625 C-89.34613588 141.90472761 -88.62388394 146.37071892 -87 151 C-85.18398635 152.20003343 -85.18398635 152.20003343 -83 153 C-82.2575 153.825 -81.515 154.65 -80.75 155.5 C-77.19457971 158.73220026 -74.67070824 159.12918999 -70 160 C-70 160.66 -70 161.32 -70 162 C-61.75 162.33 -53.5 162.66 -45 163 C-45 162.34 -45 161.68 -45 161 C-44.32453125 160.67386719 -43.6490625 160.34773437 -42.953125 160.01171875 C-42.06109375 159.57472656 -41.1690625 159.13773438 -40.25 158.6875 C-39.36828125 158.25824219 -38.4865625 157.82898438 -37.578125 157.38671875 C-33.10441453 155.10670602 -33.10441453 155.10670602 -30.171875 151.23046875 C-28.50688819 143.16761597 -27.29883998 134.11113671 -30.5 126.375 C-40.09765117 117.25723139 -53.66417986 117.67272767 -66.125 117.375 C-70.70375 117.25125 -75.2825 117.1275 -80 117 C-80 102.81 -80 88.62 -80 74 C-70.1 74 -60.2 74 -50 74 C-50 73.34 -50 72.68 -50 72 C-49.33613281 71.84144531 -48.67226563 71.68289062 -47.98828125 71.51953125 C-42.40103281 70.04319261 -38.58090793 68.81184503 -35 64 C-32.21967113 58.04215243 -32.21200644 52.44692738 -34.1875 46.3125 C-36.67078792 41.77407725 -38.58845932 38.91257391 -43.5703125 37.02734375 C-55.17780143 33.76936709 -66.55491098 34.13728246 -78 38 C-82.00002143 40.55750499 -84.39328193 43.53689425 -86 48 C-86.69667626 51.92859455 -87.1863549 55.80165899 -87.60546875 59.76953125 C-88 63 -88 63 -89 65 C-96.41459942 65.02312883 -103.82919111 65.04091785 -111.24381924 65.05181217 C-114.68640348 65.05703982 -118.12896312 65.06413531 -121.5715332 65.07543945 C-125.52555043 65.08834235 -129.47955756 65.09322918 -133.43359375 65.09765625 C-135.29605995 65.10539818 -135.29605995 65.10539818 -137.19615173 65.11329651 C-138.90781273 65.11340981 -138.90781273 65.11340981 -140.65405273 65.11352539 C-141.664431 65.115746 -142.67480927 65.11796661 -143.71580505 65.12025452 C-146 65 -146 65 -147 64 C-148.83524188 47.36247936 -142.36544857 30.51538795 -132.75 17.1875 C-128.4920242 12.03765089 -123.29426466 8.0311264 -118 4 C-117.30003906 3.44699219 -116.60007813 2.89398438 -115.87890625 2.32421875 C-112.56284826 -0.20739541 -111.30682518 -1 -107 -1 C-107 -1.66 -107 -2.32 -107 -3 C-105.66811929 -3.60736227 -104.3343905 -4.21067185 -103 -4.8125 C-102.2575 -5.14894531 -101.515 -5.48539063 -100.75 -5.83203125 C-99.8425 -6.21746094 -98.935 -6.60289063 -98 -7 C-97.41943848 -7.25297852 -96.83887695 -7.50595703 -96.24072266 -7.76660156 C-90.98138423 -9.92191713 -86.01686125 -10.6682779 -80.375 -11.125 C-78.73683311 -11.27181684 -77.09880736 -11.42021832 -75.4609375 -11.5703125 C-74.74728027 -11.62977051 -74.03362305 -11.68922852 -73.29833984 -11.75048828 C-71.57253769 -11.93784433 -69.85514382 -12.20540412 -68.14648438 -12.51196289 C-44.13010762 -16.2370356 -20.81653404 -12.48992042 0 0 Z M-109.96484375 9.66796875 C-112 11 -112 11 -114.4296875 11.875 C-117.71272275 13.3119516 -119.67066882 15.27282316 -122.1875 17.8125 C-123.04730469 18.66457031 -123.90710938 19.51664063 -124.79296875 20.39453125 C-126.96040868 22.95326122 -127.91476616 24.86932543 -129 28 C-129.78359265 29.4419171 -130.57564477 30.87926116 -131.375 32.3125 C-134.82605072 39.08147486 -138 48.31868335 -138 56 C-124.47 56 -110.94 56 -97 56 C-95.515 50.06 -95.515 50.06 -94 44 C-92.1875 40.625 -92.1875 40.625 -90 38 C-89.56816406 37.47792969 -89.13632812 36.95585938 -88.69140625 36.41796875 C-84.01201306 31.2059617 -78.64166106 29.6087579 -72 28 C-72 27.34 -72 26.68 -72 26 C-68.56257082 25.94197302 -65.12526747 25.90639514 -61.6875 25.875 C-60.71103516 25.85824219 -59.73457031 25.84148438 -58.72851562 25.82421875 C-57.79072266 25.81777344 -56.85292969 25.81132813 -55.88671875 25.8046875 C-55.02264404 25.79421387 -54.15856934 25.78374023 -53.26831055 25.77294922 C-51 26 -51 26 -48 28 C-46.4262548 28.32190243 -44.84052921 28.58775131 -43.25 28.8125 C-37.13417486 29.94638291 -33.26823161 32.50494523 -29.125 37.0625 C-27.97206312 39.04811351 -27.40234133 40.74688855 -27 43 C-26.34 43 -25.68 43 -25 43 C-24.88239285 46.16634636 -24.81228976 49.33212074 -24.75 52.5 C-24.71648437 53.386875 -24.68296875 54.27375 -24.6484375 55.1875 C-24.54935175 61.92533073 -25.68757403 67.4180945 -30.37744141 72.48950195 C-33.60474271 75.34061799 -37.05442028 77.33071627 -41 79 C-41.62648438 79.268125 -42.25296875 79.53625 -42.8984375 79.8125 C-51.87511703 83.0882006 -61.57032716 82.68567757 -71 83 C-71 90.92 -71 98.84 -71 107 C-69.10894531 107.10957031 -67.21789062 107.21914062 -65.26953125 107.33203125 C-62.78380949 107.49149265 -60.29813469 107.65168716 -57.8125 107.8125 C-56.56662109 107.88275391 -55.32074219 107.95300781 -54.03710938 108.02539062 C-52.2340332 108.14624023 -52.2340332 108.14624023 -50.39453125 108.26953125 C-49.28956299 108.33760986 -48.18459473 108.40568848 -47.04614258 108.47583008 C-43.73193085 109.04612843 -41.78740094 110.17278036 -39 112 C-37.33480481 112.34060811 -35.66842534 112.67558396 -34 113 C-33.67 113.66 -33.34 114.32 -33 115 C-31.515 115.495 -31.515 115.495 -30 116 C-28.66172696 117.66270287 -27.32810215 119.32916181 -26 121 C-25.34 121 -24.68 121 -24 121 C-23.505 123.475 -23.505 123.475 -23 126 C-22.34 126 -21.68 126 -21 126 C-19.22601082 135.40358493 -18.37499813 145.87910176 -22.4453125 154.77734375 C-24.99566947 158.4234571 -28.34316619 160.8604987 -31.953125 163.40625 C-32.62859375 163.9321875 -33.3040625 164.458125 -34 165 C-34 165.66 -34 166.32 -34 167 C-38.455 167.99 -38.455 167.99 -43 169 C-43 169.66 -43 170.32 -43 171 C-46.62484173 171.08837761 -50.24940017 171.14084706 -53.875 171.1875 C-54.88820313 171.21263672 -55.90140625 171.23777344 -56.9453125 171.26367188 C-67.31237909 171.36335521 -78.59602296 169.11955719 -86.375 161.75 C-86.91125 161.1725 -87.4475 160.595 -88 160 C-88.66 160 -89.32 160 -90 160 C-91 158 -92 156 -93 154 C-93.66 154 -94.32 154 -95 154 C-94.95875 153.175 -94.9175 152.35 -94.875 151.5 C-95.10423551 145.08140559 -97.24060329 139.15788849 -99 133 C-113.85 133 -128.7 133 -144 133 C-144.21789831 144.25815299 -144.21789831 144.25815299 -141.5 154.3125 C-141.26152344 154.96927734 -141.02304688 155.62605469 -140.77734375 156.30273438 C-140.20339148 157.8753636 -139.60457962 159.43888905 -139 161 C-138.34 161 -137.68 161 -137 161 C-137 162.32 -137 163.64 -137 165 C-136.34 165 -135.68 165 -135 165 C-134.61328125 166.08861328 -134.61328125 166.08861328 -134.21875 167.19921875 C-130.34305531 176.10586328 -122.6873109 182.42091483 -115 188 C-114.37351562 188.45632812 -113.74703125 188.91265625 -113.1015625 189.3828125 C-110.31179665 191.42554108 -110.31179665 191.42554108 -107 192 C-107 192.66 -107 193.32 -107 194 C-104.62586674 194.9605272 -102.25074481 195.91847353 -99.875 196.875 C-98.87726563 197.27912109 -98.87726563 197.27912109 -97.859375 197.69140625 C-96.52692442 198.22699913 -95.19158196 198.75545086 -93.85351562 199.27685547 C-92.31980869 199.87522743 -90.79528376 200.49707489 -89.2734375 201.125 C-84.16806765 202.4896812 -79.00859508 202.74806193 -73.75 203.125 C-72.12771484 203.25455078 -72.12771484 203.25455078 -70.47265625 203.38671875 C-59.52385072 204.21877514 -48.88385376 203.99061203 -37.9375 203.1875 C-36.81794922 203.11724609 -35.69839844 203.04699219 -34.54492188 202.97460938 C-26.50383136 202.38508661 -19.44273932 201.11194073 -12.4375 197 C-9.77317649 195.44984814 -7.73176905 194.50763668 -4.875 193.5625 C-0.94722705 192.16511924 1.18619049 190.10999999 4 187 C4.969375 186.236875 5.93875 185.47375 6.9375 184.6875 C10.08159866 182.13342499 12.28483318 179.11987576 14.62109375 175.83203125 C16 174 16 174 18.1875 172.125 C20.6475784 169.24077015 21.27335831 166.27079127 22.19140625 162.6328125 C23 160 23 160 24.5625 157.34765625 C26.58295848 152.64240375 26.49051914 148.38181378 26.4375 143.3125 C26.43137695 142.33023438 26.42525391 141.34796875 26.41894531 140.3359375 C26.18628882 129.55499358 23.45250403 121.38534207 16.37890625 113.1015625 C13.19944034 110.29277324 9.74343503 108.63838962 5.9375 106.8125 C4.85758789 106.27979492 4.85758789 106.27979492 3.75585938 105.73632812 C0.84934716 104.3141072 -1.92407757 103.02530748 -5 102 C-5.33 101.34 -5.66 100.68 -6 100 C-8.16072227 99.21376109 -10.35490875 98.51798774 -12.5625 97.875 C-13.76003906 97.52179688 -14.95757812 97.16859375 -16.19140625 96.8046875 C-17.11824219 96.53914063 -18.04507813 96.27359375 -19 96 C-18.505 94.02 -18.505 94.02 -18 92 C-16.72125 91.7525 -15.4425 91.505 -14.125 91.25 C-8.830253 90.08835439 -3.96810741 88.13659734 1 86 C1 85.34 1 84.68 1 84 C1.680625 83.835 2.36125 83.67 3.0625 83.5 C6.74265777 81.6207705 8.68223703 79.17451675 11.29296875 76.0234375 C13 74 13 74 15.8125 71.3125 C21.28392045 65.52842696 20.40115948 58.36922314 20.4375 50.875 C20.48680664 49.11542969 20.48680664 49.11542969 20.53710938 47.3203125 C20.58733136 39.10216956 19.02770645 33.16543293 15 26 C14.34 26 13.68 26 13 26 C12.77054688 25.10539062 12.54109375 24.21078125 12.3046875 23.2890625 C10.80710875 19.51372924 9.21186962 17.96723769 6.125 15.375 C1.04837329 11.05607877 1.04837329 11.05607877 -0.765625 8.953125 C-4.06407322 6.06986607 -7.7948951 4.86466673 -11.875 3.375 C-12.66519531 3.0759375 -13.45539063 2.776875 -14.26953125 2.46875 C-43.87061361 -8.66243904 -83.36192594 -9.75882479 -109.96484375 9.66796875 Z " fill="#E1E1E1" transform="translate(365,17)"/>
<path d="M0 0 C6.91688138 4.1444124 10.99804206 8.56036509 14 16 C14.33 16.33 14.66 16.66 15 17 C15.35208981 18.49120388 15.65625472 19.99382692 15.9375 21.5 C16.70561831 25.52975503 17.56481223 29.51827832 18.53515625 33.50390625 C22.24612001 53.43084613 20.02602529 74.1510983 17 94 C16.34 94 15.68 94 15 94 C14.80664062 94.59167969 14.61328125 95.18335938 14.4140625 95.79296875 C13.87500703 97.42881531 13.32638376 99.061532 12.76953125 100.69140625 C12.2272799 102.3181603 11.74694785 103.96619913 11.3125 105.625 C8.13624993 111.37250012 2.0108809 115.62360523 -4 118 C-4.99 118 -5.98 118 -7 118 C-7 118.66 -7 119.32 -7 120 C-28.84207374 121.23994305 -28.84207374 121.23994305 -37 114 C-38.423125 112.8553125 -38.423125 112.8553125 -39.875 111.6875 C-42.26604859 108.66352679 -43.65068478 105.73107499 -45.09375 102.17578125 C-46.00485249 99.84674993 -46.00485249 99.84674993 -47.625 97.25 C-49.47622777 92.87437072 -49.95955282 88.52133098 -50.5703125 83.828125 C-50.84276482 81.05798056 -50.84276482 81.05798056 -52 79 C-52.15226459 77.55756009 -52.24919779 76.10905253 -52.31640625 74.66015625 C-52.35862305 73.77142822 -52.40083984 72.8827002 -52.44433594 71.96704102 C-52.50282715 70.52929321 -52.50282715 70.52929321 -52.5625 69.0625 C-52.6229248 67.58317993 -52.6229248 67.58317993 -52.68457031 66.07397461 C-52.80008133 63.04957589 -52.90272393 60.02503645 -53 57 C-53.03013184 56.1234375 -53.06026367 55.246875 -53.09130859 54.34375 C-53.51305521 40.5899749 -53.12130158 27.19253149 -46 15 C-45.35017497 13.60602051 -44.70438522 12.2101533 -44.0625 10.8125 C-40.24442005 3.40773888 -35.17144508 0.6989421 -27.46875 -2.05078125 C-18.40233457 -4.53179358 -8.69060244 -3.50200826 0 0 Z " fill="#FEFEFE" transform="translate(117,58)"/>
<path d="M0 0 C1.25740997 -0.00027191 1.25740997 -0.00027191 2.54022217 -0.00054932 C20.9410085 0.05606849 37.60771353 3.0332283 53.625 12.5625 C53.625 13.2225 53.625 13.8825 53.625 14.5625 C54.594375 14.7275 55.56375 14.8925 56.5625 15.0625 C62.03123068 16.60439364 65.64887381 20.6982723 69.625 24.5625 C70.594375 25.449375 71.56375 26.33625 72.5625 27.25 C74.6739641 29.61739915 75.67957865 31.55434117 76.625 34.5625 C77.285 34.5625 77.945 34.5625 78.625 34.5625 C80.24609375 36.50390625 80.24609375 36.50390625 82.0625 39.125 C82.65933594 39.97191406 83.25617188 40.81882813 83.87109375 41.69140625 C85.82237841 44.88560274 87.2184857 48.09510378 88.625 51.5625 C89.10839844 52.70847656 89.59179688 53.85445312 90.08984375 55.03515625 C93.53876091 63.44246361 96.27840743 71.7734442 98.625 80.5625 C98.97046875 81.6659375 99.3159375 82.769375 99.671875 83.90625 C104.61684724 102.87548778 103.03308157 126.59581247 98.625 145.5625 C98.44807617 146.32449707 98.27115234 147.08649414 98.08886719 147.87158203 C94.67529681 162.06531376 90.35561334 177.14998785 79.625 187.5625 C78.39959489 189.11164751 77.1920164 190.67501663 76 192.25 C71.71808294 197.66630554 66.86664934 202.0950841 61.625 206.5625 C60.655625 207.449375 59.68625 208.33625 58.6875 209.25 C52.3942902 214.00201556 46.40084438 217.26652594 38.625 218.5625 C38.295 219.2225 37.965 219.8825 37.625 220.5625 C15.0575308 228.56171035 -12.0793697 228.51107659 -34.6875 220.6875 C-35.43322266 220.44386719 -36.17894531 220.20023438 -36.94726562 219.94921875 C-41.79859109 218.30801662 -46.00315564 216.23065336 -50.375 213.5625 C-50.375 212.9025 -50.375 212.2425 -50.375 211.5625 C-51.39722656 211.34464844 -52.41945312 211.12679687 -53.47265625 210.90234375 C-57.86179291 209.63868736 -60.57561747 207.2560216 -63.8125 204.125 C-64.37308105 203.59656494 -64.93366211 203.06812988 -65.51123047 202.52368164 C-69.85962924 198.31613943 -73.40901961 193.86562805 -76.7890625 188.83984375 C-78.18985633 186.82835902 -79.64509903 185.27740183 -81.375 183.5625 C-82.07158363 181.90811387 -82.73596883 180.23995682 -83.375 178.5625 C-84.3623454 176.88830562 -85.36312105 175.22198148 -86.375 173.5625 C-90.42255913 165.80467833 -93.06053546 158.50610838 -95 150 C-95.32484375 148.62038086 -95.32484375 148.62038086 -95.65625 147.21289062 C-98.18729398 136.3465876 -98.65870694 126.16138723 -98.72509766 115.03735352 C-98.74148002 113.0391867 -98.76852768 111.04107398 -98.80712891 109.04321289 C-99.40000784 78.08719928 -90.29383947 49.77781886 -69.375 26.5625 C-55.34654472 12.5625 -55.34654472 12.5625 -48.375 12.5625 C-48.375 11.9025 -48.375 11.2425 -48.375 10.5625 C-42.29143021 7.47037824 -37.19487029 5.99550764 -30.375 5.5625 C-30.375 4.9025 -30.375 4.2425 -30.375 3.5625 C-20.24003595 0.30295753 -10.53275552 -0.03493752 0 0 Z M-37.375 14.5625 C-37.705 15.5525 -38.035 16.5425 -38.375 17.5625 C-39.69274196 17.95294206 -41.03167272 18.27205086 -42.375 18.5625 C-45.27326824 19.89087294 -47.89349011 21.19771978 -50.4375 23.125 C-52.375 24.5625 -52.375 24.5625 -54.73828125 25.4140625 C-57.65994989 26.68661151 -59.28424073 28.10276059 -61.5 30.375 C-62.16257812 31.04144531 -62.82515625 31.70789063 -63.5078125 32.39453125 C-65.46100889 34.66236388 -66.8610794 36.98527746 -68.375 39.5625 C-69.63591773 41.21594223 -70.90739649 42.86136651 -72.1875 44.5 C-76.77518956 50.77656428 -79.64025521 57.31619882 -82.375 64.5625 C-82.85195312 65.77164063 -83.32890625 66.98078125 -83.8203125 68.2265625 C-87.21682611 77.44567088 -88.23390614 85.80137029 -88.375 95.5625 C-89.035 95.5625 -89.695 95.5625 -90.375 95.5625 C-90.47542637 101.09019943 -90.54718673 106.61734426 -90.59472656 112.14575195 C-90.61458703 114.01824211 -90.64168486 115.89067245 -90.67675781 117.76293945 C-91.09244835 140.55867491 -86.00140643 159.73164364 -74.375 179.5625 C-73.715 179.5625 -73.055 179.5625 -72.375 179.5625 C-71.16871992 181.89464148 -70.2095262 184.05892139 -69.375 186.5625 C-67.89 187.5525 -67.89 187.5525 -66.375 188.5625 C-65.92125 189.366875 -65.4675 190.17125 -65 191 C-63.11471712 193.97294607 -61.37648519 194.80553306 -58.375 196.5625 C-57.01672029 198.20889965 -55.68245749 199.87545807 -54.375 201.5625 C-51.46694655 204.26283535 -48.32495175 205.42243728 -44.60546875 206.734375 C-41.41208569 207.92000934 -38.34506864 209.35691058 -35.2578125 210.79296875 C-33.40544379 211.68861124 -33.40544379 211.68861124 -31.375 211.5625 C-31.375 212.2225 -31.375 212.8825 -31.375 213.5625 C-11.79772269 219.67017426 9.07037631 219.75377584 28.625 213.5625 C29.80707031 213.22347656 30.98914063 212.88445312 32.20703125 212.53515625 C50.83289418 206.66100644 68.4000812 193.58467754 78.51171875 176.75390625 C80.2142587 173.40259076 81.38322914 169.90491802 82.58203125 166.34765625 C83.6126361 163.59551672 84.87820127 161.18536707 86.3125 158.625 C88.7383706 153.94336558 89.21239151 149.89560732 89.44921875 144.671875 C90.13491501 132.54266997 90.13491501 132.54266997 92.625 127.5625 C94.47921533 102.74129934 91.89151564 75.09553128 80.625 52.5625 C79.965 52.5625 79.305 52.5625 78.625 52.5625 C78.53863281 52.01464844 78.45226562 51.46679688 78.36328125 50.90234375 C77.39008033 47.81796624 75.74637015 45.71186526 73.8125 43.125 C72.78189453 41.73474609 72.78189453 41.73474609 71.73046875 40.31640625 C71.03566406 39.40761719 70.34085938 38.49882813 69.625 37.5625 C68.985625 36.70914063 68.34625 35.85578125 67.6875 34.9765625 C65.4726068 32.38413068 63.14441707 30.44217301 60.4375 28.375 C55.72820285 24.76890569 55.72820285 24.76890569 54.625 22.5625 C53.965 22.3975 53.305 22.2325 52.625 22.0625 C51.965 21.8975 51.305 21.7325 50.625 21.5625 C50.295 20.9025 49.965 20.2425 49.625 19.5625 C48.965 19.3975 48.305 19.2325 47.625 19.0625 C46.965 18.8975 46.305 18.7325 45.625 18.5625 C45.295 17.9025 44.965 17.2425 44.625 16.5625 C39.40315846 14.54950002 34.01316815 13.06430078 28.625 11.5625 C27.46355469 11.23507812 26.30210938 10.90765625 25.10546875 10.5703125 C5.51896847 5.86955243 -18.69835482 6.64833664 -37.375 14.5625 Z " fill="#E2E2E2" transform="translate(99.375,3.4375)"/>
<path d="M0 0 C0.87011719 0.5053125 1.74023438 1.010625 2.63671875 1.53125 C8.26601754 5.02978941 11.98536576 10.18881144 15 16 C15 16.66 15 17.32 15 18 C15.66 18 16.32 18 17 18 C18.80230168 21.82989106 19.19622241 24.78121808 19 29 C19.66 29 20.32 29 21 29 C21.48651015 30.66453788 21.96377915 32.33177729 22.4375 34 C22.70433594 34.928125 22.97117187 35.85625 23.24609375 36.8125 C25.32010516 45.58137726 25.24007431 54.41338797 25.25 63.375 C25.25133942 64.08665314 25.25267883 64.79830627 25.25405884 65.53152466 C25.24954086 76.59886372 24.64334695 87.21760337 22 98 C21.79503906 98.85207031 21.59007812 99.70414062 21.37890625 100.58203125 C18.53335806 110.3912191 14.0368054 119.67247554 6 126 C5.49339844 126.70769531 4.98679687 127.41539062 4.46484375 128.14453125 C2.50078737 130.632336 0.45679316 131.4426005 -2.4375 132.6875 C-3.38496094 133.10386719 -4.33242187 133.52023438 -5.30859375 133.94921875 C-15.00585184 137.73523098 -27.07929729 137.34397112 -36.61328125 133.25390625 C-47.23516095 127.67350791 -55.96484422 118.37049253 -60 107 C-61.62916992 101.07086726 -62.88436135 95.04507852 -64 89 C-64.1757959 88.10724365 -64.3515918 87.2144873 -64.53271484 86.29467773 C-65.48142967 79.60559387 -65.30581768 72.81949121 -65.35009766 66.07397461 C-65.36649052 64.25613453 -65.3935533 62.43835427 -65.43212891 60.62084961 C-65.7083132 47.49008772 -64.60416832 35.40244774 -60 23 C-59.49987396 22.50216507 -58.99974792 22.00433014 -58.48446655 21.4914093 C-56.66635721 19.89312489 -56.66635721 19.89312489 -55.875 16.4375 C-53.45683723 9.5520997 -47.70427259 3.3459466 -41.5 -0.4375 C-40.345 -0.953125 -39.19 -1.46875 -38 -2 C-37.40574219 -2.29519531 -36.81148437 -2.59039062 -36.19921875 -2.89453125 C-24.73504086 -7.76958942 -10.4288262 -6.39418532 0 0 Z M-45.1875 13 C-47.38007335 15.8804395 -48.87636639 18.54266582 -50 22 C-50.639375 23.11375 -51.27875 24.2275 -51.9375 25.375 C-57.90325268 37.3735363 -57.43136767 50.96930351 -57 64 C-56.97389648 64.9398877 -56.94779297 65.87977539 -56.92089844 66.84814453 C-56.83624772 69.77443212 -56.73462115 72.69954721 -56.625 75.625 C-56.59438477 76.52484619 -56.56376953 77.42469238 -56.53222656 78.35180664 C-56.27329745 84.10334978 -55.3861969 89.42006541 -54 95 C-53.6875 96.58333333 -53.375 98.16666667 -53.0625 99.75 C-52.26690693 103.34259996 -51.03485719 105.90701707 -49 109 C-48.54625 110.155 -48.0925 111.31 -47.625 112.5 C-45.81545104 116.39749007 -44.30240739 118.25970451 -41 121 C-40.3915625 121.54140625 -39.783125 122.0828125 -39.15625 122.640625 C-30.8110049 128.92894349 -20.92277015 127.56330136 -11 127 C-11 126.34 -11 125.68 -11 125 C-10.26910156 124.89300781 -9.53820312 124.78601563 -8.78515625 124.67578125 C-5.79802355 123.95099309 -3.95965331 122.92010967 -1.4375 121.1875 C-0.69371094 120.68605469 0.05007812 120.18460937 0.81640625 119.66796875 C5.18582226 116.33032897 7.46754905 113.6233278 9.25 108.375 C9.58515625 107.41335937 9.9203125 106.45171875 10.265625 105.4609375 C11.09531738 103.10861444 11.09531738 103.10861444 11 101 C11.66 101 12.32 101 13 101 C16.46074086 78.29962619 19.50378618 53.20508155 12 31 C11.7834375 29.205625 11.7834375 29.205625 11.5625 27.375 C10.96938263 23.81629575 10.25542484 22.68916038 8 20 C7.62875 19.071875 7.2575 18.14375 6.875 17.1875 C3.05712365 10.69711021 -2.62387063 7.06248612 -9.8125 5.0625 C-22.32643088 2.54387341 -35.97745121 2.9109839 -45.1875 13 Z " fill="#E2E2E2" transform="translate(121,51)"/>
<path d="M0 0 C0.33 0 0.66 0 1 0 C0.85715908 2.02104705 0.71057617 4.04182977 0.5625 6.0625 C0.48128906 7.18785156 0.40007813 8.31320313 0.31640625 9.47265625 C0 13 0 13 -0.5234375 16.07421875 C-1.23823248 21.96248887 -1.19055891 27.82374419 -1.1875 33.75 C-1.18814453 35.03156982 -1.18878906 36.31313965 -1.18945312 37.63354492 C-1.13300246 47.86458671 -0.41251664 57.87276015 1 68 C-4.93409841 59.09885238 -3.34071987 45.57248188 -3.31567383 35.23681641 C-3.31250595 32.50513037 -3.33607682 29.77452235 -3.36132812 27.04296875 C-3.39391529 17.57785004 -3.06610442 9.04866229 0 0 Z " fill="#EDEDED" transform="translate(59,81)"/>
<path d="M0 0 C0.66 0.33 1.32 0.66 2 1 C0.54782324 2.50596108 -0.91192861 4.00462104 -2.375 5.5 C-3.18710938 6.3353125 -3.99921875 7.170625 -4.8359375 8.03125 C-7 10 -7 10 -9 10 C-7.84906278 6.54718834 -6.6794007 5.61917837 -3.9375 3.3125 C-2.83728516 2.37857422 -2.83728516 2.37857422 -1.71484375 1.42578125 C-1.14894531 0.95527344 -0.58304688 0.48476563 0 0 Z " fill="#E9E9E9" transform="translate(244,23)"/>
</svg>
