<?xml version="1.0" encoding="UTF-8"?>
<svg version="1.1" xmlns="http://www.w3.org/2000/svg" width="399" height="234">
<path d="M0 0 C131.67 0 263.34 0 399 0 C399 77.22 399 154.44 399 234 C267.33 234 135.66 234 0 234 C0 156.78 0 79.56 0 0 Z " fill="#FEFEFE" transform="translate(0,0)"/>
<path d="M0 0 C0.495 1.485 0.495 1.485 1 3 C1.7321875 3.12761719 2.464375 3.25523438 3.21875 3.38671875 C16.45894819 6.30625683 27.82749541 17.93461188 35 29 C35.66 29.99 36.32 30.98 37 32 C37.53916146 34.6602023 37.73370098 37.29262663 38 40 C38.66 40 39.32 40 40 40 C41.44816422 46.22530045 41.18424042 52.45306173 41.1875 58.8125 C41.19974609 60.05837891 41.21199219 61.30425781 41.22460938 62.58789062 C41.23494758 69.08372845 40.9698268 74.79465629 39 81 C38.34 81 37.68 81 37 81 C36.9071875 81.52207031 36.814375 82.04414062 36.71875 82.58203125 C29.03967024 108.41545719 -0.70896616 122.00559429 -22.1015625 134.60375977 C-40.39049489 144.48930937 -40.39049489 144.48930937 -54 159 C-54.66 159 -55.32 159 -56 159 C-56.33 161.31 -56.66 163.62 -57 166 C-24.99 166.33 7.02 166.66 40 167 C40 178.55 40 190.1 40 202 C19.93816382 202.02254568 -0.12366216 202.04097839 -20.18550777 202.05181217 C-29.49989716 202.05697547 -38.81427813 202.06401881 -48.12866211 202.07543945 C-56.2440536 202.08538526 -64.359439 202.09185318 -72.47483641 202.09408849 C-76.77459788 202.09539578 -81.07434192 202.09848274 -85.37409782 202.10573006 C-89.41642842 202.11248865 -93.45873432 202.11461729 -97.50107002 202.11310768 C-98.98904174 202.11338408 -100.47701423 202.11539016 -101.96498108 202.11920547 C-103.98775138 202.12414014 -106.01053476 202.12239816 -108.03330994 202.12025452 C-109.1680371 202.12117631 -110.30276426 202.1220981 -111.4718771 202.12304783 C-114 202 -114 202 -115 201 C-115.89890598 186.94595071 -113.60788585 175.6528343 -107.40234375 162.91015625 C-105.98629368 160.06546053 -105.98629368 160.06546053 -104.94140625 157.296875 C-103.74757715 154.38413014 -102.11635763 152.31476616 -100 150 C-99.34 150 -98.68 150 -98 150 C-97.73832031 149.40058594 -97.47664063 148.80117187 -97.20703125 148.18359375 C-95.92779812 145.86938236 -94.73749558 144.70340555 -92.6875 143.0625 C-90.54705514 141.33571415 -88.60718066 139.59991845 -86.67578125 137.6328125 C-83.7700134 134.77370662 -80.7297702 132.28915673 -77.5 129.8125 C-76.94441406 129.37486328 -76.38882813 128.93722656 -75.81640625 128.48632812 C-72.65899401 126.0532634 -69.74372679 124.33932304 -66 123 C-62.46601655 120.85189241 -60.3063896 119.4595844 -58 116 C-57.21625 115.690625 -56.4325 115.38125 -55.625 115.0625 C-52.92599065 114.17663185 -52.92599065 114.17663185 -51.19140625 112.12890625 C-48.73958881 109.74701586 -46.35065504 108.42449963 -43.3125 106.875 C-39.45640307 105.14901329 -39.45640307 105.14901329 -37 102 C-36.01 102 -35.02 102 -34 102 C-33.505 100.515 -33.505 100.515 -33 99 C-31 98 -29 97 -27 96 C-25.31384218 94.35305515 -23.64429829 92.68873879 -22 91 C-21.01 90.67 -20.02 90.34 -19 90 C-17.79117904 87.99983534 -17.79117904 87.99983534 -17 86 C-16.34 86 -15.68 86 -15 86 C-14.773125 85.443125 -14.54625 84.88625 -14.3125 84.3125 C-13 82 -13 82 -10.4375 79.5 C-8.13623673 77.13972998 -7.35378136 76.18403225 -7 73 C-6.34 73 -5.68 73 -5 73 C-3.73865541 53.15205816 -3.73865541 53.15205816 -12.640625 36.0625 C-18.89073087 29.98763074 -26.03729588 28.83136597 -34.5 28.6875 C-44.70616719 28.94239928 -51.32067774 30.01732512 -59 37 C-59.56976563 37.50402344 -60.13953125 38.00804687 -60.7265625 38.52734375 C-68.41548328 46.27307922 -68.35154781 57.76137351 -68.7890625 68.04296875 C-69 71 -69 71 -70 72 C-71.35094982 72.09268999 -72.70667091 72.11747326 -74.06079102 72.11352539 C-74.92160782 72.11344986 -75.78242462 72.11337433 -76.66932678 72.11329651 C-77.60473801 72.10813522 -78.54014923 72.10297394 -79.50390625 72.09765625 C-80.45692123 72.0962413 -81.40993622 72.09482635 -82.39183044 72.09336853 C-85.44875165 72.08775152 -88.50560077 72.07519616 -91.5625 72.0625 C-93.62955624 72.05748719 -95.69661362 72.05292391 -97.76367188 72.04882812 C-102.84247588 72.03777656 -107.9212257 72.02050055 -113 72 C-113.08797281 68.81267746 -113.14071341 65.62567212 -113.1875 62.4375 C-113.21263672 61.54224609 -113.23777344 60.64699219 -113.26367188 59.72460938 C-113.32692794 53.96830724 -112.62220797 50.12797539 -110 45 C-109.55979277 43.53342724 -109.15298139 42.05537993 -108.8125 40.5625 C-108.544375 39.386875 -108.27625 38.21125 -108 37 C-107.34 37 -106.68 37 -106 37 C-105.896875 36.0925 -105.79375 35.185 -105.6875 34.25 C-104.96499076 30.8345018 -104.10805916 29.67561355 -102 27 C-101.54625 25.865625 -101.0925 24.73125 -100.625 23.5625 C-98.90525169 19.79228256 -97.14591915 17.66193159 -94 15 C-93.34 15 -92.68 15 -92 15 C-92 14.34 -92 13.68 -92 13 C-87.55734149 8.65418418 -82.73563884 6.23286391 -76.78515625 4.640625 C-74.79059096 4.15685215 -74.79059096 4.15685215 -74 2 C-51.4203345 -6.90944633 -23.26150847 -4.59756873 0 0 Z " fill="#FEFEFE" transform="translate(345,17)"/>
<path d="M0 0 C0.73734375 0.12117187 1.4746875 0.24234375 2.234375 0.3671875 C10.11645805 1.81915017 17.56293391 5.09817544 25 8 C25 8.66 25 9.32 25 10 C25.88558594 9.91105469 26.77117187 9.82210938 27.68359375 9.73046875 C31.90376321 10.07345072 33.09646423 11.36526636 36.0625 14.3125 C38.51999205 16.72340452 40.67185458 18.80428122 43.6328125 20.5703125 C46.05502258 22.03323146 47.23665663 23.24626038 48.8125 25.5625 C49.23144531 26.16191406 49.65039062 26.76132812 50.08203125 27.37890625 C51 29 51 29 51 31 C51.66 31 52.32 31 53 31 C53.84069415 32.60032137 54.67231505 34.20541171 55.5 35.8125 C55.9640625 36.70582031 56.428125 37.59914062 56.90625 38.51953125 C58 41 58 41 58 44 C58.66 44 59.32 44 60 44 C63.48614864 53.06398646 63.13423574 62.49957343 63.0625 72.0625 C63.05798828 73.21427734 63.05347656 74.36605469 63.04882812 75.55273438 C63.03714426 78.36854518 63.02076281 81.18424398 63 84 C62.34 84 61.68 84 61 84 C60.938125 85.2375 60.87625 86.475 60.8125 87.75 C59.12836995 102.64987284 50.21465445 114.77763373 39 124 C38.03835938 124.82242188 37.07671875 125.64484375 36.0859375 126.4921875 C28.66565373 132.7524269 28.66565373 132.7524269 25.30078125 134.00390625 C22.43537318 135.24444794 22.30683013 136.26237167 21 139 C18.79296875 140.6328125 18.79296875 140.6328125 16.1875 142.125 C15.33542969 142.62257812 14.48335938 143.12015625 13.60546875 143.6328125 C11 145 11 145 8.39453125 146.02734375 C6.11800484 146.95206655 4.44892365 147.96201771 2.5 149.4375 C0.6262248 150.84725068 -1.22252809 152.13281781 -3.23828125 153.3359375 C-5.44358508 154.66473443 -7.5695931 156.03723575 -9.69921875 157.48046875 C-10.35083984 157.92197266 -11.00246094 158.36347656 -11.67382812 158.81835938 C-13.02974128 159.74027511 -14.38387829 160.66480791 -15.73632812 161.59179688 C-20.78087031 165 -20.78087031 165 -23 165 C-23 165.66 -23 166.32 -23 167 C5.38 167.33 33.76 167.66 63 168 C63 185.82 63 203.64 63 222 C5.91 222 -51.18 222 -110 222 C-114.21918944 213.56162113 -111.39297344 196.77931658 -109 188 C-108.82855469 187.29875 -108.65710938 186.5975 -108.48046875 185.875 C-104.94882254 173.48006105 -97.89204816 163.10337654 -89 154 C-87.91000499 152.69302707 -86.82636782 151.38071837 -85.75 150.0625 C-75.39769542 138.30171861 -61.83098833 129.76597657 -49 121 C-47.51539223 119.98211024 -46.03100508 118.96389862 -44.546875 117.9453125 C-43.85706543 117.4719043 -43.16725586 116.99849609 -42.45654297 116.51074219 C-41.79025879 116.05344727 -41.12397461 115.59615234 -40.4375 115.125 C-39.78539551 114.67801758 -39.13329102 114.23103516 -38.46142578 113.77050781 C-29.76493483 107.79765538 -21.21430765 101.623971 -13 95 C-12.20207031 94.37351562 -11.40414062 93.74703125 -10.58203125 93.1015625 C-3.95300115 87.6296388 -0.5160663 83.04115288 0.37109375 74.375 C0.6110139 67.04652995 0.44451913 61.01408707 -4 55 C-4.53625 54.21625 -5.0725 53.4325 -5.625 52.625 C-13.55180143 47.20139902 -24.47136826 48.59076924 -33.375 50.25 C-36.95563334 50.84718037 -36.95563334 50.84718037 -40 52 C-41.38302355 53.91037934 -41.38302355 53.91037934 -42 56 C-42.7734375 56.928125 -42.7734375 56.928125 -43.5625 57.875 C-46.35241624 61.99922401 -46.13563013 67.1664394 -46.28125 72.01953125 C-46.31863281 73.12361328 -46.35601562 74.22769531 -46.39453125 75.36523438 C-46.46544075 77.68292452 -46.53574329 80.00063331 -46.60546875 82.31835938 C-46.64285156 83.41599609 -46.68023437 84.51363281 -46.71875 85.64453125 C-46.74904297 86.64846924 -46.77933594 87.65240723 -46.81054688 88.68676758 C-47 91 -47 91 -48 92 C-49.76916387 92.0989348 -51.54228152 92.1279909 -53.31420898 92.12939453 C-54.44886093 92.13254669 -55.58351288 92.13569885 -56.75254822 92.13894653 C-58.60560326 92.13591019 -58.60560326 92.13591019 -60.49609375 92.1328125 C-61.75511002 92.13376923 -63.01412628 92.13472595 -64.31129456 92.13571167 C-66.98043211 92.1363938 -69.64947886 92.13503508 -72.31860352 92.13037109 C-75.7430688 92.12467957 -79.16745561 92.12794924 -82.59191799 92.13394356 C-85.85164607 92.13842327 -89.11136464 92.13528769 -92.37109375 92.1328125 C-93.60443954 92.13483673 -94.83778534 92.13686096 -96.10850525 92.13894653 C-97.24630936 92.13579437 -98.38411346 92.13264221 -99.55639648 92.12939453 C-100.56153793 92.12859894 -101.56667938 92.12780334 -102.60227966 92.12698364 C-105 92 -105 92 -107 91 C-107.8347065 64.86726578 -106.58810958 43.40077984 -88 23 C-79.87009679 14.88304249 -72.23645704 9.46736407 -61.3203125 5.89453125 C-58.85321931 5.12349727 -58.85321931 5.12349727 -57 3 C-38.79389388 -3.06099086 -18.71553807 -3.71174079 0 0 Z M-60 13 C-60.33 13.66 -60.66 14.32 -61 15 C-62.51632795 15.665209 -64.06457732 16.25857352 -65.625 16.8125 C-70.40039828 18.64444158 -74.05640254 20.74224558 -78 24 C-78 24.66 -78 25.32 -78 26 C-78.8353125 26.309375 -78.8353125 26.309375 -79.6875 26.625 C-85.32285596 29.97575219 -87.69799811 35.08056656 -90 41 C-90.391875 41.7425 -90.78375 42.485 -91.1875 43.25 C-92.21055565 45.13193471 -92.21055565 45.13193471 -92 48 C-92.66 48 -93.32 48 -94 48 C-94.19335938 48.83144531 -94.38671875 49.66289063 -94.5859375 50.51953125 C-94.84632813 51.60621094 -95.10671875 52.69289062 -95.375 53.8125 C-95.63023437 54.89144531 -95.88546875 55.97039063 -96.1484375 57.08203125 C-97 60 -97 60 -99 63 C-99.27478373 65.22485741 -99.27478373 65.22485741 -99.1953125 67.66796875 C-99.18564453 69.00698242 -99.18564453 69.00698242 -99.17578125 70.37304688 C-99.15902344 71.30181641 -99.14226562 72.23058594 -99.125 73.1875 C-99.11597656 74.12787109 -99.10695312 75.06824219 -99.09765625 76.03710938 C-99.07409056 78.35832968 -99.04119116 80.67903644 -99 83 C-92.8944529 83.02464513 -86.78893449 83.04283371 -80.68334961 83.05493164 C-78.60456844 83.05997288 -76.52579084 83.06680574 -74.44702148 83.07543945 C-71.46597414 83.08751422 -68.48497351 83.09323024 -65.50390625 83.09765625 C-64.56849503 83.10281754 -63.6330838 83.10797882 -62.66932678 83.11329651 C-61.80850998 83.11337204 -60.94769318 83.11344757 -60.06079102 83.11352539 C-58.91828636 83.11685631 -58.91828636 83.11685631 -57.75270081 83.12025452 C-55.97189395 83.19090955 -55.97189395 83.19090955 -55 82 C-54.83817786 79.73149331 -54.72168999 77.45971479 -54.625 75.1875 C-53.93818841 63.92620444 -52.6530333 55.40690299 -44.40625 47.06640625 C-35.36279302 39.30019076 -24.50266888 39.15281173 -13 40 C-5.20844948 41.80359966 0.72914854 45.69974352 5.5390625 52.0234375 C11.06238495 61.55811146 9.43535999 73.37319762 9 84 C8.34 84 7.68 84 7 84 C6.608125 85.0725 6.21625 86.145 5.8125 87.25 C4.27259896 90.91466833 2.21849461 92.6513688 -1 95 C-1 95.66 -1 96.32 -1 97 C-2.98 97.99 -2.98 97.99 -5 99 C-5 99.66 -5 100.32 -5 101 C-6.485 101.495 -6.485 101.495 -8 102 C-8.7425 102.763125 -9.485 103.52625 -10.25 104.3125 C-13.33882304 107.33112252 -16.20220196 108.98940104 -20 111 C-20 111.66 -20 112.32 -20 113 C-20.99 113 -21.98 113 -23 113 C-23.556875 113.5775 -24.11375 114.155 -24.6875 114.75 C-26.84936277 116.85343404 -28.26250407 117.70559398 -30.9375 118.9375 C-34.71983609 120.7095945 -37.07986591 123.00094337 -40 126 C-41.65816784 126.68753301 -43.32459336 127.35561283 -45 128 C-46.3743291 129.29103643 -47.70896357 130.6256709 -49 132 C-51.02777974 133.7007185 -52.61736664 134.87011528 -55.12890625 135.72265625 C-59.18726402 137.52821134 -62.48069939 140.12757232 -66 142.8125 C-67.04800781 143.59463867 -67.04800781 143.59463867 -68.1171875 144.39257812 C-72.04272522 147.35895144 -75.59508696 150.43003731 -79 154 C-80.3921875 155.3303125 -80.3921875 155.3303125 -81.8125 156.6875 C-84.22906662 158.71162149 -84.22906662 158.71162149 -84 161 C-84.66 161 -85.32 161 -86 161 C-89.50059179 164.59035055 -91.50401266 167.64782974 -93.11328125 172.45703125 C-94.541856 176.55395707 -96.25130718 180.54511909 -97.93139648 184.54467773 C-100.65267854 191.203948 -101.163664 197.23054412 -101.125 204.3125 C-101.12886719 205.04017578 -101.13273438 205.76785156 -101.13671875 206.51757812 C-101.45352815 210.05176607 -101.45352815 210.05176607 -100 213 C-98.01305149 213.096708 -96.02260987 213.12187052 -94.03330994 213.12025452 C-92.73615555 213.12162918 -91.43900116 213.12300385 -90.10253906 213.12442017 C-88.6516111 213.12088055 -87.20068337 213.11724573 -85.74975586 213.11352539 C-84.23238629 213.11324353 -82.71501658 213.11340123 -81.19764709 213.1139679 C-77.06559484 213.11425591 -72.93357137 213.10835858 -68.80152583 213.10139394 C-64.48801108 213.09516102 -60.17449573 213.09455665 -55.86097717 213.09336853 C-47.68699883 213.09025503 -39.51303379 213.08204139 -31.33906132 213.07201904 C-22.03571031 213.06085848 -12.73235868 213.0553476 -3.42900264 213.05032361 C15.71400732 213.03985879 34.85699904 213.02151308 54 213 C54 201.45 54 189.9 54 178 C21.99 177.67 -10.02 177.34 -43 177 C-42.67 174.69 -42.34 172.38 -42 170 C-41.34 170 -40.68 170 -40 170 C-38.84724497 168.88217694 -37.70121356 167.75690415 -36.58203125 166.60546875 C-26.21414932 156.08398857 -13.98664909 148.54743608 -1.12939453 141.46289062 C11.62255756 134.38430642 23.743106 126.27606716 35 117 C35.68449219 116.443125 36.36898437 115.88625 37.07421875 115.3125 C43.18128073 109.82300608 49.58299818 100.15788193 51 92 C51.66 92 52.32 92 53 92 C55.34785791 84.60378357 55.26331355 77.52553118 55.1875 69.8125 C55.18685547 68.55501953 55.18621094 67.29753906 55.18554688 66.00195312 C55.16511817 58.44377842 55.16511817 58.44377842 54 51 C53.34 51 52.68 51 52 51 C51.88785156 50.03900391 51.88785156 50.03900391 51.7734375 49.05859375 C50.73824858 42.24867451 48.77365408 38.81775251 44 34 C42.91338424 32.69021622 41.83017197 31.37760299 40.75 30.0625 C34.51796006 22.99311549 27.11697254 16.83390558 18 14 C17.01 14 16.02 14 15 14 C14.505 12.515 14.505 12.515 14 11 C-9.26150847 6.40243127 -37.4203345 4.09055367 -60 13 Z " fill="#E0E0E0" transform="translate(331,6)"/>
<path d="M0 0 C1.23073242 -0.02416992 1.23073242 -0.02416992 2.48632812 -0.04882812 C7.9379136 -0.05317895 11.701349 0.83285501 16.5625 3.3125 C16.5625 3.9725 16.5625 4.6325 16.5625 5.3125 C17.119375 5.56 17.67625 5.8075 18.25 6.0625 C26.48172709 10.51208221 29.66276936 17.80246207 32.5625 26.3125 C36.17496851 38.72689258 35.85689702 51.93380041 35.9375 64.75 C35.94562714 65.52145355 35.95375427 66.2929071 35.96212769 67.08773804 C36.03958244 76.91378127 35.29767813 85.79349134 32.5625 95.3125 C32.32926025 96.15965576 32.09602051 97.00681152 31.85571289 97.87963867 C29.41005042 106.44093596 24.98627141 114.25083768 17.5625 119.3125 C16.9025 119.3125 16.2425 119.3125 15.5625 119.3125 C15.0675 120.7975 15.0675 120.7975 14.5625 122.3125 C4.89790256 123.77130716 -7.641015 125.41196714 -16.40625 120.125 C-18.25441547 118.63349804 -19.8354289 117.06451864 -21.4375 115.3125 C-21.96085937 114.78140625 -22.48421875 114.2503125 -23.0234375 113.703125 C-35.08442515 99.86666201 -34.87970988 77.20456762 -34.875 59.875 C-34.8760675 59.04022125 -34.87713501 58.2054425 -34.87823486 57.34536743 C-34.85959892 47.23682137 -34.5720518 37.40197185 -32.3125 27.5 C-32.03104126 26.26068726 -32.03104126 26.26068726 -31.74389648 24.99633789 C-29.70085826 17.40597732 -25.4455777 10.49438287 -19.4375 5.375 C-18.81875 4.82972656 -18.2 4.28445312 -17.5625 3.72265625 C-12.02152991 0.0456522 -6.41960547 -0.02509619 0 0 Z " fill="#FEFEFE" transform="translate(105.4375,55.6875)"/>
<path d="M0 0 C36.73336093 -0.87927397 36.73336093 -0.87927397 50 4 C50.33 4.66 50.66 5.32 51 6 C52.27875 6.226875 53.5575 6.45375 54.875 6.6875 C67.50652443 9.31326571 81.37216994 21.55644782 90 31 C90.33 31.99 90.66 32.98 91 34 C91.99 34.33 92.98 34.66 94 35 C95.46484375 37.1875 95.46484375 37.1875 96.9375 40 C97.45828125 40.99 97.9790625 41.98 98.515625 43 C100.16076736 46.3249193 101.65780506 49.68422809 103.04296875 53.125 C103.89815178 55.05747219 103.89815178 55.05747219 105.4609375 56.38671875 C117.26743868 68.76256898 116.38066854 95.96497262 116.4375 111.8125 C116.4436734 112.53931976 116.4498468 113.26613953 116.45620728 114.01498413 C116.58866513 138.25751057 110.82153352 167.21146463 96 187 C94.67165104 188.33829914 93.33878657 189.6721423 92 191 C91.525625 191.825 91.05125 192.65 90.5625 193.5 C88.74585332 196.40663468 86.72220032 197.94175098 84 200 C83.401875 200.598125 82.80375 201.19625 82.1875 201.8125 C72.48827711 211.51172289 62.87337399 217.1148274 49.77734375 220.90234375 C46.18862867 221.9451865 42.68971483 223.12364019 39.1875 224.421875 C20.02480003 229.48630285 -2.05062609 226.22064549 -20.4375 220 C-21.17863037 219.7510498 -21.91976074 219.50209961 -22.68334961 219.24560547 C-24.49259621 218.59162995 -26.25288761 217.80539155 -28 217 C-28.33 216.01 -28.66 215.02 -29 214 C-30.73866991 213.30043687 -30.73866991 213.30043687 -32.875 212.875 C-42.92466687 209.78034068 -49.8815559 201.43960985 -56.125 193.3828125 C-57.66319709 191.42802036 -59.24052681 189.74412894 -61 188 C-62.01866229 186.34467377 -63.01810813 184.67739862 -64 183 C-64.474375 182.401875 -64.94875 181.80375 -65.4375 181.1875 C-67.71789115 177.99495239 -69.32895376 174.54102656 -71 171 C-71.30421875 170.37351563 -71.6084375 169.74703125 -71.921875 169.1015625 C-73.54431473 165.59648043 -74.35138581 162.86524386 -74 159 C-74.66 159 -75.32 159 -76 159 C-76.63181042 156.43902087 -77.25543449 153.87644664 -77.875 151.3125 C-78.04902344 150.61060547 -78.22304687 149.90871094 -78.40234375 149.18554688 C-81.32037724 137.027074 -82.3034752 125.31483648 -82.20581055 112.8581543 C-82.18729115 110.40988974 -82.18530338 107.96199996 -82.18554688 105.51367188 C-82.18063921 103.94530923 -82.17481421 102.37694913 -82.16796875 100.80859375 C-82.16685593 100.08256454 -82.1657431 99.35653534 -82.16459656 98.60850525 C-82.13318421 95.26786277 -82.03427099 92.19463354 -81 89 C-80.34 89 -79.68 89 -79 89 C-79.02578125 88.01902344 -79.0515625 87.03804688 -79.078125 86.02734375 C-79.07385976 81.78662829 -78.48869996 77.73137771 -77.75 73.5625 C-77.61650146 72.8089624 -77.48300293 72.0554248 -77.34545898 71.27905273 C-76.47939675 66.72517784 -75.40005484 62.82528075 -73.0234375 58.8046875 C-71.81190343 56.66831827 -71.02826716 54.49422015 -70.1875 52.1875 C-67.57668239 45.50505015 -64.06933262 38.04622175 -58 34 C-57.608125 33.29875 -57.21625 32.5975 -56.8125 31.875 C-49.52460382 20.31488882 -35.65996456 10.6854731 -23 6 C-20.15234375 5.84765625 -20.15234375 5.84765625 -18 6 C-18 5.34 -18 4.68 -18 4 C-11.84629161 2.176679 -6.40353322 1.7638041 0 2 C0 1.34 0 0.68 0 0 Z M-14 13 C-15.83111328 13.61294922 -15.83111328 13.61294922 -17.69921875 14.23828125 C-23.32959723 16.27480112 -28.16541857 18.49492846 -33 22 C-33.78632812 22.29261719 -34.57265625 22.58523437 -35.3828125 22.88671875 C-44.43680796 26.73804518 -52.9378013 36.87836822 -56.96484375 45.734375 C-58.24923796 48.54550194 -59.69626049 51.25957434 -61.125 54 C-63.46481597 58.65599743 -65.01782792 62.89270516 -66 68 C-66.66 68 -67.32 68 -68 68 C-73.62483619 84.0120337 -73.19019582 101.49265127 -73.25 118.25 C-73.25526703 119.01248047 -73.26053406 119.77496094 -73.26596069 120.56054688 C-73.30880891 128.58017935 -73.31025035 136.24169657 -71 144 C-70.67 144.33 -70.34 144.66 -70 145 C-69.6992016 146.80776859 -69.43500834 148.6216678 -69.1875 150.4375 C-68.14927839 156.93800697 -66.60947231 163.54922241 -62.5703125 168.890625 C-60.60793329 171.52665678 -59.25551325 174.29983958 -57.8125 177.25 C-57.28269531 178.32765625 -56.75289062 179.4053125 -56.20703125 180.515625 C-55.80871094 181.33546875 -55.41039063 182.1553125 -55 183 C-54.34 183 -53.68 183 -53 183 C-53 183.66 -53 184.32 -53 185 C-52.34 185 -51.68 185 -51 185 C-50.79375 185.721875 -50.5875 186.44375 -50.375 187.1875 C-48.59560757 190.82716634 -46.17714491 192.5360917 -43 195 C-42.32324219 195.69416016 -42.32324219 195.69416016 -41.6328125 196.40234375 C-35.87991749 202.0313726 -26.38552774 210 -18 210 C-18 210.66 -18 211.32 -18 212 C-8.34451936 214.45963073 0.99494167 216.68068963 11 217 C12.0725 217.0515625 13.145 217.103125 14.25 217.15625 C32.44662986 217.65252172 49.64605173 212.74660708 66 205 C66 204.34 66 203.68 66 203 C66.58394531 202.72027344 67.16789063 202.44054687 67.76953125 202.15234375 C80.18194779 195.73962417 91.57521737 181.2743479 96 168 C96.66 168 97.32 168 98 168 C98.17015625 167.30777344 98.3403125 166.61554688 98.515625 165.90234375 C100.25428814 158.88295372 102.10086009 151.90172089 104.03515625 144.93359375 C106.60170073 134.79693251 107.31134272 125.20893316 107.25 114.75 C107.25773438 113.44675781 107.26546875 112.14351563 107.2734375 110.80078125 C107.2229951 85.35259154 100.3135104 63.09098764 88 41 C87.34 41 86.68 41 86 41 C85.91363281 40.4121875 85.82726562 39.824375 85.73828125 39.21875 C84.79637733 36.38805461 83.48426739 35.37491215 81.1875 33.5 C78.87737444 31.5783392 76.72573394 29.71851642 74.625 27.5625 C73.13544499 25.76896376 73.13544499 25.76896376 71 26 C71 25.34 71 24.68 71 24 C69.88625 23.34 68.7725 22.68 67.625 22 C66.99851563 21.62875 66.37203125 21.2575 65.7265625 20.875 C64.02527333 19.84931652 64.02527333 19.84931652 62 20 C62 19.34 62 18.68 62 18 C59.56427941 17.16112944 57.12666783 16.32873471 54.6875 15.5 C53.99720703 15.26152344 53.30691406 15.02304687 52.59570312 14.77734375 C49.61068511 13.76791737 47.17341086 13 44 13 C44 12.34 44 11.68 44 11 C25.08865791 7.22598317 4.42407863 6.83202568 -14 13 Z " fill="#E2E2E2" transform="translate(89,5)"/>
<path d="M0 0 C1.04115841 1.30144802 2.05377841 2.62797869 3 4 C3.99 4.33 4.98 4.66 6 5 C19.93048844 19.85478625 21.5285861 43.55895321 21.28125 62.90527344 C21.24941326 65.42137119 21.24019523 67.93684352 21.234375 70.453125 C21.22522799 72.05990356 21.2148597 73.66667575 21.203125 75.2734375 C21.19887512 76.02225189 21.19462524 76.77106628 21.19024658 77.54257202 C21.11741904 82.76516192 21.11741904 82.76516192 20 85 C19.63399386 87.3075543 19.3059688 89.62122056 19 91.9375 C18.10806175 98.67581475 18.10806175 98.67581475 17 102 C16.34 102 15.68 102 15 102 C15.00644531 102.63164062 15.01289063 103.26328125 15.01953125 103.9140625 C14.23274996 114.21644391 7.32636029 120.39663579 0 127 C-0.66 127 -1.32 127 -2 127 C-2 127.66 -2 128.32 -2 129 C-3.20268681 129.65628849 -4.41252554 130.29947505 -5.625 130.9375 C-6.63433594 131.47697266 -6.63433594 131.47697266 -7.6640625 132.02734375 C-12.80965701 134.16990735 -18.05647713 134.13611205 -23.5625 134.125 C-24.84253906 134.12757813 -26.12257812 134.13015625 -27.44140625 134.1328125 C-30.46082713 134.02012281 -33.10599359 133.85149537 -36 133 C-36.495 132.01 -36.495 132.01 -37 131 C-38.175625 130.608125 -39.35125 130.21625 -40.5625 129.8125 C-50.5232315 126.15490519 -55.6423616 117.97513009 -60.16308594 108.83300781 C-65.09647661 98.02790362 -67.30447661 86.02698422 -67.3359375 74.21484375 C-67.3425943 73.31488174 -67.3492511 72.41491974 -67.35610962 71.48768616 C-67.36616351 69.59443174 -67.37092891 67.70114241 -67.37060547 65.80786133 C-67.37495286 62.9682904 -67.41127937 60.13031011 -67.44921875 57.29101562 C-67.57290225 37.21039788 -64.23332385 17.79243372 -49.86328125 2.765625 C-45.35382761 -1.55242569 -42.34041115 -4 -36 -4 C-36 -4.66 -36 -5.32 -36 -6 C-23.06712 -8.40071425 -11.05799028 -7.44721795 0 0 Z M-47.39453125 10.92578125 C-58.43771287 25.19324947 -58.48402249 44.11908301 -58.5 61.375 C-58.5043103 62.17720978 -58.50862061 62.97941956 -58.51306152 63.80593872 C-58.55326969 81.29716097 -57.58022726 103.69224153 -45 117 C-44.47535156 117.57621094 -43.95070313 118.15242188 -43.41015625 118.74609375 C-37.4243234 124.6192521 -30.44933109 125.06448388 -22.375 125.1875 C-17.85176367 125.10385552 -13.47124267 124.67490455 -9 124 C-8.505 122.515 -8.505 122.515 -8 121 C-6.88625 120.5978125 -6.88625 120.5978125 -5.75 120.1875 C-2.09228994 118.60803429 -0.262471 116.14778574 2 113 C2.43570313 112.4225 2.87140625 111.845 3.3203125 111.25 C7.25714427 105.59227769 8.60086473 99.67217688 10 93 C10.350625 91.74703125 10.70125 90.4940625 11.0625 89.203125 C12.69046589 81.83917716 12.35006498 74.19168065 12.3125 66.6875 C12.30827026 65.48305237 12.30827026 65.48305237 12.30395508 64.25427246 C12.60032569 35.33722721 12.60032569 35.33722721 -0.52880859 10.45263672 C-3.36883059 7.80695965 -3.36883059 7.80695965 -7 7 C-7 6.34 -7 5.68 -7 5 C-12.60921561 2.16531597 -17.12330941 1.48370239 -23.375 1.5625 C-24.21772461 1.57079834 -25.06044922 1.57909668 -25.92871094 1.58764648 C-35.20613264 1.84055253 -40.88640428 4.28909869 -47.39453125 10.92578125 Z " fill="#E2E2E2" transform="translate(129,54)"/>
<path d="M0 0 C0.66 0 1.32 0 2 0 C2 0.66 2 1.32 2 2 C44.57 2.495 44.57 2.495 88 3 C88 20.82 88 38.64 88 57 C30.91 57 -26.18 57 -85 57 C-86.81892311 53.36215378 -86.19092995 49.06730984 -86.1875 45.0625 C-86.18669434 44.1127832 -86.18588867 43.16306641 -86.18505859 42.18457031 C-86.06794946 28.76983431 -86.06794946 28.76983431 -84 23 C-83.34 22.67 -82.68 22.34 -82 22 C-82.66 32.89 -83.32 43.78 -84 55 C-27.57 55 28.86 55 87 55 C86.67 38.5 86.34 22 86 5 C57.29 4.67 28.58 4.34 -1 4 C-0.67 2.68 -0.34 1.36 0 0 Z " fill="#ECECEC" transform="translate(306,171)"/>
<path d="M0 0 C0.495 1.98 0.495 1.98 1 4 C33.01 4.33 65.02 4.66 98 5 C98 17.21 98 29.42 98 42 C46.19 42 -5.62 42 -59 42 C-59 20 -59 20 -56 10 C-55.34 10 -54.68 10 -54 10 C-54.2165625 10.825 -54.433125 11.65 -54.65625 12.5 C-55.07390625 14.2325 -55.07390625 14.2325 -55.5 16 C-55.7784375 17.11375 -56.056875 18.2275 -56.34375 19.375 C-57.31007128 26.18526429 -57 33.12152077 -57 40 C-6.18 40.33 44.64 40.66 97 41 C97 29.45 97 17.9 97 6 C64.99 6 32.98 6 0 6 C-1 2 -1 2 0 0 Z " fill="#EBEBEB" transform="translate(288,178)"/>
<path d="M0 0 C0.33 1.32 0.66 2.64 1 4 C33.01 4.33 65.02 4.66 98 5 C98 16.88 98 28.76 98 41 C97.67 41 97.34 41 97 41 C97 29.45 97 17.9 97 6 C64.99 6 32.98 6 0 6 C-1 2 -1 2 0 0 Z " fill="#F3F4F3" transform="translate(288,178)"/>
<path d="M0 0 C0.66 0 1.32 0 2 0 C2 0.66 2 1.32 2 2 C44.57 2.495 44.57 2.495 88 3 C88 3.33 88 3.66 88 4 C58.63 4 29.26 4 -1 4 C-0.67 2.68 -0.34 1.36 0 0 Z " fill="#F0F0F0" transform="translate(306,171)"/>
<path d="M0 0 C0.83724609 -0.00773437 1.67449219 -0.01546875 2.53710938 -0.0234375 C6.9463024 -0.00947331 10.42907452 0.18430834 14.4375 2.25 C10.6875 3.375 10.6875 3.375 8.4375 2.25 C5.69456696 2.09810168 2.99398408 2.01855611 0.25 2 C-0.49314453 1.979375 -1.23628906 1.95875 -2.00195312 1.9375 C-8.47880063 1.89208827 -13.18814028 3.33173197 -18.328125 7.484375 C-22.9260605 12.14014616 -26.63783148 15.92608913 -28.5625 22.25 C-29.51517647 19.72284027 -29.73966742 18.65103589 -28.62890625 16.13671875 C-20.87998794 4.80518367 -13.83799882 -0.1284269 0 0 Z " fill="#F1F1F1" transform="translate(105.5625,55.75)"/>
<path d="M0 0 C0.66 0.33 1.32 0.66 2 1 C-5.26 8.26 -12.52 15.52 -20 23 C-20 19.06830895 -18.60580385 17.83572772 -16 15 C-15.34 15 -14.68 15 -14 15 C-13.60748047 14.10087891 -13.60748047 14.10087891 -13.20703125 13.18359375 C-11.92779812 10.86938236 -10.73749558 9.70340555 -8.6875 8.0625 C-5.59914992 5.52333351 -2.78375034 2.86810641 0 0 Z " fill="#F2F2F2" transform="translate(261,152)"/>
<path d="M0 0 C0.66 0.33 1.32 0.66 2 1 C-4.27 7.27 -10.54 13.54 -17 20 C-17 15.26122256 -13.89894052 12.94888166 -10.75 9.625 C-7.26586147 6.2992314 -3.64943887 3.14232082 0 0 Z " fill="#F3F4F3" transform="translate(52,28)"/>
<path d="M0 0 C0.66 0.33 1.32 0.66 2 1 C-0.61691164 3.67470955 -3.24481708 6.33834481 -5.875 9 C-6.62136719 9.763125 -7.36773437 10.52625 -8.13671875 11.3125 C-8.85214844 12.034375 -9.56757812 12.75625 -10.3046875 13.5 C-11.2944458 14.50546875 -11.2944458 14.50546875 -12.30419922 15.53125 C-14 17 -14 17 -16 17 C-12.88767901 9.87024427 -5.95899289 4.76719431 0 0 Z " fill="#E7E7E7" transform="translate(48,21)"/>
<path d="M0 0 C0.66 0.33 1.32 0.66 2 1 C1.55084229 1.4439209 1.10168457 1.8878418 0.63891602 2.34521484 C-1.38915607 4.35253603 -3.41336416 6.36370999 -5.4375 8.375 C-6.14455078 9.07367188 -6.85160156 9.77234375 -7.58007812 10.4921875 C-8.25361328 11.1625 -8.92714844 11.8328125 -9.62109375 12.5234375 C-10.2442749 13.14138184 -10.86745605 13.75932617 -11.50952148 14.39599609 C-13.09048151 15.94660067 -13.09048151 15.94660067 -14 18 C-14.66 18 -15.32 18 -16 18 C-12.59573688 10.5272273 -6.25350037 5.10489826 0 0 Z " fill="#E7E8E8" transform="translate(253,20)"/>
<path d="M0 0 C0 3 0 3 -1.65234375 5.05078125 C-6.73935125 10.08561431 -11.86624696 14.30234746 -18 18 C-18.66 17.67 -19.32 17.34 -20 17 C-19.05898438 16.27554688 -18.11796875 15.55109375 -17.1484375 14.8046875 C-15.89045555 13.8283433 -14.6326526 12.85176842 -13.375 11.875 C-12.75753906 11.400625 -12.14007813 10.92625 -11.50390625 10.4375 C-7.35882569 7.20870041 -3.647983 3.78267776 0 0 Z " fill="#E9E9E9" transform="translate(372,116)"/>
<path d="M0 0 C0.66 0.33 1.32 0.66 2 1 C-3.28 6.61 -8.56 12.22 -14 18 C-14 14.36535685 -13.37451463 13.97159118 -10.9375 11.42578125 C-10.30585938 10.75869141 -9.67421875 10.09160156 -9.0234375 9.40429688 C-8.35570312 8.71400391 -7.68796875 8.02371094 -7 7.3125 C-5.99839844 6.2596582 -5.99839844 6.2596582 -4.9765625 5.18554688 C-3.32422679 3.45059438 -1.6652685 1.72252793 0 0 Z " fill="#E9EAE9" transform="translate(251,150)"/>
<path d="M0 0 C0.66 0.33 1.32 0.66 2 1 C-2.62 5.62 -7.24 10.24 -12 15 C-12 11.45595664 -11.39010515 10.89732095 -9.125 8.3125 C-8.59132812 7.68988281 -8.05765625 7.06726562 -7.5078125 6.42578125 C-6 5 -6 5 -4 5 C-4 4.34 -4 3.68 -4 3 C-2 1.375 -2 1.375 0 0 Z " fill="#F2F2F2" transform="translate(257,27)"/>
<path d="M0 0 C0.33 0.99 0.66 1.98 1 3 C-2.36356705 8.13669346 -7.19432999 12.24923316 -12 16 C-12.66 15.67 -13.32 15.34 -14 15 C-13.15695312 14.25234375 -12.31390625 13.5046875 -11.4453125 12.734375 C-10.33825636 11.73990084 -9.23150125 10.74509151 -8.125 9.75 C-7.56941406 9.25886719 -7.01382812 8.76773438 -6.44140625 8.26171875 C-3.64150364 5.73168627 -1.34491479 3.57508995 0 0 Z " fill="#EAEAEA" transform="translate(329,89)"/>
<path d="M0 0 C0.66 0.33 1.32 0.66 2 1 C0.23519919 2.8187336 -1.53630765 4.62994991 -3.3125 6.4375 C-4.06176758 7.2119043 -4.06176758 7.2119043 -4.82617188 8.00195312 C-7.19869635 10.40590176 -8.74970379 11.91656793 -12 13 C-12 12.34 -12 11.68 -12 11 C-11.34 11 -10.68 11 -10 11 C-9.67 10.01 -9.34 9.02 -9 8 C-7.1875 6.2109375 -7.1875 6.2109375 -5 4.375 C-4.278125 3.76398438 -3.55625 3.15296875 -2.8125 2.5234375 C-2.214375 2.02070313 -1.61625 1.51796875 -1 1 C-0.67 0.67 -0.34 0.34 0 0 Z " fill="#E9E9E9" transform="translate(301,165)"/>
<path d="M0 0 C-1.44077046 3.36179774 -3.24750021 5.59156268 -6 8 C-6.66 8 -7.32 8 -8 8 C-6.48291727 4.46014029 -4.24676932 0 0 0 Z " fill="#F2F3F2" transform="translate(295,57)"/>
</svg>
